SplineFontDB: 3.0
FontName: CreteRound-Regular
FullName: Crete Round
FamilyName: Crete Round
Weight: Book
Copyright: Copyright (c) 2011, TypeTogether (www.type-together.com), with Reserved Font Names "Crete" and "Crete Round"
Version: 1.001
ItalicAngle: 0
UnderlinePosition: -50
UnderlineWidth: 50
Ascent: 800
Descent: 200
sfntRevision: 0x00010042
LayerCount: 2
Layer: 0 1 "Back"  1
Layer: 1 1 "Fore"  0
XUID: [1021 288 713564382 6513672]
FSType: 0
OS2Version: 2
OS2_WeightWidthSlopeOnly: 0
OS2_UseTypoMetrics: 1
CreationTime: 1324051579
ModificationTime: 1324085575
PfmFamily: 17
TTFWeight: 400
TTFWidth: 5
LineGap: 0
VLineGap: 0
Panose: 2 0 5 3 5 0 0 2 0 4
OS2TypoAscent: 190
OS2TypoAOffset: 1
OS2TypoDescent: -86
OS2TypoDOffset: 1
OS2TypoLinegap: 0
OS2WinAscent: 0
OS2WinAOffset: 1
OS2WinDescent: 9
OS2WinDOffset: 1
HheadAscent: 0
HheadAOffset: 1
HheadDescent: -9
HheadDOffset: 1
OS2SubXSize: 700
OS2SubYSize: 650
OS2SubXOff: 0
OS2SubYOff: 140
OS2SupXSize: 700
OS2SupYSize: 650
OS2SupXOff: 0
OS2SupYOff: 477
OS2StrikeYSize: 50
OS2StrikeYPos: 250
OS2Vendor: 'TT  '
OS2CodePages: 20000093.00000000
OS2UnicodeRanges: a00000af.5000204b.00000000.00000000
Lookup: 258 0 0 "'kern' Horizontal Kerning in Latin lookup 0"  {"'kern' Horizontal Kerning in Latin lookup 0 subtable"  } ['kern' ('DFLT' <'dflt' > 'latn' <'dflt' > ) ]
MarkAttachClasses: 1
DEI: 91125
TtTable: prep
PUSHW_1
 511
SCANCTRL
PUSHB_1
 4
SCANTYPE
EndTTInstrs
ShortTable: maxp 16
  1
  0
  417
  104
  7
  94
  4
  2
  0
  1
  1
  0
  64
  0
  2
  1
EndShort
LangName: 1033 "" "" "" "TypeTogether: Crete Round: 2011" "" "Version 1.001" "" "Crete Round is a trademark of TypeTogether." "TypeTogether" "Veronika Burian" "" "www.type-together.com/Crete" "www.type-together.com" "This Font Software is licensed under the SIL Open Font License, Version 1.1. This license is available with a FAQ at: http://scripts.sil.org/OFL" "http://scripts.sil.org/OFL" 
GaspTable: 1 65535 15
Encoding: UnicodeBmp
UnicodeInterp: none

StartChar: exclam
Encoding: 33 33 5
Width: 253
GlyphClass: 2
Flags: W
LayerCount: 2
Fore
SplineSet
138 156 m 2,0,-1
 114 156 l 2,1,2
 103 156 103 156 99 160 c 128,-1,3
 95 164 95 164 94 175 c 2,4,-1
 72 510 l 1,5,-1
 72 659 l 2,6,7
 72 670 72 670 76 674 c 128,-1,8
 80 678 80 678 91 678 c 2,9,-1
 161 678 l 2,10,11
 172 678 172 678 176 674 c 128,-1,12
 180 670 180 670 180 659 c 2,13,-1
 180 508 l 1,14,-1
 158 175 l 2,15,16
 157 164 157 164 153 160 c 128,-1,17
 149 156 149 156 138 156 c 2,0,-1
175.5 1 m 128,-1,19
 158 -17 158 -17 126.5 -17 c 128,-1,20
 95 -17 95 -17 76.5 0.5 c 128,-1,21
 58 18 58 18 58 44.5 c 128,-1,22
 58 71 58 71 77 89 c 128,-1,23
 96 107 96 107 126 107 c 128,-1,24
 156 107 156 107 174.5 90 c 128,-1,25
 193 73 193 73 193 46 c 128,-1,18
 193 19 193 19 175.5 1 c 128,-1,19
EndSplineSet
EndChar

StartChar: quotedbl
Encoding: 34 34 6
Width: 374
GlyphClass: 2
Flags: W
LayerCount: 2
Fore
SplineSet
125 457 m 2,0,-1
 97 457 l 2,1,2
 85 457 85 457 80.5 460.5 c 128,-1,3
 76 464 76 464 75 476 c 2,4,-1
 63 559 l 2,5,6
 60 575 60 575 60 597 c 2,7,-1
 60 660 l 2,8,9
 60 671 60 671 64 675 c 128,-1,10
 68 679 68 679 79 679 c 2,11,-1
 143 679 l 2,12,13
 154 679 154 679 158 675 c 128,-1,14
 162 671 162 671 162 660 c 2,15,-1
 162 595 l 2,16,17
 162 575 162 575 159 557 c 2,18,-1
 147 476 l 2,19,20
 146 464 146 464 141.5 460.5 c 128,-1,21
 137 457 137 457 125 457 c 2,0,-1
277 457 m 2,22,-1
 249 457 l 2,23,24
 237 457 237 457 232.5 460.5 c 128,-1,25
 228 464 228 464 227 476 c 2,26,-1
 215 559 l 2,27,28
 212 575 212 575 212 597 c 2,29,-1
 212 660 l 2,30,31
 212 671 212 671 216 675 c 128,-1,32
 220 679 220 679 231 679 c 2,33,-1
 295 679 l 2,34,35
 306 679 306 679 310 675 c 128,-1,36
 314 671 314 671 314 660 c 2,37,-1
 314 595 l 2,38,39
 314 575 314 575 311 557 c 2,40,-1
 299 476 l 2,41,42
 298 464 298 464 293.5 460.5 c 128,-1,43
 289 457 289 457 277 457 c 2,22,-1
EndSplineSet
EndChar

StartChar: numbersign
Encoding: 35 35 7
Width: 563
GlyphClass: 2
Flags: W
LayerCount: 2
Fore
SplineSet
183 330 m 1,0,-1
 80 330 l 2,1,2
 70 330 70 330 66.5 333 c 128,-1,3
 63 336 63 336 63 347 c 2,4,-1
 63 349 l 2,5,6
 63 360 63 360 66.5 363 c 128,-1,7
 70 366 70 366 80 366 c 2,8,-1
 190 366 l 1,9,-1
 218 514 l 2,10,11
 219 524 219 524 223.5 527.5 c 128,-1,12
 228 531 228 531 239 531 c 2,13,-1
 241 531 l 2,14,15
 258 531 258 531 255 514 c 2,16,-1
 227 366 l 1,17,-1
 359 366 l 1,18,-1
 385 514 l 2,19,20
 386 524 386 524 390.5 527.5 c 128,-1,21
 395 531 395 531 406 531 c 2,22,-1
 408 531 l 2,23,24
 425 531 425 531 422 514 c 2,25,-1
 396 366 l 1,26,-1
 506 366 l 2,27,28
 516 366 516 366 519.5 363 c 128,-1,29
 523 360 523 360 523 349 c 2,30,-1
 523 347 l 2,31,32
 523 336 523 336 519.5 333 c 128,-1,33
 516 330 516 330 506 330 c 2,34,-1
 389 330 l 1,35,-1
 368 207 l 1,36,-1
 483 207 l 2,37,38
 494 207 494 207 497 203.5 c 128,-1,39
 500 200 500 200 500 190 c 2,40,-1
 500 188 l 2,41,42
 500 178 500 178 497 174.5 c 128,-1,43
 494 171 494 171 483 171 c 2,44,-1
 361 171 l 1,45,-1
 331 0 l 2,46,47
 330 -10 330 -10 326 -13.5 c 128,-1,48
 322 -17 322 -17 311 -17 c 2,49,-1
 309 -17 l 2,50,51
 299 -17 299 -17 295.5 -13.5 c 128,-1,52
 292 -10 292 -10 294 0 c 2,53,-1
 324 171 l 1,54,-1
 191 171 l 1,55,-1
 159 0 l 2,56,57
 158 -10 158 -10 154 -13.5 c 128,-1,58
 150 -17 150 -17 139 -17 c 2,59,-1
 137 -17 l 2,60,61
 127 -17 127 -17 123.5 -13.5 c 128,-1,62
 120 -10 120 -10 122 0 c 2,63,-1
 154 171 l 1,64,-1
 57 171 l 2,65,66
 46 171 46 171 43 174.5 c 128,-1,67
 40 178 40 178 40 188 c 2,68,-1
 40 190 l 2,69,70
 40 200 40 200 43 203.5 c 128,-1,71
 46 207 46 207 57 207 c 2,72,-1
 160 207 l 1,73,-1
 183 330 l 1,0,-1
352 330 m 1,74,-1
 220 330 l 1,75,-1
 197 207 l 1,76,-1
 331 207 l 1,77,-1
 352 330 l 1,74,-1
EndSplineSet
EndChar

StartChar: dollar
Encoding: 36 36 8
Width: 431
GlyphClass: 2
Flags: W
LayerCount: 2
Fore
SplineSet
165 -98 m 2,0,-1
 161 -98 l 2,1,2
 150 -98 150 -98 146.5 -94 c 128,-1,3
 143 -90 143 -90 144 -79 c 2,4,-1
 153 -15 l 1,5,6
 101 -12 101 -12 69.5 -3.5 c 128,-1,7
 38 5 38 5 34.5 9.5 c 128,-1,8
 31 14 31 14 31 25 c 2,9,-1
 31 131 l 2,10,11
 31 142 31 142 35 146 c 128,-1,12
 39 150 39 150 50 150 c 2,13,-1
 98 150 l 2,14,15
 109 150 109 150 113 146 c 128,-1,16
 117 142 117 142 116 131 c 2,17,-1
 113 77 l 1,18,19
 128 65 128 65 163 60 c 1,20,-1
 183 212 l 1,21,22
 94 244 94 244 68 276 c 0,23,24
 37 313 37 313 37 365 c 0,25,26
 37 436 37 436 88.5 482 c 128,-1,27
 140 528 140 528 227 531 c 1,28,-1
 233 577 l 2,29,30
 235 588 235 588 239.5 592 c 128,-1,31
 244 596 244 596 255 596 c 2,32,-1
 259 596 l 2,33,34
 270 596 270 596 273.5 592 c 128,-1,35
 277 588 277 588 275 577 c 2,36,-1
 269 530 l 1,37,38
 306 528 306 528 337 520 c 128,-1,39
 368 512 368 512 371.5 507.5 c 128,-1,40
 375 503 375 503 375 492 c 2,41,-1
 375 386 l 2,42,43
 375 375 375 375 371 371 c 128,-1,44
 367 367 367 367 356 367 c 2,45,-1
 308 367 l 2,46,47
 297 367 297 367 293.5 371 c 128,-1,48
 290 375 290 375 291 386 c 2,49,-1
 296 439 l 1,50,51
 275 449 275 449 258 452 c 1,52,-1
 240 313 l 1,53,54
 327 279 327 279 341.5 264.5 c 128,-1,55
 356 250 356 250 371 233 c 0,56,57
 398 202 398 202 398 145 c 0,58,59
 398 72 398 72 343.5 28 c 128,-1,60
 289 -16 289 -16 195 -17 c 1,61,-1
 187 -79 l 2,62,63
 185 -90 185 -90 180.5 -94 c 128,-1,64
 176 -98 176 -98 165 -98 c 2,0,-1
205 57 m 1,65,66
 290 59 290 59 290 122 c 0,67,68
 290 149 290 149 274 165.5 c 128,-1,69
 258 182 258 182 223 197 c 1,70,-1
 205 57 l 1,65,66
216 454 m 1,71,72
 141 449 141 449 141 394 c 0,73,74
 141 370 141 370 155 355 c 128,-1,75
 169 340 169 340 200 325 c 1,76,-1
 216 454 l 1,71,72
EndSplineSet
EndChar

StartChar: percent
Encoding: 37 37 9
Width: 832
GlyphClass: 2
Flags: W
LayerCount: 2
Fore
SplineSet
85.5 335.5 m 128,-1,1
 40 386 40 386 40 473.5 c 128,-1,2
 40 561 40 561 89 609 c 128,-1,3
 138 657 138 657 207 657 c 128,-1,4
 276 657 276 657 320 610.5 c 128,-1,5
 364 564 364 564 364 475 c 128,-1,6
 364 386 364 386 318.5 335.5 c 128,-1,7
 273 285 273 285 202 285 c 128,-1,0
 131 285 131 285 85.5 335.5 c 128,-1,1
146.5 562 m 128,-1,9
 128 533 128 533 128 471 c 128,-1,10
 128 409 128 409 146 381 c 128,-1,11
 164 353 164 353 203 353 c 0,12,13
 277 353 277 353 277 472 c 0,14,15
 277 535 277 535 260 563 c 128,-1,16
 243 591 243 591 204 591 c 128,-1,8
 165 591 165 591 146.5 562 c 128,-1,9
513.5 33.5 m 128,-1,18
 468 84 468 84 468 171.5 c 128,-1,19
 468 259 468 259 517 307 c 128,-1,20
 566 355 566 355 635 355 c 128,-1,21
 704 355 704 355 748 308.5 c 128,-1,22
 792 262 792 262 792 173 c 128,-1,23
 792 84 792 84 746.5 33.5 c 128,-1,24
 701 -17 701 -17 630 -17 c 128,-1,17
 559 -17 559 -17 513.5 33.5 c 128,-1,18
556 166 m 0,25,26
 556 51 556 51 631 51 c 0,27,28
 669 51 669 51 687 79.5 c 128,-1,29
 705 108 705 108 705 170.5 c 128,-1,30
 705 233 705 233 688 261 c 128,-1,31
 671 289 671 289 632 289 c 128,-1,32
 593 289 593 289 574.5 260 c 128,-1,33
 556 231 556 231 556 166 c 0,25,26
607 638 m 2,34,-1
 299 0 l 2,35,36
 294 -11 294 -11 289 -14 c 128,-1,37
 284 -17 284 -17 272 -17 c 2,38,-1
 233 -17 l 2,39,40
 220 -17 220 -17 220 -9 c 0,41,42
 220 -5 220 -5 222 0 c 2,43,-1
 529 638 l 2,44,45
 534 649 534 649 539 652 c 128,-1,46
 544 655 544 655 556 655 c 2,47,-1
 596 655 l 2,48,49
 609 655 609 655 609 647 c 0,50,51
 609 643 609 643 607 638 c 2,34,-1
EndSplineSet
EndChar

StartChar: ampersand
Encoding: 38 38 10
Width: 647
GlyphClass: 2
Flags: W
LayerCount: 2
Fore
SplineSet
588 320 m 1,0,-1
 543 320 l 1,1,-1
 543 59 l 2,2,3
 543 41 543 41 527 32 c 0,4,5
 485 10 485 10 423.5 -4 c 128,-1,6
 362 -18 362 -18 306 -18 c 0,7,8
 80 -18 80 -18 80 176 c 0,9,10
 80 249 80 249 120 298 c 128,-1,11
 160 347 160 347 217 360 c 1,12,13
 96 404 96 404 96 514 c 0,14,15
 96 592 96 592 150.5 644 c 128,-1,16
 205 696 205 696 305 696 c 0,17,18
 483 696 483 696 484 532 c 0,19,20
 485 521 485 521 481 517 c 128,-1,21
 477 513 477 513 466 513 c 2,22,-1
 413 513 l 2,23,24
 401 513 401 513 397 517 c 128,-1,25
 393 521 393 521 392 532 c 0,26,27
 389 572 389 572 369 592 c 128,-1,28
 349 612 349 612 301 612 c 128,-1,29
 253 612 253 612 227.5 582.5 c 128,-1,30
 202 553 202 553 202 508 c 128,-1,31
 202 463 202 463 230.5 433 c 128,-1,32
 259 403 259 403 328 403 c 2,33,-1
 588 403 l 2,34,35
 599 403 599 403 603 399 c 128,-1,36
 607 395 607 395 607 384 c 2,37,-1
 607 338 l 2,38,39
 607 327 607 327 603 323 c 128,-1,40
 599 319 599 319 588 320 c 1,0,-1
224.5 282 m 128,-1,42
 185 244 185 244 185 185 c 128,-1,43
 185 126 185 126 219 95.5 c 128,-1,44
 253 65 253 65 319.5 65 c 128,-1,45
 386 65 386 65 433 93 c 1,46,-1
 433 320 l 1,47,-1
 339 320 l 2,48,41
 264 320 264 320 224.5 282 c 128,-1,42
EndSplineSet
EndChar

StartChar: quotesingle
Encoding: 39 39 11
Width: 222
GlyphClass: 2
Flags: W
LayerCount: 2
Fore
SplineSet
125 457 m 2,0,-1
 97 457 l 2,1,2
 85 457 85 457 80.5 460.5 c 128,-1,3
 76 464 76 464 75 476 c 2,4,-1
 63 559 l 2,5,6
 60 575 60 575 60 597 c 2,7,-1
 60 660 l 2,8,9
 60 671 60 671 64 675 c 128,-1,10
 68 679 68 679 79 679 c 2,11,-1
 143 679 l 2,12,13
 154 679 154 679 158 675 c 128,-1,14
 162 671 162 671 162 660 c 2,15,-1
 162 595 l 2,16,17
 162 575 162 575 159 557 c 2,18,-1
 147 476 l 2,19,20
 146 464 146 464 141.5 460.5 c 128,-1,21
 137 457 137 457 125 457 c 2,0,-1
EndSplineSet
EndChar

StartChar: parenleft
Encoding: 40 40 12
Width: 336
GlyphClass: 2
Flags: W
LayerCount: 2
Fore
SplineSet
301 -85 m 2,0,-1
 301 -131 l 2,1,2
 301 -142 301 -142 297 -146 c 128,-1,3
 293 -150 293 -150 282 -150 c 2,4,-1
 177 -150 l 2,5,6
 165 -150 165 -150 160.5 -146.5 c 128,-1,7
 156 -143 156 -143 155 -131 c 1,8,-1
 83 288 l 2,9,10
 82 298 82 298 82 307 c 128,-1,11
 82 316 82 316 83 326 c 2,12,-1
 145 727 l 2,13,14
 146 739 146 739 150.5 742.5 c 128,-1,15
 155 746 155 746 167 746 c 2,16,-1
 272 746 l 2,17,18
 283 746 283 746 287 742 c 128,-1,19
 291 738 291 738 291 727 c 2,20,-1
 291 678 l 2,21,22
 291 667 291 667 287 663 c 128,-1,23
 283 659 283 659 272 660 c 2,24,-1
 229 663 l 1,25,-1
 176 307 l 1,26,-1
 237 -70 l 1,27,-1
 282 -67 l 2,28,29
 293 -66 293 -66 297 -70 c 128,-1,30
 301 -74 301 -74 301 -85 c 2,0,-1
EndSplineSet
EndChar

StartChar: parenright
Encoding: 41 41 13
Width: 336
GlyphClass: 2
Flags: W
LayerCount: 2
Fore
SplineSet
35 -131 m 2,0,-1
 35 -85 l 2,1,2
 35 -74 35 -74 39 -70 c 128,-1,3
 43 -66 43 -66 54 -67 c 2,4,-1
 99 -70 l 1,5,-1
 160 307 l 1,6,-1
 107 663 l 1,7,-1
 64 660 l 2,8,9
 53 659 53 659 49 663 c 128,-1,10
 45 667 45 667 45 678 c 2,11,-1
 45 727 l 2,12,13
 45 738 45 738 49 742 c 128,-1,14
 53 746 53 746 64 746 c 2,15,-1
 169 746 l 2,16,17
 181 746 181 746 185.5 742.5 c 128,-1,18
 190 739 190 739 191 727 c 2,19,-1
 253 326 l 2,20,21
 254 316 254 316 254 307 c 128,-1,22
 254 298 254 298 253 288 c 2,23,-1
 181 -131 l 1,24,25
 180 -143 180 -143 175.5 -146.5 c 128,-1,26
 171 -150 171 -150 159 -150 c 2,27,-1
 54 -150 l 2,28,29
 43 -150 43 -150 39 -146 c 128,-1,30
 35 -142 35 -142 35 -131 c 2,0,-1
EndSplineSet
EndChar

StartChar: asterisk
Encoding: 42 42 14
Width: 486
GlyphClass: 2
Flags: W
LayerCount: 2
Fore
SplineSet
205 610 m 1,0,-1
 219 727 l 2,1,2
 221 738 221 738 225 742 c 128,-1,3
 229 746 229 746 240 746 c 2,4,-1
 245 746 l 2,5,6
 256 746 256 746 260 742 c 128,-1,7
 264 738 264 738 266 727 c 2,8,-1
 277 610 l 1,9,-1
 386 659 l 1,10,11
 403 668 403 668 413 649 c 0,12,13
 416 643 416 643 416 636 c 128,-1,14
 416 629 416 629 407 622 c 2,15,-1
 308 554 l 1,16,-1
 408 482 l 2,17,18
 417 475 417 475 417 468 c 128,-1,19
 417 461 417 461 413 455 c 1,20,-1
 411 454 l 1,21,22
 405 444 405 444 400 442.5 c 128,-1,23
 395 441 395 441 384 446 c 2,24,-1
 279 495 l 1,25,-1
 265 380 l 2,26,27
 263 369 263 369 259 365 c 128,-1,28
 255 361 255 361 244 361 c 2,29,-1
 240 361 l 2,30,31
 229 361 229 361 225 365 c 128,-1,32
 221 369 221 369 219 380 c 2,33,-1
 207 495 l 1,34,-1
 99 446 l 2,35,36
 93 443 93 443 86 443 c 128,-1,37
 79 443 79 443 73 455 c 1,38,39
 69 459 69 459 69 468 c 128,-1,40
 69 477 69 477 78 484 c 2,41,-1
 176 552 l 1,42,-1
 78 623 l 2,43,44
 69 630 69 630 69 637 c 0,45,46
 69 642 69 642 74 652 c 0,47,48
 80 662 80 662 85.5 663.5 c 128,-1,49
 91 665 91 665 101 660 c 2,50,-1
 205 610 l 1,0,-1
EndSplineSet
EndChar

StartChar: plus
Encoding: 43 43 15
Width: 530
GlyphClass: 2
Flags: W
LayerCount: 2
Fore
SplineSet
54 330 m 2,0,-1
 227 330 l 1,1,-1
 227 503 l 2,2,3
 227 514 227 514 231 518 c 128,-1,4
 235 522 235 522 246 522 c 2,5,-1
 281 522 l 2,6,7
 292 522 292 522 296 518 c 128,-1,8
 300 514 300 514 300 503 c 2,9,-1
 300 330 l 1,10,-1
 476 330 l 2,11,12
 487 330 487 330 491 326 c 128,-1,13
 495 322 495 322 495 311 c 2,14,-1
 495 284 l 2,15,16
 495 273 495 273 491 269 c 128,-1,17
 487 265 487 265 476 265 c 2,18,-1
 300 265 l 1,19,-1
 300 77 l 2,20,21
 300 66 300 66 296 62 c 128,-1,22
 292 58 292 58 281 58 c 2,23,-1
 246 58 l 2,24,25
 235 58 235 58 231 62 c 128,-1,26
 227 66 227 66 227 77 c 2,27,-1
 227 265 l 1,28,-1
 54 265 l 2,29,30
 43 265 43 265 39 269 c 128,-1,31
 35 273 35 273 35 284 c 2,32,-1
 35 311 l 2,33,34
 35 322 35 322 39 326 c 128,-1,35
 43 330 43 330 54 330 c 2,0,-1
EndSplineSet
EndChar

StartChar: comma
Encoding: 44 44 16
Width: 292
GlyphClass: 2
Flags: W
LayerCount: 2
Fore
SplineSet
169 -58 m 1,0,-1
 114 -145 l 2,1,2
 107 -157 107 -157 101 -157 c 0,3,4
 99 -157 99 -157 84.5 -151.5 c 128,-1,5
 70 -146 70 -146 68 -141 c 128,-1,6
 66 -136 66 -136 70 -125 c 2,7,-1
 106 -19 l 1,8,9
 105 -17 105 -17 99.5 -11 c 128,-1,10
 94 -5 94 -5 91.5 -2 c 128,-1,11
 89 1 89 1 84.5 7.5 c 128,-1,12
 80 14 80 14 77.5 19 c 128,-1,13
 75 24 75 24 72 30 c 0,14,15
 67 41 67 41 67 64 c 128,-1,16
 67 87 67 87 86.5 106 c 128,-1,17
 106 125 106 125 140.5 125 c 128,-1,18
 175 125 175 125 195 106.5 c 128,-1,19
 215 88 215 88 215 52.5 c 128,-1,20
 215 17 215 17 169 -58 c 1,0,-1
EndSplineSet
EndChar

StartChar: hyphen
Encoding: 45 45 17
Width: 282
GlyphClass: 2
Flags: W
LayerCount: 2
Fore
SplineSet
233 218 m 2,0,-1
 49 218 l 2,1,2
 38 218 38 218 34 222 c 128,-1,3
 30 226 30 226 30 237 c 2,4,-1
 30 296 l 2,5,6
 30 307 30 307 34 311 c 128,-1,7
 38 315 38 315 49 315 c 2,8,-1
 233 315 l 2,9,10
 244 315 244 315 248 311 c 128,-1,11
 252 307 252 307 252 296 c 2,12,-1
 252 237 l 2,13,14
 252 226 252 226 248 222 c 128,-1,15
 244 218 244 218 233 218 c 2,0,-1
EndSplineSet
EndChar

StartChar: period
Encoding: 46 46 18
Width: 279
GlyphClass: 2
Flags: W
LayerCount: 2
Fore
SplineSet
126 -19 m 128,-1,1
 91 -19 91 -19 71 0.5 c 128,-1,2
 51 20 51 20 51 49.5 c 128,-1,3
 51 79 51 79 72 99 c 128,-1,4
 93 119 93 119 126 119 c 128,-1,5
 159 119 159 119 180 100 c 128,-1,6
 201 81 201 81 201 51 c 128,-1,7
 201 21 201 21 181 1 c 128,-1,0
 161 -19 161 -19 126 -19 c 128,-1,1
EndSplineSet
EndChar

StartChar: slash
Encoding: 47 47 19
Width: 449
GlyphClass: 2
Flags: W
LayerCount: 2
Fore
SplineSet
395 745 m 2,0,1
 410 745 410 745 410 737 c 0,2,3
 410 733 410 733 408 727 c 2,4,-1
 113 -83 l 2,5,6
 109 -94 109 -94 104.5 -97.5 c 128,-1,7
 100 -101 100 -101 88 -101 c 2,8,-1
 49 -101 l 2,9,10
 34 -101 34 -101 34 -93 c 0,11,12
 34 -89 34 -89 36 -83 c 2,13,-1
 330 727 l 2,14,15
 334 738 334 738 338.5 741.5 c 128,-1,16
 343 745 343 745 355 745 c 2,17,-1
 395 745 l 2,0,1
EndSplineSet
EndChar

StartChar: zero
Encoding: 48 48 20
Width: 576
GlyphClass: 2
Flags: W
LayerCount: 2
Fore
SplineSet
35 252 m 0,0,1
 35 326 35 326 57.5 382 c 128,-1,2
 80 438 80 438 118 470 c 1,3,4
 194 531 194 531 297 531 c 128,-1,5
 400 531 400 531 470.5 466 c 128,-1,6
 541 401 541 401 541 261 c 128,-1,7
 541 121 541 121 469 54.5 c 128,-1,8
 397 -12 397 -12 283 -12 c 128,-1,9
 169 -12 169 -12 102 55.5 c 128,-1,10
 35 123 35 123 35 252 c 0,0,1
152 253 m 0,11,12
 152 168 152 168 184.5 119 c 128,-1,13
 217 70 217 70 287 70 c 128,-1,14
 357 70 357 70 391.5 114.5 c 128,-1,15
 426 159 426 159 426 255 c 0,16,17
 426 447 426 447 289 447 c 128,-1,18
 152 447 152 447 152 253 c 0,11,12
EndSplineSet
EndChar

StartChar: one
Encoding: 49 49 21
Width: 339
GlyphClass: 2
Flags: W
LayerCount: 2
Fore
SplineSet
44 511 m 2,0,-1
 212 511 l 2,1,2
 223 511 223 511 227 507 c 128,-1,3
 231 503 231 503 231 492 c 2,4,-1
 231 79 l 1,5,-1
 300 79 l 1,6,7
 311 80 311 80 315 76 c 128,-1,8
 319 72 319 72 319 61 c 2,9,-1
 319 19 l 2,10,11
 319 8 319 8 315 4 c 128,-1,12
 311 0 311 0 300 0 c 2,13,-1
 50 0 l 2,14,15
 39 0 39 0 35 4 c 128,-1,16
 31 8 31 8 31 19 c 2,17,-1
 31 61 l 2,18,19
 31 72 31 72 35 76 c 128,-1,20
 39 80 39 80 50 79 c 1,21,-1
 119 79 l 1,22,-1
 119 432 l 1,23,-1
 44 428 l 2,24,25
 33 427 33 427 29 431 c 128,-1,26
 25 435 25 435 25 446 c 2,27,-1
 25 492 l 2,28,29
 25 503 25 503 29 507 c 128,-1,30
 33 511 33 511 44 511 c 2,0,-1
EndSplineSet
EndChar

StartChar: two
Encoding: 50 50 22
Width: 526
GlyphClass: 2
Flags: W
LayerCount: 2
Fore
SplineSet
231 447 m 0,0,1
 143 447 143 447 131 361 c 0,2,3
 129 350 129 350 125 346 c 128,-1,4
 121 342 121 342 110 342 c 2,5,-1
 58 342 l 2,6,7
 40 342 40 342 40 357 c 0,8,9
 40 439 40 439 97 485 c 128,-1,10
 154 531 154 531 245 531 c 128,-1,11
 336 531 336 531 387.5 488.5 c 128,-1,12
 439 446 439 446 439 361 c 0,13,14
 439 225 439 225 264 120 c 0,15,16
 236 103 236 103 197 82 c 1,17,-1
 403 82 l 1,18,-1
 399 132 l 2,19,20
 398 143 398 143 402 147 c 128,-1,21
 406 151 406 151 417 151 c 2,22,-1
 464 151 l 2,23,24
 475 151 475 151 479 147 c 128,-1,25
 483 143 483 143 483 132 c 2,26,-1
 483 -34 l 2,27,28
 483 -45 483 -45 479 -49 c 128,-1,29
 475 -53 475 -53 464 -53 c 2,30,-1
 417 -53 l 2,31,32
 406 -53 406 -53 402 -49 c 128,-1,33
 398 -45 398 -45 399 -34 c 2,34,-1
 402 0 l 1,35,-1
 62 0 l 2,36,37
 51 0 51 0 47 4 c 128,-1,38
 43 8 43 8 43 19 c 2,39,-1
 43 60 l 2,40,41
 43 78 43 78 60 86 c 0,42,43
 164 140 164 140 235 196 c 0,44,45
 324 265 324 265 324 353 c 0,46,47
 324 397 324 397 304 422 c 128,-1,48
 284 447 284 447 231 447 c 0,0,1
EndSplineSet
EndChar

StartChar: three
Encoding: 51 51 23
Width: 483
GlyphClass: 2
Flags: W
LayerCount: 2
Fore
SplineSet
218 -141 m 0,0,1
 20 -141 20 -141 20 31 c 0,2,3
 20 46 20 46 38 46 c 2,4,-1
 94 46 l 2,5,6
 106 46 106 46 109.5 42.5 c 128,-1,7
 113 39 113 39 115 27 c 0,8,9
 119 -19 119 -19 144 -38.5 c 128,-1,10
 169 -58 169 -58 222 -58 c 128,-1,11
 275 -58 275 -58 303.5 -32 c 128,-1,12
 332 -6 332 -6 332 57 c 0,13,14
 332 164 332 164 225 169 c 0,15,16
 214 170 214 170 194 170 c 2,17,-1
 165 170 l 2,18,19
 154 170 154 170 150 174 c 128,-1,20
 146 178 146 178 146 189 c 2,21,-1
 146 233 l 2,22,23
 146 244 146 244 150 247.5 c 128,-1,24
 154 251 154 251 185 253 c 128,-1,25
 216 255 216 255 230 257 c 0,26,27
 320 274 320 274 320 360.5 c 128,-1,28
 320 447 320 447 229 447 c 128,-1,29
 138 447 138 447 128 361 c 0,30,31
 126 350 126 350 122 346 c 128,-1,32
 118 342 118 342 107 342 c 2,33,-1
 54 342 l 2,34,35
 43 342 43 342 39 346 c 128,-1,36
 35 350 35 350 36 361 c 0,37,38
 40 445 40 445 96.5 488 c 128,-1,39
 153 531 153 531 242 531 c 128,-1,40
 331 531 331 531 379.5 490 c 128,-1,41
 428 449 428 449 428 373 c 0,42,43
 428 264 428 264 299 217 c 1,44,45
 358 209 358 209 400 168.5 c 128,-1,46
 442 128 442 128 442 56 c 0,47,48
 442 -34 442 -34 381 -87.5 c 128,-1,49
 320 -141 320 -141 218 -141 c 0,0,1
EndSplineSet
EndChar

StartChar: four
Encoding: 52 52 24
Width: 524
GlyphClass: 2
Flags: W
LayerCount: 2
Fore
SplineSet
486 15 m 2,0,-1
 403 15 l 1,1,-1
 403 -114 l 2,2,3
 403 -125 403 -125 399 -129 c 128,-1,4
 395 -133 395 -133 384 -133 c 2,5,-1
 312 -133 l 2,6,7
 301 -133 301 -133 297 -129 c 128,-1,8
 293 -125 293 -125 293 -114 c 2,9,-1
 293 15 l 1,10,-1
 49 15 l 2,11,12
 38 15 38 15 34 19 c 128,-1,13
 30 23 30 23 30 34 c 2,14,-1
 30 78 l 2,15,16
 30 98 30 98 40 113 c 2,17,-1
 277 495 l 2,18,19
 287 511 287 511 306 511 c 2,20,-1
 385 511 l 2,21,22
 396 511 396 511 400 507 c 128,-1,23
 404 503 404 503 404 492 c 2,24,-1
 404 99 l 1,25,-1
 486 99 l 2,26,27
 497 99 497 99 501 95 c 128,-1,28
 505 91 505 91 505 80 c 2,29,-1
 505 34 l 2,30,31
 505 23 505 23 501 19 c 128,-1,32
 497 15 497 15 486 15 c 2,0,-1
294 394 m 1,33,-1
 112 99 l 1,34,-1
 294 99 l 1,35,-1
 294 394 l 1,33,-1
EndSplineSet
EndChar

StartChar: five
Encoding: 53 53 25
Width: 475
GlyphClass: 2
Flags: W
LayerCount: 2
Fore
SplineSet
403 415 m 2,0,-1
 176 415 l 1,1,-1
 155 266 l 1,2,3
 202 293 202 293 256 293 c 0,4,5
 335 293 335 293 385.5 241 c 128,-1,6
 436 189 436 189 436 85.5 c 128,-1,7
 436 -18 436 -18 376 -79.5 c 128,-1,8
 316 -141 316 -141 210 -141 c 0,9,10
 20 -141 20 -141 11 29 c 0,11,12
 11 40 11 40 14.5 44 c 128,-1,13
 18 48 18 48 29 48 c 2,14,-1
 88 48 l 2,15,16
 99 48 99 48 103 44 c 128,-1,17
 107 40 107 40 109 29 c 0,18,19
 117 -58 117 -58 208 -58 c 0,20,21
 324 -58 324 -58 324 74.5 c 128,-1,22
 324 207 324 207 219 207 c 0,23,24
 168 207 168 207 123 173 c 0,25,26
 113 166 113 166 104.5 166 c 128,-1,27
 96 166 96 166 89 169 c 2,28,-1
 78 174 l 2,29,30
 67 179 67 179 64.5 183.5 c 128,-1,31
 62 188 62 188 63 200 c 2,32,-1
 96 492 l 2,33,34
 98 503 98 503 102 507 c 128,-1,35
 106 511 106 511 117 511 c 2,36,-1
 403 511 l 2,37,38
 414 511 414 511 418 507 c 128,-1,39
 422 503 422 503 422 492 c 2,40,-1
 422 434 l 2,41,42
 422 423 422 423 418 419 c 128,-1,43
 414 415 414 415 403 415 c 2,0,-1
EndSplineSet
EndChar

StartChar: six
Encoding: 54 54 26
Width: 546
GlyphClass: 2
Flags: W
LayerCount: 2
Fore
SplineSet
312 656 m 0,0,1
 469 656 469 656 482 507 c 0,2,3
 483 496 483 496 479.5 492 c 128,-1,4
 476 488 476 488 465 488 c 2,5,-1
 410 488 l 2,6,7
 398 488 398 488 394 492 c 128,-1,8
 390 496 390 496 388 507 c 0,9,10
 378 572 378 572 305 572 c 0,11,12
 159 572 159 572 154 351 c 1,13,14
 207 425 207 425 305 425 c 128,-1,15
 403 425 403 425 453.5 370.5 c 128,-1,16
 504 316 504 316 504 218 c 128,-1,17
 504 120 504 120 443.5 54 c 128,-1,18
 383 -12 383 -12 279 -12 c 0,19,20
 42 -12 42 -12 42 295 c 0,21,22
 42 477 42 477 112.5 566.5 c 128,-1,23
 183 656 183 656 312 656 c 0,0,1
276 338 m 0,24,25
 233 338 233 338 200 318 c 0,26,27
 156 291 156 291 156 224 c 128,-1,28
 156 157 156 157 183.5 113.5 c 128,-1,29
 211 70 211 70 276 70 c 0,30,31
 394 70 394 70 394 204 c 128,-1,32
 394 338 394 338 276 338 c 0,24,25
EndSplineSet
EndChar

StartChar: seven
Encoding: 55 55 27
Width: 461
GlyphClass: 2
Flags: W
LayerCount: 2
Fore
SplineSet
333 415 m 1,0,-1
 29 415 l 2,1,2
 18 415 18 415 14 419 c 128,-1,3
 10 423 10 423 10 434 c 2,4,-1
 10 492 l 2,5,6
 10 503 10 503 14 507 c 128,-1,7
 18 511 18 511 29 511 c 2,8,-1
 432 511 l 2,9,10
 443 511 443 511 447 507 c 128,-1,11
 451 503 451 503 451 492 c 2,12,-1
 451 448 l 2,13,14
 451 428 451 428 443 412 c 2,15,-1
 190 -116 l 2,16,17
 182 -133 182 -133 163 -133 c 2,18,-1
 88 -133 l 2,19,20
 69 -133 69 -133 77 -116 c 2,21,-1
 333 415 l 1,0,-1
EndSplineSet
EndChar

StartChar: eight
Encoding: 56 56 28
Width: 534
GlyphClass: 2
Flags: W
LayerCount: 2
Fore
SplineSet
38 153 m 0,0,1
 38 266 38 266 168 335 c 1,2,3
 118 364 118 364 93 397.5 c 128,-1,4
 68 431 68 431 68 486 c 0,5,6
 68 567 68 567 127 611.5 c 128,-1,7
 186 656 186 656 272.5 656 c 128,-1,8
 359 656 359 656 407 615.5 c 128,-1,9
 455 575 455 575 455 517.5 c 128,-1,10
 455 460 455 460 426.5 424.5 c 128,-1,11
 398 389 398 389 345 354 c 1,12,13
 426 319 426 319 458 280.5 c 128,-1,14
 490 242 490 242 490 177 c 0,15,16
 490 92 490 92 428 40 c 128,-1,17
 366 -12 366 -12 256.5 -12 c 128,-1,18
 147 -12 147 -12 92.5 33.5 c 128,-1,19
 38 79 38 79 38 153 c 0,0,1
379 163 m 0,20,21
 379 217 379 217 330 249 c 0,22,23
 295 272 295 272 246 294 c 1,24,25
 144 235 144 235 144 160 c 0,26,27
 144 67 144 67 261.5 67 c 128,-1,28
 379 67 379 67 379 163 c 0,20,21
351 506 m 0,29,30
 351 578 351 578 271 578 c 0,31,32
 229 578 229 578 203 558 c 128,-1,33
 177 538 177 538 177 500 c 128,-1,34
 177 462 177 462 200 437 c 128,-1,35
 223 412 223 412 265 390 c 1,36,37
 292 409 292 409 307.5 422 c 128,-1,38
 323 435 323 435 337 458 c 128,-1,39
 351 481 351 481 351 506 c 0,29,30
EndSplineSet
EndChar

StartChar: nine
Encoding: 57 57 29
Width: 546
GlyphClass: 2
Flags: W
LayerCount: 2
Fore
SplineSet
239 -142 m 0,0,1
 74 -142 74 -142 63 7 c 0,2,3
 62 18 62 18 66 22 c 128,-1,4
 70 26 70 26 81 26 c 2,5,-1
 136 26 l 2,6,7
 148 26 148 26 152 22.5 c 128,-1,8
 156 19 156 19 160 -4 c 0,9,10
 171 -58 171 -58 243 -58 c 0,11,12
 387 -58 387 -58 392 163 c 1,13,14
 339 89 339 89 240.5 89 c 128,-1,15
 142 89 142 89 92 147 c 128,-1,16
 42 205 42 205 42 303.5 c 128,-1,17
 42 402 42 402 102 466.5 c 128,-1,18
 162 531 162 531 274 531 c 0,19,20
 504 531 504 531 504 228 c 0,21,22
 504 -142 504 -142 239 -142 c 0,0,1
270 176 m 0,23,24
 316 176 316 176 348.5 201 c 128,-1,25
 381 226 381 226 388 270 c 0,26,27
 390 281 390 281 390 305 c 0,28,29
 390 364 390 364 362 406.5 c 128,-1,30
 334 449 334 449 270 449 c 0,31,32
 152 449 152 449 152 312.5 c 128,-1,33
 152 176 152 176 270 176 c 0,23,24
EndSplineSet
EndChar

StartChar: semicolon
Encoding: 59 59 31
Width: 300
GlyphClass: 2
Flags: W
LayerCount: 2
Fore
SplineSet
169 -58 m 1,0,-1
 114 -145 l 2,1,2
 107 -157 107 -157 101 -157 c 0,3,4
 99 -157 99 -157 84.5 -151.5 c 128,-1,5
 70 -146 70 -146 68 -141 c 128,-1,6
 66 -136 66 -136 70 -125 c 2,7,-1
 106 -19 l 1,8,9
 105 -17 105 -17 99.5 -11 c 128,-1,10
 94 -5 94 -5 91.5 -2 c 128,-1,11
 89 1 89 1 84.5 7.5 c 128,-1,12
 80 14 80 14 77.5 19 c 128,-1,13
 75 24 75 24 72 30 c 0,14,15
 67 41 67 41 67 64 c 128,-1,16
 67 87 67 87 86.5 106 c 128,-1,17
 106 125 106 125 140.5 125 c 128,-1,18
 175 125 175 125 195 106.5 c 128,-1,19
 215 88 215 88 215 52.5 c 128,-1,20
 215 17 215 17 169 -58 c 1,0,-1
147 378 m 128,-1,22
 112 378 112 378 92 397.5 c 128,-1,23
 72 417 72 417 72 446.5 c 128,-1,24
 72 476 72 476 93 496 c 128,-1,25
 114 516 114 516 147 516 c 128,-1,26
 180 516 180 516 201 497 c 128,-1,27
 222 478 222 478 222 448 c 128,-1,28
 222 418 222 418 202 398 c 128,-1,21
 182 378 182 378 147 378 c 128,-1,22
EndSplineSet
EndChar

StartChar: less
Encoding: 60 60 32
Width: 530
GlyphClass: 2
Flags: W
LayerCount: 2
Fore
SplineSet
477 465 m 2,0,-1
 477 425 l 2,1,2
 477 413 477 413 474 408.5 c 128,-1,3
 471 404 471 404 460 399 c 2,4,-1
 139 268 l 1,5,-1
 460 129 l 2,6,7
 471 124 471 124 474 119 c 128,-1,8
 477 114 477 114 477 102 c 2,9,-1
 477 60 l 2,10,11
 477 47 477 47 469 47 c 0,12,13
 465 47 465 47 460 49 c 2,14,-1
 70 224 l 2,15,16
 53 232 53 232 53 251 c 2,17,-1
 53 281 l 2,18,19
 53 293 53 293 56 297.5 c 128,-1,20
 59 302 59 302 70 307 c 2,21,-1
 460 477 l 2,22,23
 465 479 465 479 468 479 c 0,24,25
 477 479 477 479 477 465 c 2,0,-1
EndSplineSet
EndChar

StartChar: equal
Encoding: 61 61 33
Width: 530
GlyphClass: 2
Flags: W
LayerCount: 2
Fore
SplineSet
35 339 m 2,0,-1
 35 366 l 2,1,2
 35 377 35 377 39 381 c 128,-1,3
 43 385 43 385 54 385 c 2,4,-1
 476 385 l 2,5,6
 487 385 487 385 491 381 c 128,-1,7
 495 377 495 377 495 366 c 2,8,-1
 495 339 l 2,9,10
 495 328 495 328 491 324 c 128,-1,11
 487 320 487 320 476 320 c 2,12,-1
 54 320 l 2,13,14
 43 320 43 320 39 324 c 128,-1,15
 35 328 35 328 35 339 c 2,0,-1
35 160 m 2,16,-1
 35 187 l 2,17,18
 35 198 35 198 39 202 c 128,-1,19
 43 206 43 206 54 206 c 2,20,-1
 476 206 l 2,21,22
 487 206 487 206 491 202 c 128,-1,23
 495 198 495 198 495 187 c 2,24,-1
 495 160 l 2,25,26
 495 149 495 149 491 145 c 128,-1,27
 487 141 487 141 476 141 c 2,28,-1
 54 141 l 2,29,30
 43 141 43 141 39 145 c 128,-1,31
 35 149 35 149 35 160 c 2,16,-1
EndSplineSet
EndChar

StartChar: greater
Encoding: 62 62 34
Width: 530
GlyphClass: 2
Flags: W
LayerCount: 2
Fore
SplineSet
391 268 m 1,0,-1
 67 400 l 2,1,2
 53 406 53 406 53 421 c 2,3,-1
 53 469 l 2,4,5
 53 480 53 480 60 480 c 0,6,7
 63 480 63 480 67 478 c 2,8,-1
 463 306 l 2,9,10
 477 300 477 300 477 285 c 2,11,-1
 477 247 l 2,12,13
 477 232 477 232 463 226 c 2,14,-1
 67 47 l 2,15,16
 63 45 63 45 60 45 c 0,17,18
 53 45 53 45 53 56 c 2,19,-1
 53 106 l 2,20,21
 53 121 53 121 67 127 c 2,22,-1
 391 268 l 1,0,-1
EndSplineSet
EndChar

StartChar: question
Encoding: 63 63 35
Width: 465
GlyphClass: 2
Flags: W
LayerCount: 2
Fore
SplineSet
226 158 m 2,0,-1
 178 158 l 2,1,2
 167 158 167 158 163 162 c 128,-1,3
 159 166 159 166 159 177 c 2,4,-1
 159 347 l 2,5,6
 159 358 159 358 162.5 362.5 c 128,-1,7
 166 367 166 367 177 370 c 0,8,9
 321 402 321 402 321 514 c 0,10,11
 321 619 321 619 225 619 c 0,12,13
 138 619 138 619 128 533 c 0,14,15
 126 522 126 522 122 518 c 128,-1,16
 118 514 118 514 107 514 c 2,17,-1
 54 514 l 2,18,19
 36 514 36 514 36 529 c 0,20,21
 36 610 36 610 92 653 c 128,-1,22
 148 696 148 696 236.5 696 c 128,-1,23
 325 696 325 696 377.5 651.5 c 128,-1,24
 430 607 430 607 430 520 c 128,-1,25
 430 433 430 433 379.5 380 c 128,-1,26
 329 327 329 327 245 305 c 1,27,-1
 245 177 l 2,28,29
 245 166 245 166 241 162 c 128,-1,30
 237 158 237 158 226 158 c 2,0,-1
250.5 1 m 128,-1,32
 233 -17 233 -17 201.5 -17 c 128,-1,33
 170 -17 170 -17 151.5 0.5 c 128,-1,34
 133 18 133 18 133 44.5 c 128,-1,35
 133 71 133 71 152 89 c 128,-1,36
 171 107 171 107 201 107 c 128,-1,37
 231 107 231 107 249.5 90 c 128,-1,38
 268 73 268 73 268 46 c 128,-1,31
 268 19 268 19 250.5 1 c 128,-1,32
EndSplineSet
EndChar

StartChar: at
Encoding: 64 64 36
Width: 848
GlyphClass: 2
Flags: W
LayerCount: 2
Fore
SplineSet
47 229 m 0,0,1
 47 407 47 407 155.5 516 c 128,-1,2
 264 625 264 625 439.5 625 c 128,-1,3
 615 625 615 625 711 533 c 128,-1,4
 807 441 807 441 807 269 c 0,5,6
 807 169 807 169 770 91 c 0,7,8
 750 49 750 49 709.5 24.5 c 128,-1,9
 669 0 669 0 621 0 c 0,10,11
 525 0 525 0 523 63 c 1,12,13
 471 0 471 0 385 0 c 0,14,15
 327 0 327 0 286.5 32 c 128,-1,16
 246 64 246 64 246 132 c 0,17,18
 246 208 246 208 294 244.5 c 128,-1,19
 342 281 342 281 401.5 290.5 c 128,-1,20
 461 300 461 300 517 300 c 1,21,-1
 517 324 l 2,22,23
 517 371 517 371 498.5 393.5 c 128,-1,24
 480 416 480 416 435.5 416 c 128,-1,25
 391 416 391 416 373.5 403 c 128,-1,26
 356 390 356 390 352 363 c 0,27,28
 350 352 350 352 346 348 c 128,-1,29
 342 344 342 344 330 344 c 2,30,-1
 285 344 l 2,31,32
 274 344 274 344 270.5 348 c 128,-1,33
 267 352 267 352 268 363 c 0,34,35
 275 431 275 431 327 460.5 c 128,-1,36
 379 490 379 490 452 490 c 0,37,38
 618 490 618 490 618 337 c 2,39,-1
 618 97 l 2,40,41
 618 48 618 48 651 48 c 0,42,43
 705 48 705 48 734.5 108.5 c 128,-1,44
 764 169 764 169 764 263 c 0,45,46
 764 416 764 416 679 501.5 c 128,-1,47
 594 587 594 587 437.5 587 c 128,-1,48
 281 587 281 587 188 487 c 128,-1,49
 95 387 95 387 95 225 c 128,-1,50
 95 63 95 63 190 -18.5 c 128,-1,51
 285 -100 285 -100 440 -100 c 0,52,53
 471 -100 471 -100 492 -98 c 128,-1,54
 513 -96 513 -96 516.5 -99 c 128,-1,55
 520 -102 520 -102 522 -113 c 1,56,-1
 522 -115 l 1,57,58
 525 -133 525 -133 507 -134 c 0,59,60
 471 -137 471 -137 436 -137 c 0,61,62
 264 -137 264 -137 158 -50 c 1,63,64
 106 -6 106 -6 76.5 65 c 128,-1,65
 47 136 47 136 47 229 c 0,0,1
519 147 m 2,66,-1
 519 236 l 1,67,68
 417 233 417 233 386 214 c 1,69,70
 371 206 371 206 359 188.5 c 128,-1,71
 347 171 347 171 347 146 c 0,72,73
 347 78 347 78 423 78 c 0,74,75
 468 78 468 78 493.5 98.5 c 128,-1,76
 519 119 519 119 519 147 c 2,66,-1
EndSplineSet
EndChar

StartChar: A
Encoding: 65 65 37
Width: 696
GlyphClass: 2
Flags: W
LayerCount: 2
Fore
SplineSet
214 214 m 1,0,-1
 168 79 l 1,1,-1
 228 79 l 2,2,3
 243 79 243 79 243 64 c 2,4,-1
 243 15 l 2,5,6
 243 0 243 0 228 0 c 2,7,-1
 15 0 l 2,8,9
 0 0 0 0 0 15 c 2,10,-1
 0 64 l 2,11,12
 0 79 0 79 15 79 c 2,13,-1
 74 79 l 1,14,-1
 274 665 l 1,15,16
 280 679 280 679 294 679 c 2,17,-1
 391 679 l 2,18,19
 405 679 405 679 411 665 c 1,20,-1
 613 79 l 1,21,-1
 681 79 l 2,22,23
 696 79 696 79 696 64 c 2,24,-1
 696 15 l 2,25,26
 696 0 696 0 681 0 c 2,27,-1
 430 0 l 2,28,29
 415 0 415 0 415 15 c 2,30,-1
 415 64 l 2,31,32
 415 79 415 79 430 79 c 2,33,-1
 492 79 l 1,34,-1
 445 214 l 1,35,-1
 214 214 l 1,0,-1
329 583 m 1,36,-1
 234 289 l 1,37,-1
 423 289 l 1,38,-1
 329 583 l 1,36,-1
EndSplineSet
EndChar

StartChar: B
Encoding: 66 66 38
Width: 587
GlyphClass: 2
Flags: W
LayerCount: 2
Fore
SplineSet
39 15 m 2,0,-1
 39 64 l 2,1,2
 39 79 39 79 54 79 c 2,3,-1
 107 79 l 1,4,-1
 107 598 l 1,5,-1
 55 598 l 2,6,7
 40 598 40 598 40 613 c 2,8,-1
 40 664 l 2,9,10
 40 680 40 680 55 680 c 0,11,12
 175 685 175 685 283 685 c 128,-1,13
 391 685 391 685 455.5 643.5 c 128,-1,14
 520 602 520 602 520 525 c 0,15,16
 520 469 520 469 485.5 427.5 c 128,-1,17
 451 386 451 386 404 367 c 1,18,19
 481 355 481 355 521.5 310 c 128,-1,20
 562 265 562 265 562 200 c 0,21,22
 562 115 562 115 499 62.5 c 128,-1,23
 436 10 436 10 332 3 c 0,24,25
 289 0 289 0 194 0 c 2,26,-1
 54 0 l 2,27,28
 39 0 39 0 39 15 c 2,0,-1
219 315 m 1,29,-1
 219 77 l 1,30,-1
 264 77 l 2,31,32
 352 77 352 77 400.5 105 c 128,-1,33
 449 133 449 133 449 202 c 0,34,35
 449 315 449 315 291 315 c 2,36,-1
 219 315 l 1,29,-1
219 604 m 1,37,-1
 219 398 l 1,38,-1
 257 398 l 2,39,40
 405 398 405 398 405 501 c 0,41,42
 405 559 405 559 369 581.5 c 128,-1,43
 333 604 333 604 266 604 c 2,44,-1
 219 604 l 1,37,-1
EndSplineSet
EndChar

StartChar: C
Encoding: 67 67 39
Width: 629
GlyphClass: 2
Flags: W
LayerCount: 2
Fore
SplineSet
43 336 m 0,0,1
 43 432 43 432 71.5 505 c 128,-1,2
 100 578 100 578 147 618 c 0,3,4
 239 696 239 696 355.5 696 c 128,-1,5
 472 696 472 696 565 645 c 0,6,7
 578 638 578 638 578 625 c 2,8,-1
 578 496 l 2,9,10
 578 481 578 481 563 481 c 2,11,-1
 507 481 l 2,12,13
 492 481 492 481 493 496 c 2,14,-1
 496 566 l 1,15,16
 434 608 434 608 355 608 c 0,17,18
 163 608 163 608 163 352 c 0,19,20
 163 272 163 272 182 212.5 c 128,-1,21
 201 153 201 153 249 114 c 128,-1,22
 297 75 297 75 377 75 c 128,-1,23
 457 75 457 75 497 107 c 1,24,-1
 493 177 l 2,25,26
 492 192 492 192 507 192 c 2,27,-1
 564 192 l 2,28,29
 579 192 579 192 579 177 c 2,30,-1
 579 50 l 2,31,32
 579 36 579 36 569 31 c 0,33,34
 481 -12 481 -12 368 -12 c 0,35,36
 204 -12 204 -12 123.5 81 c 128,-1,37
 43 174 43 174 43 336 c 0,0,1
EndSplineSet
EndChar

StartChar: D
Encoding: 68 68 40
Width: 679
GlyphClass: 2
Flags: W
LayerCount: 2
Fore
SplineSet
55 679 m 0,0,1
 183 685 183 685 245 685 c 128,-1,2
 307 685 307 685 337.5 682.5 c 128,-1,3
 368 680 368 680 407 672 c 128,-1,4
 446 664 446 664 476.5 650.5 c 128,-1,5
 507 637 507 637 538 612 c 128,-1,6
 569 587 569 587 590 554 c 0,7,8
 636 478 636 478 636 358 c 0,9,10
 636 177 636 177 536 88.5 c 128,-1,11
 436 0 436 0 263 0 c 2,12,-1
 55 0 l 2,13,14
 40 0 40 0 40 15 c 2,15,-1
 40 64 l 2,16,17
 40 79 40 79 55 79 c 2,18,-1
 107 79 l 1,19,-1
 107 598 l 1,20,-1
 55 598 l 2,21,22
 40 598 40 598 40 613 c 2,23,-1
 40 664 l 2,24,25
 40 679 40 679 55 679 c 0,0,1
455.5 150 m 128,-1,27
 516 222 516 222 516 347 c 128,-1,28
 516 472 516 472 459.5 537 c 128,-1,29
 403 602 403 602 283 602 c 2,30,-1
 219 602 l 1,31,-1
 219 78 l 1,32,-1
 285 78 l 2,33,26
 395 78 395 78 455.5 150 c 128,-1,27
EndSplineSet
EndChar

StartChar: E
Encoding: 69 69 41
Width: 555
GlyphClass: 2
Flags: W
LayerCount: 2
Fore
SplineSet
220 599 m 1,0,-1
 220 386 l 1,1,-1
 369 386 l 1,2,-1
 365 437 l 2,3,4
 364 452 364 452 379 452 c 2,5,-1
 435 452 l 2,6,7
 450 452 450 452 450 437 c 2,8,-1
 450 260 l 2,9,10
 450 245 450 245 435 245 c 2,11,-1
 379 245 l 2,12,13
 364 245 364 245 365 260 c 2,14,-1
 368 308 l 1,15,-1
 220 308 l 1,16,-1
 220 78 l 1,17,-1
 449 78 l 1,18,-1
 445 149 l 2,19,20
 444 164 444 164 459 164 c 2,21,-1
 515 164 l 2,22,23
 530 164 530 164 530 149 c 2,24,-1
 530 15 l 2,25,26
 530 0 530 0 515 0 c 2,27,-1
 55 0 l 2,28,29
 40 0 40 0 40 15 c 2,30,-1
 40 64 l 2,31,32
 40 79 40 79 55 79 c 2,33,-1
 108 79 l 1,34,-1
 108 598 l 1,35,-1
 55 598 l 2,36,37
 40 598 40 598 40 613 c 2,38,-1
 40 664 l 2,39,40
 40 679 40 679 55 679 c 2,41,-1
 495 679 l 2,42,43
 510 679 510 679 510 664 c 2,44,-1
 510 530 l 2,45,46
 510 515 510 515 495 515 c 2,47,-1
 439 515 l 2,48,49
 424 515 424 515 425 530 c 2,50,-1
 429 599 l 1,51,-1
 220 599 l 1,0,-1
EndSplineSet
EndChar

StartChar: F
Encoding: 70 70 42
Width: 540
GlyphClass: 2
Flags: W
LayerCount: 2
Fore
SplineSet
220 599 m 1,0,-1
 220 391 l 1,1,-1
 379 391 l 1,2,-1
 375 442 l 2,3,4
 374 457 374 457 389 457 c 2,5,-1
 445 457 l 2,6,7
 460 457 460 457 460 442 c 2,8,-1
 460 265 l 2,9,10
 460 250 460 250 445 250 c 2,11,-1
 389 250 l 2,12,13
 374 250 374 250 375 265 c 2,14,-1
 378 313 l 1,15,-1
 220 313 l 1,16,-1
 220 79 l 1,17,-1
 323 79 l 2,18,19
 338 79 338 79 338 64 c 2,20,-1
 338 15 l 2,21,22
 338 0 338 0 323 0 c 2,23,-1
 55 0 l 2,24,25
 40 0 40 0 40 15 c 2,26,-1
 40 64 l 2,27,28
 40 79 40 79 55 79 c 2,29,-1
 108 79 l 1,30,-1
 108 598 l 1,31,-1
 55 598 l 2,32,33
 40 598 40 598 40 613 c 2,34,-1
 40 664 l 2,35,36
 40 679 40 679 55 679 c 2,37,-1
 505 679 l 2,38,39
 520 679 520 679 520 664 c 2,40,-1
 520 530 l 2,41,42
 520 515 520 515 505 515 c 2,43,-1
 449 515 l 2,44,45
 434 515 434 515 435 530 c 2,46,-1
 439 599 l 1,47,-1
 220 599 l 1,0,-1
EndSplineSet
EndChar

StartChar: G
Encoding: 71 71 43
Width: 695
GlyphClass: 2
Flags: W
LayerCount: 2
Fore
SplineSet
607 234 m 1,0,-1
 607 64 l 2,1,2
 607 50 607 50 593 43 c 0,3,4
 550 20 550 20 486.5 4 c 128,-1,5
 423 -12 423 -12 352.5 -12 c 128,-1,6
 282 -12 282 -12 218 15 c 128,-1,7
 154 42 154 42 116 91 c 0,8,9
 43 187 43 187 43 341 c 0,10,11
 43 435 43 435 71.5 506.5 c 128,-1,12
 100 578 100 578 147 618 c 0,13,14
 239 696 239 696 358.5 696 c 128,-1,15
 478 696 478 696 564 643 c 0,16,17
 578 635 578 635 578 621 c 2,18,-1
 578 496 l 2,19,20
 578 481 578 481 563 481 c 2,21,-1
 506 481 l 2,22,23
 491 481 491 481 492 496 c 2,24,-1
 495 563 l 1,25,26
 432 608 432 608 358.5 608 c 128,-1,27
 285 608 285 608 240.5 571.5 c 128,-1,28
 196 535 196 535 179.5 481.5 c 128,-1,29
 163 428 163 428 163 352.5 c 128,-1,30
 163 277 163 277 181.5 217 c 128,-1,31
 200 157 200 157 248.5 117 c 128,-1,32
 297 77 297 77 374.5 77 c 128,-1,33
 452 77 452 77 504 112 c 1,34,-1
 504 234 l 1,35,-1
 440 234 l 2,36,37
 425 234 425 234 425 249 c 2,38,-1
 425 299 l 2,39,40
 425 314 425 314 440 314 c 2,41,-1
 660 314 l 2,42,43
 675 314 675 314 675 299 c 2,44,-1
 675 249 l 2,45,46
 675 234 675 234 660 234 c 2,47,-1
 607 234 l 1,0,-1
EndSplineSet
EndChar

StartChar: H
Encoding: 72 72 44
Width: 743
GlyphClass: 2
Flags: W
LayerCount: 2
Fore
SplineSet
220 598 m 1,0,-1
 220 392 l 1,1,-1
 523 392 l 1,2,-1
 523 598 l 1,3,-1
 470 598 l 2,4,5
 455 598 455 598 455 613 c 2,6,-1
 455 664 l 2,7,8
 455 679 455 679 470 679 c 2,9,-1
 688 679 l 2,10,11
 703 679 703 679 703 664 c 2,12,-1
 703 613 l 2,13,14
 703 598 703 598 688 598 c 2,15,-1
 635 598 l 1,16,-1
 635 79 l 1,17,-1
 688 79 l 2,18,19
 703 79 703 79 703 64 c 2,20,-1
 703 15 l 2,21,22
 703 0 703 0 688 0 c 2,23,-1
 470 0 l 2,24,25
 455 0 455 0 455 15 c 2,26,-1
 455 64 l 2,27,28
 455 79 455 79 470 79 c 2,29,-1
 523 79 l 1,30,-1
 523 306 l 1,31,-1
 220 306 l 1,32,-1
 220 79 l 1,33,-1
 273 79 l 2,34,35
 288 79 288 79 288 64 c 2,36,-1
 288 15 l 2,37,38
 288 0 288 0 273 0 c 2,39,-1
 55 0 l 2,40,41
 40 0 40 0 40 15 c 2,42,-1
 40 64 l 2,43,44
 40 79 40 79 55 79 c 2,45,-1
 108 79 l 1,46,-1
 108 598 l 1,47,-1
 55 598 l 2,48,49
 40 598 40 598 40 613 c 2,50,-1
 40 664 l 2,51,52
 40 679 40 679 55 679 c 2,53,-1
 273 679 l 2,54,55
 288 679 288 679 288 664 c 2,56,-1
 288 613 l 2,57,58
 288 598 288 598 273 598 c 2,59,-1
 220 598 l 1,0,-1
EndSplineSet
EndChar

StartChar: I
Encoding: 73 73 45
Width: 328
GlyphClass: 2
Flags: W
LayerCount: 2
Fore
SplineSet
220 598 m 1,0,-1
 220 79 l 1,1,-1
 273 79 l 2,2,3
 288 79 288 79 288 64 c 2,4,-1
 288 15 l 2,5,6
 288 0 288 0 273 0 c 2,7,-1
 55 0 l 2,8,9
 40 0 40 0 40 15 c 2,10,-1
 40 64 l 2,11,12
 40 79 40 79 55 79 c 2,13,-1
 108 79 l 1,14,-1
 108 598 l 1,15,-1
 55 598 l 2,16,17
 40 598 40 598 40 613 c 2,18,-1
 40 664 l 2,19,20
 40 679 40 679 55 679 c 2,21,-1
 273 679 l 2,22,23
 288 679 288 679 288 664 c 2,24,-1
 288 613 l 2,25,26
 288 598 288 598 273 598 c 2,27,-1
 220 598 l 1,0,-1
EndSplineSet
EndChar

StartChar: J
Encoding: 74 74 46
Width: 329
GlyphClass: 2
Flags: W
LayerCount: 2
Fore
SplineSet
109 -38 m 2,0,-1
 109 598 l 1,1,-1
 56 598 l 2,2,3
 41 598 41 598 41 613 c 2,4,-1
 41 664 l 2,5,6
 41 679 41 679 56 679 c 2,7,-1
 274 679 l 2,8,9
 289 679 289 679 289 664 c 2,10,-1
 289 613 l 2,11,12
 289 598 289 598 274 598 c 2,13,-1
 221 598 l 1,14,-1
 221 -42 l 2,15,16
 221 -240 221 -240 38 -240 c 0,17,18
 -31 -240 -31 -240 -75 -219 c 0,19,20
 -82 -216 -82 -216 -82 -210.5 c 128,-1,21
 -82 -205 -82 -205 -80 -200 c 2,22,-1
 -62 -148 l 2,23,24
 -57 -133 -57 -133 -44 -138 c 0,25,26
 -10 -151 -10 -151 29.5 -151 c 128,-1,27
 69 -151 69 -151 89 -125 c 128,-1,28
 109 -99 109 -99 109 -38 c 2,0,-1
EndSplineSet
EndChar

StartChar: K
Encoding: 75 75 47
Width: 664
GlyphClass: 2
Flags: W
LayerCount: 2
Fore
SplineSet
220 598 m 1,0,-1
 220 384 l 1,1,-1
 272 384 l 1,2,-1
 458 598 l 1,3,-1
 405 598 l 2,4,5
 390 598 390 598 390 613 c 2,6,-1
 390 664 l 2,7,8
 390 679 390 679 405 679 c 2,9,-1
 609 679 l 2,10,11
 624 679 624 679 624 664 c 2,12,-1
 624 611 l 2,13,14
 624 596 624 596 609 596 c 2,15,-1
 558 596 l 1,16,-1
 360 365 l 1,17,-1
 559 79 l 1,18,-1
 624 79 l 2,19,20
 639 79 639 79 639 64 c 2,21,-1
 639 15 l 2,22,23
 639 0 639 0 624 0 c 2,24,-1
 496 0 l 2,25,26
 481 0 481 0 472 12 c 2,27,-1
 271 302 l 1,28,-1
 220 302 l 1,29,-1
 220 79 l 1,30,-1
 273 79 l 2,31,32
 288 79 288 79 288 64 c 2,33,-1
 288 15 l 2,34,35
 288 0 288 0 273 0 c 2,36,-1
 55 0 l 2,37,38
 40 0 40 0 40 15 c 2,39,-1
 40 64 l 2,40,41
 40 79 40 79 55 79 c 2,42,-1
 108 79 l 1,43,-1
 108 598 l 1,44,-1
 55 598 l 2,45,46
 40 598 40 598 40 613 c 2,47,-1
 40 664 l 2,48,49
 40 679 40 679 55 679 c 2,50,-1
 273 679 l 2,51,52
 288 679 288 679 288 664 c 2,53,-1
 288 613 l 2,54,55
 288 598 288 598 273 598 c 2,56,-1
 220 598 l 1,0,-1
EndSplineSet
EndChar

StartChar: L
Encoding: 76 76 48
Width: 525
GlyphClass: 2
Flags: W
LayerCount: 2
Fore
SplineSet
220 598 m 1,0,-1
 220 79 l 1,1,-1
 429 79 l 1,2,-1
 425 149 l 2,3,4
 424 164 424 164 439 164 c 2,5,-1
 495 164 l 2,6,7
 510 164 510 164 510 149 c 2,8,-1
 510 -48 l 2,9,10
 510 -63 510 -63 495 -63 c 2,11,-1
 439 -63 l 2,12,13
 424 -63 424 -63 425 -48 c 2,14,-1
 428 0 l 1,15,-1
 55 0 l 2,16,17
 40 0 40 0 40 15 c 2,18,-1
 40 64 l 2,19,20
 40 79 40 79 55 79 c 2,21,-1
 108 79 l 1,22,-1
 108 598 l 1,23,-1
 55 598 l 2,24,25
 40 598 40 598 40 613 c 2,26,-1
 40 664 l 2,27,28
 40 679 40 679 55 679 c 2,29,-1
 293 679 l 2,30,31
 308 679 308 679 308 664 c 2,32,-1
 308 613 l 2,33,34
 308 598 308 598 293 598 c 2,35,-1
 220 598 l 1,0,-1
EndSplineSet
EndChar

StartChar: M
Encoding: 77 77 49
Width: 909
GlyphClass: 2
Flags: W
LayerCount: 2
Fore
SplineSet
476 0 m 2,0,-1
 410 0 l 2,1,2
 395 0 395 0 389 14 c 2,3,-1
 195 507 l 1,4,-1
 195 79 l 1,5,-1
 258 79 l 2,6,7
 273 79 273 79 273 64 c 2,8,-1
 273 15 l 2,9,10
 273 0 273 0 258 0 c 2,11,-1
 55 0 l 2,12,13
 40 0 40 0 40 15 c 2,14,-1
 40 64 l 2,15,16
 40 79 40 79 55 79 c 2,17,-1
 108 79 l 1,18,-1
 108 598 l 1,19,-1
 55 598 l 2,20,21
 40 598 40 598 40 613 c 2,22,-1
 40 664 l 2,23,24
 40 679 40 679 55 679 c 2,25,-1
 230 679 l 2,26,27
 246 679 246 679 250 665 c 1,28,-1
 456 128 l 1,29,-1
 667 665 l 1,30,31
 671 679 671 679 687 679 c 2,32,-1
 854 679 l 2,33,34
 869 679 869 679 869 664 c 2,35,-1
 869 613 l 2,36,37
 869 598 869 598 854 598 c 2,38,-1
 801 598 l 1,39,-1
 801 79 l 1,40,-1
 854 79 l 2,41,42
 869 79 869 79 869 64 c 2,43,-1
 869 15 l 2,44,45
 869 0 869 0 854 0 c 2,46,-1
 634 0 l 2,47,48
 619 0 619 0 619 15 c 2,49,-1
 619 64 l 2,50,51
 619 79 619 79 634 79 c 2,52,-1
 694 79 l 1,53,-1
 694 506 l 1,54,-1
 497 14 l 2,55,56
 491 0 491 0 476 0 c 2,0,-1
EndSplineSet
EndChar

StartChar: N
Encoding: 78 78 50
Width: 743
GlyphClass: 2
Flags: W
LayerCount: 2
Fore
SplineSet
645 598 m 1,0,-1
 645 15 l 2,1,2
 645 0 645 0 630 0 c 2,3,-1
 557 0 l 2,4,5
 542 0 542 0 534 12 c 2,6,-1
 195 513 l 1,7,-1
 195 79 l 1,8,-1
 278 79 l 2,9,10
 293 79 293 79 293 64 c 2,11,-1
 293 15 l 2,12,13
 293 0 293 0 278 0 c 2,14,-1
 55 0 l 2,15,16
 40 0 40 0 40 15 c 2,17,-1
 40 64 l 2,18,19
 40 79 40 79 55 79 c 2,20,-1
 108 79 l 1,21,-1
 108 598 l 1,22,-1
 55 598 l 2,23,24
 40 598 40 598 40 613 c 2,25,-1
 40 664 l 2,26,27
 40 679 40 679 55 679 c 2,28,-1
 202 679 l 2,29,30
 216 679 216 679 225 666 c 2,31,-1
 558 160 l 1,32,-1
 558 598 l 1,33,-1
 505 598 l 2,34,35
 490 598 490 598 490 613 c 2,36,-1
 490 664 l 2,37,38
 490 679 490 679 505 679 c 2,39,-1
 698 679 l 2,40,41
 713 679 713 679 713 664 c 2,42,-1
 713 613 l 2,43,44
 713 598 713 598 698 598 c 2,45,-1
 645 598 l 1,0,-1
EndSplineSet
EndChar

StartChar: O
Encoding: 79 79 51
Width: 692
GlyphClass: 2
Flags: W
LayerCount: 2
Fore
SplineSet
43 333 m 0,0,1
 43 433 43 433 73 507.5 c 128,-1,2
 103 582 103 582 152 621 c 0,3,4
 245 696 245 696 354 696 c 0,5,6
 391 696 391 696 425 690 c 128,-1,7
 459 684 459 684 502 663.5 c 128,-1,8
 545 643 545 643 575.5 608.5 c 128,-1,9
 606 574 606 574 627.5 510 c 128,-1,10
 649 446 649 446 649 361 c 0,11,12
 649 181 649 181 560.5 84.5 c 128,-1,13
 472 -12 472 -12 333.5 -12 c 128,-1,14
 195 -12 195 -12 119 76 c 128,-1,15
 43 164 43 164 43 333 c 0,0,1
345 82 m 0,16,17
 524 82 524 82 524 345 c 128,-1,18
 524 608 524 608 342 608 c 0,19,20
 278 608 278 608 236.5 573.5 c 128,-1,21
 195 539 195 539 179 487.5 c 128,-1,22
 163 436 163 436 163 368 c 0,23,24
 163 82 163 82 345 82 c 0,16,17
EndSplineSet
EndChar

StartChar: P
Encoding: 80 80 52
Width: 565
GlyphClass: 2
Flags: W
LayerCount: 2
Fore
SplineSet
40 15 m 2,0,-1
 40 64 l 2,1,2
 40 79 40 79 55 79 c 2,3,-1
 107 79 l 1,4,-1
 107 599 l 1,5,-1
 55 599 l 2,6,7
 40 599 40 599 40 614 c 2,8,-1
 40 664 l 2,9,10
 40 679 40 679 55 679 c 0,11,12
 183 685 183 685 264 685 c 0,13,14
 530 685 530 685 530 490 c 0,15,16
 530 389 530 389 465 330 c 128,-1,17
 400 271 400 271 288 271 c 0,18,19
 244 271 244 271 219 274 c 1,20,-1
 219 79 l 1,21,-1
 302 79 l 2,22,23
 317 79 317 79 317 64 c 2,24,-1
 317 15 l 2,25,26
 317 0 317 0 302 0 c 2,27,-1
 55 0 l 2,28,29
 40 0 40 0 40 15 c 2,0,-1
219 602 m 1,30,-1
 219 351 l 1,31,32
 228 350 228 350 265 350 c 0,33,34
 415 350 415 350 415 483 c 0,35,36
 415 531 415 531 390.5 558.5 c 128,-1,37
 366 586 366 586 333.5 594 c 128,-1,38
 301 602 301 602 255 602 c 2,39,-1
 219 602 l 1,30,-1
EndSplineSet
EndChar

StartChar: Q
Encoding: 81 81 53
Width: 692
GlyphClass: 2
Flags: W
LayerCount: 2
Fore
SplineSet
357 -11 m 1,0,-1
 333 -12 l 1,1,2
 194 -12 194 -12 118.5 75.5 c 128,-1,3
 43 163 43 163 43 332 c 0,4,5
 43 413 43 413 63.5 477.5 c 128,-1,6
 84 542 84 542 115.5 582 c 128,-1,7
 147 622 147 622 190 648 c 0,8,9
 266 696 266 696 354 696 c 0,10,11
 391 696 391 696 425 690 c 128,-1,12
 459 684 459 684 502 663 c 128,-1,13
 545 642 545 642 575.5 607.5 c 128,-1,14
 606 573 606 573 627.5 509 c 128,-1,15
 649 445 649 445 649 360 c 0,16,17
 649 234 649 234 604 149.5 c 128,-1,18
 559 65 559 65 481 23 c 1,19,20
 500 -46 500 -46 572 -108 c 0,21,22
 583 -117 583 -117 574 -129 c 2,23,-1
 551 -157 l 2,24,25
 546 -163 546 -163 540.5 -163 c 128,-1,26
 535 -163 535 -163 529 -160 c 0,27,28
 397 -92 397 -92 357 -11 c 1,0,-1
345 82 m 0,29,30
 524 82 524 82 524 345 c 128,-1,31
 524 608 524 608 342 608 c 0,32,33
 278 608 278 608 236.5 573 c 128,-1,34
 195 538 195 538 179 486.5 c 128,-1,35
 163 435 163 435 163 367 c 0,36,37
 163 82 163 82 345 82 c 0,29,30
EndSplineSet
EndChar

StartChar: R
Encoding: 82 82 54
Width: 616
GlyphClass: 2
Flags: W
LayerCount: 2
Fore
SplineSet
40 15 m 2,0,-1
 40 64 l 2,1,2
 40 79 40 79 55 79 c 2,3,-1
 107 79 l 1,4,-1
 107 599 l 1,5,-1
 55 599 l 2,6,7
 40 599 40 599 40 614 c 2,8,-1
 40 664 l 2,9,10
 40 679 40 679 55 679 c 0,11,12
 183 685 183 685 268 685 c 0,13,14
 528 685 528 685 528 499 c 0,15,16
 528 434 528 434 495 384.5 c 128,-1,17
 462 335 462 335 407 309 c 1,18,-1
 524 79 l 1,19,-1
 586 79 l 2,20,21
 601 79 601 79 601 64 c 2,22,-1
 601 15 l 2,23,24
 601 0 601 0 586 0 c 2,25,-1
 454 0 l 2,26,27
 439 0 439 0 432 13 c 2,28,-1
 296 282 l 1,29,-1
 276 282 l 2,30,31
 244 282 244 282 219 285 c 1,32,-1
 219 79 l 1,33,-1
 282 79 l 2,34,35
 297 79 297 79 297 64 c 2,36,-1
 297 15 l 2,37,38
 297 0 297 0 282 0 c 2,39,-1
 55 0 l 2,40,41
 40 0 40 0 40 15 c 2,0,-1
219 602 m 1,42,-1
 219 361 l 1,43,44
 227 360 227 360 242 360 c 0,45,46
 323 360 323 360 368 392 c 128,-1,47
 413 424 413 424 413 488 c 0,48,49
 413 602 413 602 255 602 c 2,50,-1
 219 602 l 1,42,-1
EndSplineSet
EndChar

StartChar: S
Encoding: 83 83 55
Width: 517
GlyphClass: 2
Flags: W
LayerCount: 2
Fore
SplineSet
283 696 m 0,0,1
 357 696 357 696 431 674 c 0,2,3
 445 670 445 670 445 656 c 2,4,-1
 445 518 l 2,5,6
 445 503 445 503 430 503 c 2,7,-1
 374 503 l 2,8,9
 359 503 359 503 360 518 c 2,10,-1
 363 585 l 1,11,12
 323 609 323 609 274 609 c 128,-1,13
 225 609 225 609 195.5 585.5 c 128,-1,14
 166 562 166 562 166 520 c 128,-1,15
 166 478 166 478 193 451.5 c 128,-1,16
 220 425 220 425 270 406 c 128,-1,17
 320 387 320 387 337 380 c 128,-1,18
 354 373 354 373 386.5 354 c 128,-1,19
 419 335 419 335 434.5 316.5 c 128,-1,20
 450 298 450 298 463.5 267 c 128,-1,21
 477 236 477 236 477 198 c 0,22,23
 477 99 477 99 414.5 43.5 c 128,-1,24
 352 -12 352 -12 237 -12 c 0,25,26
 152 -12 152 -12 69 14 c 0,27,28
 55 18 55 18 55 32 c 2,29,-1
 55 191 l 2,30,31
 55 206 55 206 70 206 c 2,32,-1
 126 206 l 2,33,34
 141 206 141 206 140 191 c 2,35,-1
 136 108 l 1,36,37
 149 96 149 96 179.5 85.5 c 128,-1,38
 210 75 210 75 242 75 c 0,39,40
 366 75 366 75 366 176 c 0,41,42
 366 225 366 225 333 253.5 c 128,-1,43
 300 282 300 282 247.5 299.5 c 128,-1,44
 195 317 195 317 168 330.5 c 128,-1,45
 141 344 141 344 113 366 c 0,46,47
 57 408 57 408 57 495 c 128,-1,48
 57 582 57 582 117 639 c 128,-1,49
 177 696 177 696 283 696 c 0,0,1
EndSplineSet
EndChar

StartChar: T
Encoding: 84 84 56
Width: 593
GlyphClass: 2
Flags: W
LayerCount: 2
Fore
SplineSet
436 0 m 2,0,-1
 158 0 l 2,1,2
 143 0 143 0 143 15 c 2,3,-1
 143 64 l 2,4,5
 143 79 143 79 158 79 c 2,6,-1
 240 79 l 1,7,-1
 240 599 l 1,8,-1
 105 599 l 1,9,-1
 110 521 l 2,10,11
 111 506 111 506 96 506 c 2,12,-1
 35 506 l 2,13,14
 20 506 20 506 20 521 c 2,15,-1
 20 664 l 2,16,17
 20 679 20 679 35 679 c 2,18,-1
 558 679 l 2,19,20
 573 679 573 679 573 664 c 2,21,-1
 573 521 l 2,22,23
 573 506 573 506 558 506 c 2,24,-1
 497 506 l 2,25,26
 482 506 482 506 483 521 c 2,27,-1
 488 599 l 1,28,-1
 353 599 l 1,29,-1
 353 79 l 1,30,-1
 436 79 l 2,31,32
 451 79 451 79 451 64 c 2,33,-1
 451 15 l 2,34,35
 451 0 451 0 436 0 c 2,0,-1
EndSplineSet
EndChar

StartChar: U
Encoding: 85 85 57
Width: 713
GlyphClass: 2
Flags: W
LayerCount: 2
Fore
SplineSet
205 598 m 1,0,-1
 205 284 l 2,1,2
 205 234 205 234 210 201.5 c 128,-1,3
 215 169 215 169 230 138 c 0,4,5
 259 78 259 78 354.5 78 c 128,-1,6
 450 78 450 78 487 130 c 128,-1,7
 524 182 524 182 524 281 c 2,8,-1
 524 598 l 1,9,-1
 471 598 l 2,10,11
 456 598 456 598 456 613 c 2,12,-1
 456 664 l 2,13,14
 456 679 456 679 471 679 c 2,15,-1
 673 679 l 2,16,17
 688 679 688 679 688 664 c 2,18,-1
 688 613 l 2,19,20
 688 598 688 598 673 598 c 2,21,-1
 620 598 l 1,22,-1
 620 260 l 2,23,24
 620 150 620 150 568 74 c 0,25,26
 540 34 540 34 486.5 11 c 128,-1,27
 433 -12 433 -12 357 -12 c 0,28,29
 209 -12 209 -12 151 52.5 c 128,-1,30
 93 117 93 117 93 249 c 2,31,-1
 93 598 l 1,32,-1
 40 598 l 2,33,34
 25 598 25 598 25 613 c 2,35,-1
 25 664 l 2,36,37
 25 679 25 679 40 679 c 2,38,-1
 258 679 l 2,39,40
 273 679 273 679 273 664 c 2,41,-1
 273 613 l 2,42,43
 273 598 273 598 258 598 c 2,44,-1
 205 598 l 1,0,-1
EndSplineSet
EndChar

StartChar: V
Encoding: 86 86 58
Width: 684
GlyphClass: 2
Flags: W
LayerCount: 2
Fore
SplineSet
269 14 m 1,0,-1
 82 598 l 1,1,-1
 20 598 l 2,2,3
 5 598 5 598 5 613 c 2,4,-1
 5 664 l 2,5,6
 5 679 5 679 20 679 c 2,7,-1
 274 679 l 2,8,9
 289 679 289 679 289 664 c 2,10,-1
 289 613 l 2,11,12
 289 598 289 598 274 598 c 2,13,-1
 213 598 l 1,14,-1
 355 119 l 1,15,-1
 517 598 l 1,16,-1
 453 598 l 2,17,18
 438 598 438 598 438 613 c 2,19,-1
 438 664 l 2,20,21
 438 679 438 679 453 679 c 2,22,-1
 664 679 l 2,23,24
 679 679 679 679 679 664 c 2,25,-1
 679 613 l 2,26,27
 679 598 679 598 664 598 c 2,28,-1
 611 598 l 1,29,-1
 406 14 l 1,30,31
 400 0 400 0 386 0 c 2,32,-1
 289 0 l 2,33,34
 275 0 275 0 269 14 c 1,0,-1
EndSplineSet
EndChar

StartChar: W
Encoding: 87 87 59
Width: 997
GlyphClass: 2
Flags: W
LayerCount: 2
Fore
SplineSet
216 15 m 2,0,-1
 72 598 l 1,1,-1
 20 598 l 2,2,3
 5 598 5 598 5 613 c 2,4,-1
 5 664 l 2,5,6
 5 679 5 679 20 679 c 2,7,-1
 270 679 l 2,8,9
 285 679 285 679 285 664 c 2,10,-1
 285 613 l 2,11,12
 285 598 285 598 270 598 c 2,13,-1
 199 598 l 1,14,-1
 306 133 l 1,15,-1
 452 665 l 2,16,17
 456 679 456 679 471 679 c 2,18,-1
 553 679 l 2,19,20
 568 679 568 679 572 665 c 2,21,-1
 717 130 l 1,22,-1
 832 598 l 1,23,-1
 766 598 l 2,24,25
 751 598 751 598 751 613 c 2,26,-1
 751 664 l 2,27,28
 751 679 751 679 766 679 c 2,29,-1
 977 679 l 2,30,31
 992 679 992 679 992 664 c 2,32,-1
 992 613 l 2,33,34
 992 598 992 598 977 598 c 2,35,-1
 924 598 l 1,36,-1
 770 15 l 2,37,38
 766 0 766 0 751 0 c 2,39,-1
 657 0 l 2,40,41
 642 0 642 0 638 14 c 2,42,-1
 498 512 l 1,43,-1
 364 14 l 2,44,45
 360 0 360 0 345 0 c 2,46,-1
 235 0 l 2,47,48
 220 0 220 0 216 15 c 2,0,-1
EndSplineSet
EndChar

StartChar: X
Encoding: 88 88 60
Width: 677
GlyphClass: 2
Flags: W
LayerCount: 2
Fore
SplineSet
176 78 m 1,0,-1
 239 78 l 2,1,2
 254 78 254 78 254 63 c 2,3,-1
 254 15 l 2,4,5
 254 0 254 0 239 0 c 2,6,-1
 21 0 l 2,7,8
 6 0 6 0 6 15 c 2,9,-1
 6 63 l 2,10,11
 6 78 6 78 21 78 c 2,12,-1
 74 78 l 1,13,-1
 269 338 l 1,14,-1
 79 598 l 1,15,-1
 25 598 l 2,16,17
 10 598 10 598 10 613 c 2,18,-1
 10 664 l 2,19,20
 10 679 10 679 25 679 c 2,21,-1
 275 679 l 2,22,23
 290 679 290 679 290 664 c 2,24,-1
 290 613 l 2,25,26
 290 598 290 598 275 598 c 2,27,-1
 214 598 l 1,28,-1
 343 418 l 1,29,-1
 474 598 l 1,30,-1
 418 598 l 2,31,32
 403 598 403 598 403 613 c 2,33,-1
 403 664 l 2,34,35
 403 679 403 679 418 679 c 2,36,-1
 629 679 l 2,37,38
 644 679 644 679 644 664 c 2,39,-1
 644 613 l 2,40,41
 644 598 644 598 629 598 c 2,42,-1
 577 598 l 1,43,-1
 392 356 l 1,44,-1
 591 78 l 1,45,-1
 652 78 l 2,46,47
 667 78 667 78 667 63 c 2,48,-1
 667 15 l 2,49,50
 667 0 667 0 652 0 c 2,51,-1
 390 0 l 2,52,53
 375 0 375 0 375 15 c 2,54,-1
 375 63 l 2,55,56
 375 78 375 78 390 78 c 2,57,-1
 454 78 l 1,58,-1
 318 269 l 1,59,-1
 176 78 l 1,0,-1
EndSplineSet
EndChar

StartChar: Y
Encoding: 89 89 61
Width: 664
GlyphClass: 2
Flags: W
LayerCount: 2
Fore
SplineSet
279 257 m 1,0,-1
 77 598 l 1,1,-1
 25 598 l 2,2,3
 10 598 10 598 10 613 c 2,4,-1
 10 664 l 2,5,6
 10 679 10 679 25 679 c 2,7,-1
 279 679 l 2,8,9
 294 679 294 679 294 664 c 2,10,-1
 294 613 l 2,11,12
 294 598 294 598 279 598 c 2,13,-1
 208 598 l 1,14,-1
 352 352 l 1,15,-1
 495 598 l 1,16,-1
 428 598 l 2,17,18
 413 598 413 598 413 613 c 2,19,-1
 413 664 l 2,20,21
 413 679 413 679 428 679 c 2,22,-1
 639 679 l 2,23,24
 654 679 654 679 654 664 c 2,25,-1
 654 613 l 2,26,27
 654 598 654 598 639 598 c 2,28,-1
 586 598 l 1,29,-1
 391 270 l 1,30,-1
 391 78 l 1,31,-1
 444 78 l 2,32,33
 459 78 459 78 459 63 c 2,34,-1
 459 15 l 2,35,36
 459 0 459 0 444 0 c 2,37,-1
 226 0 l 2,38,39
 211 0 211 0 211 15 c 2,40,-1
 211 63 l 2,41,42
 211 78 211 78 226 78 c 2,43,-1
 279 78 l 1,44,-1
 279 257 l 1,0,-1
EndSplineSet
EndChar

StartChar: Z
Encoding: 90 90 62
Width: 588
GlyphClass: 2
Flags: W
LayerCount: 2
Fore
SplineSet
63 679 m 2,0,-1
 535 679 l 2,1,2
 550 679 550 679 550 664 c 2,3,-1
 550 616 l 2,4,5
 550 601 550 601 541 589 c 2,6,-1
 165 78 l 1,7,-1
 471 78 l 1,8,-1
 465 149 l 2,9,10
 464 164 464 164 479 164 c 2,11,-1
 538 164 l 2,12,13
 553 164 553 164 553 149 c 2,14,-1
 553 -48 l 2,15,16
 553 -63 553 -63 538 -63 c 2,17,-1
 482 -63 l 2,18,19
 467 -63 467 -63 468 -48 c 2,20,-1
 471 0 l 1,21,-1
 46 0 l 2,22,23
 31 0 31 0 31 15 c 2,24,-1
 31 63 l 2,25,26
 31 78 31 78 40 90 c 2,27,-1
 412 601 l 1,28,-1
 133 601 l 1,29,-1
 138 521 l 2,30,31
 139 506 139 506 124 506 c 2,32,-1
 63 506 l 2,33,34
 48 506 48 506 48 521 c 2,35,-1
 48 664 l 2,36,37
 48 679 48 679 63 679 c 2,0,-1
EndSplineSet
EndChar

StartChar: bracketleft
Encoding: 91 91 63
Width: 337
GlyphClass: 2
Flags: W
LayerCount: 2
Fore
SplineSet
309 -83 m 2,0,-1
 309 -131 l 2,1,2
 309 -142 309 -142 305 -146 c 128,-1,3
 301 -150 301 -150 290 -150 c 2,4,-1
 145 -150 l 2,5,6
 134 -150 134 -150 130 -146 c 128,-1,7
 126 -142 126 -142 126 -131 c 2,8,-1
 126 727 l 2,9,10
 126 738 126 738 130 742 c 128,-1,11
 134 746 134 746 145 746 c 2,12,-1
 290 746 l 2,13,14
 301 746 301 746 305 742 c 128,-1,15
 309 738 309 738 309 727 c 2,16,-1
 309 676 l 2,17,18
 309 665 309 665 305 661 c 128,-1,19
 301 657 301 657 290 658 c 2,20,-1
 222 663 l 1,21,-1
 222 -70 l 1,22,-1
 290 -65 l 2,23,24
 301 -64 301 -64 305 -68 c 128,-1,25
 309 -72 309 -72 309 -83 c 2,0,-1
EndSplineSet
EndChar

StartChar: backslash
Encoding: 92 92 64
Width: 434
GlyphClass: 2
Flags: W
LayerCount: 2
Fore
SplineSet
400 -93 m 0,0,1
 400 -101 400 -101 385 -101 c 2,2,-1
 346 -101 l 2,3,4
 334 -101 334 -101 329.5 -97.5 c 128,-1,5
 325 -94 325 -94 321 -83 c 2,6,-1
 26 727 l 2,7,8
 24 733 24 733 24 737 c 0,9,10
 24 745 24 745 39 745 c 2,11,-1
 79 745 l 2,12,13
 91 745 91 745 95.5 741.5 c 128,-1,14
 100 738 100 738 104 727 c 2,15,-1
 398 -83 l 2,16,17
 400 -89 400 -89 400 -93 c 0,0,1
EndSplineSet
EndChar

StartChar: bracketright
Encoding: 93 93 65
Width: 337
GlyphClass: 2
Flags: W
LayerCount: 2
Fore
SplineSet
28 -131 m 2,0,-1
 28 -83 l 2,1,2
 28 -72 28 -72 32 -68 c 128,-1,3
 36 -64 36 -64 47 -65 c 2,4,-1
 115 -70 l 1,5,-1
 115 663 l 1,6,-1
 47 658 l 2,7,8
 36 657 36 657 32 661 c 128,-1,9
 28 665 28 665 28 676 c 2,10,-1
 28 727 l 2,11,12
 28 738 28 738 32 742 c 128,-1,13
 36 746 36 746 47 746 c 2,14,-1
 192 746 l 2,15,16
 203 746 203 746 207 742 c 128,-1,17
 211 738 211 738 211 727 c 2,18,-1
 211 -131 l 2,19,20
 211 -142 211 -142 207 -146 c 128,-1,21
 203 -150 203 -150 192 -150 c 2,22,-1
 47 -150 l 2,23,24
 36 -150 36 -150 32 -146 c 128,-1,25
 28 -142 28 -142 28 -131 c 2,0,-1
EndSplineSet
EndChar

StartChar: asciicircum
Encoding: 94 94 66
Width: 584
GlyphClass: 2
Flags: W
LayerCount: 2
Fore
SplineSet
394 328 m 2,0,-1
 279 587 l 1,1,-1
 163 328 l 2,2,3
 157 314 157 314 142 314 c 2,4,-1
 76 314 l 2,5,6
 66 314 66 314 66 321 c 0,7,8
 66 324 66 324 68 328 c 2,9,-1
 236 676 l 2,10,11
 242 690 242 690 257 690 c 2,12,-1
 304 690 l 2,13,14
 319 690 319 690 325 676 c 2,15,-1
 493 328 l 2,16,17
 495 324 495 324 495 321 c 0,18,19
 495 314 495 314 484 314 c 2,20,-1
 415 314 l 2,21,22
 400 314 400 314 394 328 c 2,0,-1
EndSplineSet
EndChar

StartChar: underscore
Encoding: 95 95 67
Width: 500
GlyphClass: 2
Flags: W
LayerCount: 2
Fore
SplineSet
488 -161 m 2,0,-1
 12 -161 l 2,1,2
 1 -161 1 -161 -3 -157 c 128,-1,3
 -7 -153 -7 -153 -7 -142 c 2,4,-1
 -7 -123 l 2,5,6
 -7 -112 -7 -112 -3 -108 c 128,-1,7
 1 -104 1 -104 12 -104 c 2,8,-1
 488 -104 l 2,9,10
 499 -104 499 -104 503 -108 c 128,-1,11
 507 -112 507 -112 507 -123 c 2,12,-1
 507 -142 l 2,13,14
 507 -153 507 -153 503 -157 c 128,-1,15
 499 -161 499 -161 488 -161 c 2,0,-1
EndSplineSet
EndChar

StartChar: grave
Encoding: 96 96 68
Width: 500
GlyphClass: 2
Flags: W
LayerCount: 2
Fore
SplineSet
195 715 m 2,0,1
 191 722 191 722 191 727 c 128,-1,2
 191 732 191 732 205 732 c 2,3,-1
 277 732 l 2,4,5
 289 732 289 732 293.5 728.5 c 128,-1,6
 298 725 298 725 302 714 c 2,7,-1
 345 598 l 2,8,9
 347 592 347 592 347 589 c 0,10,11
 347 580 347 580 332 580 c 2,12,-1
 288 580 l 2,13,14
 268 580 268 580 260 597 c 1,15,-1
 195 715 l 2,0,1
EndSplineSet
EndChar

StartChar: a
Encoding: 97 97 69
Width: 524
GlyphClass: 2
Flags: W
LayerCount: 2
Fore
SplineSet
328 297 m 1,0,-1
 328 332 l 2,1,2
 328 403 328 403 288 421 c 0,3,4
 269 429 269 429 233 429 c 0,5,6
 165 429 165 429 151 365 c 0,7,8
 148 350 148 350 136 350 c 2,9,-1
 72 350 l 2,10,11
 56 350 56 350 58 365 c 1,12,13
 62 438 62 438 117 472 c 128,-1,14
 172 506 172 506 257 506 c 0,15,16
 436 506 436 506 436 342 c 2,17,-1
 436 79 l 1,18,-1
 479 79 l 2,19,20
 494 79 494 79 494 64 c 2,21,-1
 494 15 l 2,22,23
 494 0 494 0 479 0 c 2,24,-1
 361 0 l 2,25,26
 348 0 348 0 346 15 c 2,27,-1
 339 61 l 1,28,29
 285 -12 285 -12 183 -12 c 0,30,31
 119 -12 119 -12 77 21.5 c 128,-1,32
 35 55 35 55 35 129 c 0,33,34
 35 226 35 226 116 262 c 1,35,36
 183 293 183 293 276 296 c 0,37,38
 295 296 295 296 328 297 c 1,0,-1
330 151 m 2,39,-1
 330 228 l 1,40,41
 234 228 234 228 212 219 c 128,-1,42
 190 210 190 210 173 201 c 0,43,44
 141 184 141 184 141 139 c 0,45,46
 141 70 141 70 220 70 c 0,47,48
 272 70 272 70 301 94.5 c 128,-1,49
 330 119 330 119 330 151 c 2,39,-1
EndSplineSet
EndChar

StartChar: b
Encoding: 98 98 70
Width: 584
GlyphClass: 2
Flags: W
LayerCount: 2
Fore
SplineSet
89 79 m 1,0,-1
 89 663 l 1,1,-1
 35 663 l 2,2,3
 20 663 20 663 20 678 c 2,4,-1
 20 731 l 2,5,6
 20 746 20 746 35 746 c 2,7,-1
 186 746 l 2,8,9
 201 746 201 746 201 731 c 2,10,-1
 201 420 l 1,11,12
 225 460 225 460 265.5 483 c 128,-1,13
 306 506 306 506 353 506 c 0,14,15
 445 506 445 506 497 445 c 128,-1,16
 549 384 549 384 549 254.5 c 128,-1,17
 549 125 549 125 489.5 56.5 c 128,-1,18
 430 -12 430 -12 333 -12 c 0,19,20
 278 -12 278 -12 237.5 7.5 c 128,-1,21
 197 27 197 27 179 56 c 1,22,-1
 173 15 l 1,23,24
 172 0 172 0 158 0 c 2,25,-1
 36 0 l 2,26,27
 21 0 21 0 21 15 c 2,28,-1
 21 64 l 2,29,30
 21 79 21 79 36 79 c 2,31,-1
 89 79 l 1,0,-1
201 302 m 2,32,-1
 201 125 l 1,33,34
 213 107 213 107 247.5 90 c 128,-1,35
 282 73 282 73 315 73 c 0,36,37
 436 73 436 73 436 244 c 0,38,39
 436 368 436 368 380 400 c 0,40,41
 356 414 356 414 314 414 c 128,-1,42
 272 414 272 414 236.5 383.5 c 128,-1,43
 201 353 201 353 201 302 c 2,32,-1
EndSplineSet
EndChar

StartChar: c
Encoding: 99 99 71
Width: 468
GlyphClass: 2
Flags: W
LayerCount: 2
Fore
SplineSet
149 254 m 0,0,1
 149 72 149 72 290 72 c 0,2,3
 335 72 335 72 395 99 c 0,4,5
 410 105 410 105 416 90 c 2,6,-1
 434 46 l 2,7,8
 439 32 439 32 426 25 c 0,9,10
 365 -12 365 -12 272 -12 c 0,11,12
 151 -12 151 -12 93 56.5 c 128,-1,13
 35 125 35 125 35 242.5 c 128,-1,14
 35 360 35 360 94.5 433 c 128,-1,15
 154 506 154 506 272 506 c 0,16,17
 362 506 362 506 405 457 c 128,-1,18
 448 408 448 408 448 332 c 0,19,20
 448 319 448 319 431 319 c 2,21,-1
 371 319 l 2,22,23
 355 319 355 319 354 334 c 0,24,25
 349 422 349 422 265 422 c 0,26,27
 205 422 205 422 177 380.5 c 128,-1,28
 149 339 149 339 149 254 c 0,0,1
EndSplineSet
EndChar

StartChar: d
Encoding: 100 100 72
Width: 583
GlyphClass: 2
Flags: W
LayerCount: 2
Fore
SplineSet
495 79 m 1,0,-1
 538 79 l 2,1,2
 553 79 553 79 553 64 c 2,3,-1
 553 15 l 2,4,5
 553 0 553 0 538 0 c 2,6,-1
 425 0 l 2,7,8
 412 0 412 0 410 15 c 2,9,-1
 402 74 l 1,10,11
 351 -12 351 -12 239 -12 c 0,12,13
 141 -12 141 -12 88 49.5 c 128,-1,14
 35 111 35 111 35 240.5 c 128,-1,15
 35 370 35 370 96.5 438 c 128,-1,16
 158 506 158 506 255 506 c 0,17,18
 299 506 299 506 333 489.5 c 128,-1,19
 367 473 367 473 383 450 c 1,20,-1
 383 663 l 1,21,-1
 330 663 l 2,22,23
 315 663 315 663 315 678 c 2,24,-1
 315 731 l 2,25,26
 315 746 315 746 330 746 c 2,27,-1
 480 746 l 2,28,29
 495 746 495 746 495 731 c 2,30,-1
 495 79 l 1,0,-1
383 188 m 2,31,-1
 383 364 l 1,32,33
 370 384 370 384 337.5 401 c 128,-1,34
 305 418 305 418 272 418 c 0,35,36
 148 418 148 418 148 250 c 0,37,38
 148 121 148 121 204 89 c 0,39,40
 228 75 228 75 270 75 c 128,-1,41
 312 75 312 75 347.5 106 c 128,-1,42
 383 137 383 137 383 188 c 2,31,-1
EndSplineSet
EndChar

StartChar: e
Encoding: 101 101 73
Width: 489
GlyphClass: 2
Flags: W
LayerCount: 2
Fore
SplineSet
265 -12 m 0,0,1
 146 -12 146 -12 90.5 57.5 c 128,-1,2
 35 127 35 127 35 241.5 c 128,-1,3
 35 356 35 356 94 431 c 128,-1,4
 153 506 153 506 264 506 c 0,5,6
 319 506 319 506 358.5 485.5 c 128,-1,7
 398 465 398 465 419 430 c 0,8,9
 459 362 459 362 459 273 c 0,10,11
 459 231 459 231 455 227 c 128,-1,12
 451 223 451 223 440 223 c 2,13,-1
 146 223 l 1,14,15
 151 151 151 151 181.5 111.5 c 128,-1,16
 212 72 212 72 287 72 c 0,17,18
 342 72 342 72 400 98 c 0,19,20
 414 105 414 105 420 90 c 2,21,-1
 439 44 l 2,22,23
 444 32 444 32 430 24 c 0,24,25
 364 -12 364 -12 265 -12 c 0,0,1
146 297 m 1,26,-1
 354 297 l 1,27,28
 356 422 356 422 256 422 c 0,29,30
 197 422 197 422 172.5 384.5 c 128,-1,31
 148 347 148 347 146 297 c 1,26,-1
EndSplineSet
EndChar

StartChar: f
Encoding: 102 102 74
Width: 358
GlyphClass: 2
Flags: W
LayerCount: 2
Fore
SplineSet
209 414 m 1,0,-1
 209 79 l 1,1,-1
 315 79 l 2,2,3
 330 79 330 79 330 64 c 2,4,-1
 330 15 l 2,5,6
 330 0 330 0 315 0 c 2,7,-1
 35 0 l 2,8,9
 20 0 20 0 20 15 c 2,10,-1
 20 64 l 2,11,12
 20 79 20 79 35 79 c 2,13,-1
 97 79 l 1,14,-1
 97 414 l 1,15,-1
 35 414 l 2,16,17
 20 414 20 414 20 429 c 2,18,-1
 20 480 l 2,19,20
 20 495 20 495 35 495 c 2,21,-1
 97 495 l 1,22,-1
 97 592 l 2,23,24
 97 712 97 712 172 745 c 0,25,26
 203 759 203 759 257 759 c 128,-1,27
 311 759 311 759 367 734 c 0,28,29
 376 730 376 730 376 724 c 128,-1,30
 376 718 376 718 375 715 c 2,31,-1
 360 665 l 1,32,33
 355 653 355 653 343 658 c 0,34,35
 303 676 303 676 267 676 c 128,-1,36
 231 676 231 676 220 652.5 c 128,-1,37
 209 629 209 629 209 568 c 2,38,-1
 209 495 l 1,39,-1
 330 495 l 2,40,41
 345 495 345 495 345 480 c 2,42,-1
 345 429 l 2,43,44
 345 414 345 414 330 414 c 2,45,-1
 209 414 l 1,0,-1
EndSplineSet
EndChar

StartChar: g
Encoding: 103 103 75
Width: 570
GlyphClass: 2
Flags: W
LayerCount: 2
Fore
SplineSet
490 413 m 1,0,-1
 490 58 l 2,1,2
 490 -6 490 -6 485 -61 c 0,3,4
 477 -146 477 -146 422.5 -193 c 128,-1,5
 368 -240 368 -240 268 -240 c 128,-1,6
 168 -240 168 -240 100 -210 c 0,7,8
 88 -205 88 -205 92 -190 c 1,9,-1
 110 -137 l 2,10,11
 114 -123 114 -123 130 -129 c 0,12,13
 191 -154 191 -154 253.5 -154 c 128,-1,14
 316 -154 316 -154 347 -124 c 128,-1,15
 378 -94 378 -94 378 -18 c 2,16,-1
 378 60 l 1,17,18
 334 -12 334 -12 236 -12 c 128,-1,19
 138 -12 138 -12 86.5 51 c 128,-1,20
 35 114 35 114 35 242.5 c 128,-1,21
 35 371 35 371 95.5 438.5 c 128,-1,22
 156 506 156 506 247.5 506 c 128,-1,23
 339 506 339 506 395 441 c 1,24,-1
 405 480 l 1,25,26
 410 495 410 495 423 495 c 2,27,-1
 545 495 l 2,28,29
 560 495 560 495 560 480 c 2,30,-1
 560 428 l 2,31,32
 560 413 560 413 545 413 c 2,33,-1
 490 413 l 1,0,-1
378 187 m 2,34,-1
 378 365 l 1,35,36
 374 371 374 371 365.5 380 c 128,-1,37
 357 389 357 389 328.5 403.5 c 128,-1,38
 300 418 300 418 267 418 c 0,39,40
 214 418 214 418 181 378.5 c 128,-1,41
 148 339 148 339 148 252 c 128,-1,42
 148 165 148 165 172 119.5 c 128,-1,43
 196 74 196 74 265 74 c 0,44,45
 309 74 309 74 343.5 105 c 128,-1,46
 378 136 378 136 378 187 c 2,34,-1
EndSplineSet
EndChar

StartChar: h
Encoding: 104 104 76
Width: 599
GlyphClass: 2
Flags: W
LayerCount: 2
Fore
SplineSet
20 679 m 2,0,-1
 20 731 l 2,1,2
 20 746 20 746 35 746 c 2,3,-1
 186 746 l 2,4,5
 201 746 201 746 201 731 c 2,6,-1
 201 423 l 1,7,8
 257 506 257 506 356 506 c 0,9,10
 511 506 511 506 511 336 c 2,11,-1
 511 79 l 1,12,-1
 570 79 l 2,13,14
 585 79 585 79 585 64 c 2,15,-1
 585 15 l 2,16,17
 585 0 585 0 570 0 c 2,18,-1
 351 0 l 2,19,20
 336 0 336 0 336 15 c 2,21,-1
 336 64 l 2,22,23
 336 79 336 79 351 79 c 2,24,-1
 399 79 l 1,25,-1
 399 286 l 2,26,27
 399 349 399 349 383 378 c 128,-1,28
 367 407 367 407 317 407 c 128,-1,29
 267 407 267 407 234 377 c 128,-1,30
 201 347 201 347 201 309 c 2,31,-1
 201 79 l 1,32,-1
 262 79 l 2,33,34
 277 79 277 79 277 64 c 2,35,-1
 277 15 l 2,36,37
 277 0 277 0 262 0 c 2,38,-1
 35 0 l 2,39,40
 20 0 20 0 20 15 c 2,41,-1
 20 64 l 2,42,43
 20 79 20 79 35 79 c 2,44,-1
 89 79 l 1,45,-1
 89 664 l 1,46,-1
 35 664 l 2,47,48
 20 664 20 664 20 679 c 2,0,-1
EndSplineSet
EndChar

StartChar: i
Encoding: 105 105 77
Width: 294
GlyphClass: 2
Flags: W
LayerCount: 2
Fore
SplineSet
206 79 m 1,0,-1
 269 79 l 2,1,2
 284 79 284 79 284 64 c 2,3,-1
 284 15 l 2,4,5
 284 0 284 0 269 0 c 2,6,-1
 31 0 l 2,7,8
 16 0 16 0 16 15 c 2,9,-1
 16 64 l 2,10,11
 16 79 16 79 31 79 c 2,12,13
 31 79 31 79 94 79 c 1,14,-1
 94 413 l 1,15,-1
 40 413 l 2,16,17
 25 413 25 413 25 428 c 2,18,-1
 25 480 l 2,19,20
 25 495 25 495 40 495 c 2,21,-1
 191 495 l 2,22,23
 206 495 206 495 206 480 c 2,24,-1
 206 79 l 1,0,-1
66 635 m 128,-1,26
 66 666 66 666 85.5 686.5 c 128,-1,27
 105 707 105 707 137.5 707 c 128,-1,28
 170 707 170 707 189.5 686.5 c 128,-1,29
 209 666 209 666 209 635 c 128,-1,30
 209 604 209 604 189 584 c 128,-1,31
 169 564 169 564 136.5 564 c 128,-1,32
 104 564 104 564 85 584 c 128,-1,25
 66 604 66 604 66 635 c 128,-1,26
EndSplineSet
EndChar

StartChar: j
Encoding: 106 106 78
Width: 289
GlyphClass: 2
Flags: W
LayerCount: 2
Fore
SplineSet
206 480 m 2,0,-1
 206 -41 l 2,1,2
 206 -240 206 -240 29 -240 c 0,3,4
 -47 -240 -47 -240 -91 -219 c 0,5,6
 -100 -214 -100 -214 -100 -208.5 c 128,-1,7
 -100 -203 -100 -203 -99 -199 c 2,8,-1
 -79 -144 l 2,9,10
 -74 -131 -74 -131 -60 -136 c 0,11,12
 -27 -148 -27 -148 10 -148 c 0,13,14
 94 -148 94 -148 94 -31 c 2,15,-1
 94 413 l 1,16,-1
 40 413 l 2,17,18
 25 413 25 413 25 428 c 2,19,-1
 25 480 l 2,20,21
 25 495 25 495 40 495 c 2,22,-1
 191 495 l 2,23,24
 206 495 206 495 206 480 c 2,0,-1
66 635 m 128,-1,26
 66 666 66 666 85.5 686.5 c 128,-1,27
 105 707 105 707 137.5 707 c 128,-1,28
 170 707 170 707 189.5 686.5 c 128,-1,29
 209 666 209 666 209 635 c 128,-1,30
 209 604 209 604 189 584 c 128,-1,31
 169 564 169 564 136.5 564 c 128,-1,32
 104 564 104 564 85 584 c 128,-1,25
 66 604 66 604 66 635 c 128,-1,26
EndSplineSet
EndChar

StartChar: k
Encoding: 107 107 79
Width: 566
GlyphClass: 2
Flags: W
LayerCount: 2
Fore
SplineSet
206 731 m 2,0,-1
 206 332 l 1,1,-1
 257 332 l 1,2,-1
 412 484 l 2,3,4
 423 495 423 495 438 495 c 2,5,-1
 516 495 l 2,6,7
 531 495 531 495 531 480 c 2,8,-1
 531 428 l 2,9,10
 531 413 531 413 516 413 c 2,11,-1
 455 413 l 1,12,-1
 345 306 l 1,13,-1
 482 79 l 1,14,-1
 541 79 l 2,15,16
 556 79 556 79 556 64 c 2,17,-1
 556 15 l 2,18,19
 556 0 556 0 541 0 c 2,20,-1
 412 0 l 2,21,22
 398 0 398 0 389 13 c 2,23,-1
 239 255 l 1,24,-1
 206 255 l 1,25,-1
 206 79 l 1,26,-1
 259 79 l 2,27,28
 274 79 274 79 274 64 c 2,29,-1
 274 15 l 2,30,31
 274 0 274 0 259 0 c 2,32,-1
 41 0 l 2,33,34
 26 0 26 0 26 15 c 2,35,-1
 26 64 l 2,36,37
 26 79 26 79 41 79 c 2,38,-1
 94 79 l 1,39,-1
 94 665 l 1,40,-1
 40 665 l 2,41,42
 25 665 25 665 25 680 c 2,43,-1
 25 731 l 2,44,45
 25 746 25 746 40 746 c 2,46,-1
 191 746 l 2,47,48
 206 746 206 746 206 731 c 2,0,-1
EndSplineSet
EndChar

StartChar: l
Encoding: 108 108 80
Width: 294
GlyphClass: 2
Flags: W
LayerCount: 2
Fore
SplineSet
206 731 m 2,0,-1
 206 79 l 1,1,-1
 269 79 l 2,2,3
 284 79 284 79 284 64 c 2,4,-1
 284 15 l 2,5,6
 284 0 284 0 269 0 c 2,7,-1
 31 0 l 2,8,9
 16 0 16 0 16 15 c 2,10,-1
 16 64 l 2,11,12
 16 79 16 79 31 79 c 2,13,-1
 94 79 l 1,14,-1
 94 664 l 1,15,-1
 40 664 l 2,16,17
 25 664 25 664 25 679 c 2,18,-1
 25 731 l 2,19,20
 25 746 25 746 40 746 c 2,21,-1
 191 746 l 2,22,23
 206 746 206 746 206 731 c 2,0,-1
EndSplineSet
EndChar

StartChar: m
Encoding: 109 109 81
Width: 893
GlyphClass: 2
Flags: W
LayerCount: 2
Fore
SplineSet
25 428 m 2,0,-1
 25 480 l 2,1,2
 25 495 25 495 40 495 c 2,3,-1
 177 495 l 2,4,5
 190 495 190 495 192 480 c 2,6,-1
 200 422 l 1,7,8
 252 506 252 506 356 506 c 128,-1,9
 460 506 460 506 493 418 c 1,10,11
 547 506 547 506 650 506 c 0,12,13
 805 506 805 506 805 336 c 2,14,-1
 805 79 l 1,15,-1
 862 79 l 2,16,17
 877 79 877 79 877 64 c 2,18,-1
 877 15 l 2,19,20
 877 0 877 0 862 0 c 2,21,-1
 642 0 l 2,22,23
 627 0 627 0 627 15 c 2,24,-1
 627 64 l 2,25,26
 627 79 627 79 642 79 c 2,27,-1
 693 79 l 1,28,-1
 693 286 l 2,29,30
 693 349 693 349 677 378 c 128,-1,31
 661 407 661 407 612.5 407 c 128,-1,32
 564 407 564 407 535 381 c 128,-1,33
 506 355 506 355 506 320 c 2,34,-1
 506 79 l 1,35,-1
 554 79 l 2,36,37
 569 79 569 79 569 64 c 2,38,-1
 569 15 l 2,39,40
 569 0 569 0 554 0 c 2,41,-1
 349 0 l 2,42,43
 334 0 334 0 334 15 c 2,44,-1
 334 64 l 2,45,46
 334 79 334 79 349 79 c 2,47,-1
 394 79 l 1,48,-1
 394 286 l 2,49,50
 394 349 394 349 378 378 c 128,-1,51
 362 407 362 407 312.5 407 c 128,-1,52
 263 407 263 407 234.5 377.5 c 128,-1,53
 206 348 206 348 206 309 c 2,54,-1
 206 79 l 1,55,-1
 267 79 l 2,56,57
 282 79 282 79 282 64 c 2,58,-1
 282 15 l 2,59,60
 282 0 282 0 267 0 c 2,61,-1
 41 0 l 2,62,63
 26 0 26 0 26 15 c 2,64,-1
 26 64 l 2,65,66
 26 79 26 79 41 79 c 2,67,-1
 94 79 l 1,68,-1
 94 413 l 1,69,-1
 40 413 l 2,70,71
 25 413 25 413 25 428 c 2,0,-1
EndSplineSet
EndChar

StartChar: n
Encoding: 110 110 82
Width: 604
GlyphClass: 2
Flags: W
LayerCount: 2
Fore
SplineSet
25 427 m 2,0,-1
 25 480 l 2,1,2
 25 495 25 495 40 495 c 2,3,-1
 176 495 l 2,4,5
 189 495 189 495 192 480 c 2,6,-1
 201 422 l 1,7,8
 257 506 257 506 361 506 c 0,9,10
 516 506 516 506 516 336 c 2,11,-1
 516 79 l 1,12,-1
 574 79 l 2,13,14
 589 79 589 79 589 64 c 2,15,-1
 589 15 l 2,16,17
 589 0 589 0 574 0 c 2,18,-1
 356 0 l 2,19,20
 341 0 341 0 341 15 c 2,21,-1
 341 64 l 2,22,23
 341 79 341 79 356 79 c 2,24,-1
 404 79 l 1,25,-1
 404 286 l 2,26,27
 404 349 404 349 388 378 c 128,-1,28
 372 407 372 407 322 407 c 128,-1,29
 272 407 272 407 239 377 c 128,-1,30
 206 347 206 347 206 309 c 2,31,-1
 206 79 l 1,32,-1
 268 79 l 2,33,34
 283 79 283 79 283 64 c 2,35,-1
 283 15 l 2,36,37
 283 0 283 0 268 0 c 2,38,-1
 41 0 l 2,39,40
 26 0 26 0 26 15 c 2,41,-1
 26 64 l 2,42,43
 26 79 26 79 41 79 c 2,44,-1
 94 79 l 1,45,-1
 94 413 l 1,46,-1
 40 413 l 2,47,48
 25 413 25 413 25 427 c 2,0,-1
EndSplineSet
EndChar

StartChar: o
Encoding: 111 111 83
Width: 532
GlyphClass: 2
Flags: W
LayerCount: 2
Fore
SplineSet
35 240 m 0,0,1
 35 315 35 315 58 370 c 128,-1,2
 81 425 81 425 118 453 c 0,3,4
 189 506 189 506 272 506 c 0,5,6
 333 506 333 506 375 487 c 128,-1,7
 417 468 417 468 440.5 443 c 128,-1,8
 464 418 464 418 480.5 371 c 128,-1,9
 497 324 497 324 497 261 c 0,10,11
 497 127 497 127 429.5 57.5 c 128,-1,12
 362 -12 362 -12 257 -12 c 128,-1,13
 152 -12 152 -12 93.5 51.5 c 128,-1,14
 35 115 35 115 35 240 c 0,0,1
265 70 m 0,15,16
 325 70 325 70 352.5 114.5 c 128,-1,17
 380 159 380 159 380 247 c 128,-1,18
 380 335 380 335 352.5 379.5 c 128,-1,19
 325 424 325 424 263 424 c 0,20,21
 148 424 148 424 148 262 c 0,22,23
 148 70 148 70 265 70 c 0,15,16
EndSplineSet
EndChar

StartChar: p
Encoding: 112 112 84
Width: 584
GlyphClass: 2
Flags: W
LayerCount: 2
Fore
SplineSet
89 -151 m 1,0,-1
 89 413 l 1,1,-1
 35 413 l 2,2,3
 20 413 20 413 20 428 c 2,4,-1
 20 480 l 2,5,6
 20 495 20 495 35 495 c 2,7,-1
 171 495 l 2,8,9
 183 495 183 495 186 480 c 2,10,-1
 196 420 l 1,11,12
 247 506 247 506 353 506 c 0,13,14
 445 506 445 506 497 445.5 c 128,-1,15
 549 385 549 385 549 267 c 0,16,17
 549 124 549 124 488 56 c 128,-1,18
 427 -12 427 -12 331 -12 c 0,19,20
 252 -12 252 -12 201 30 c 1,21,-1
 201 -150 l 1,22,-1
 307 -150 l 2,23,24
 322 -150 322 -150 322 -165 c 2,25,-1
 322 -215 l 2,26,27
 322 -230 322 -230 307 -230 c 2,28,-1
 36 -230 l 2,29,30
 21 -230 21 -230 21 -215 c 2,31,-1
 21 -166 l 2,32,33
 21 -151 21 -151 36 -151 c 2,34,-1
 89 -151 l 1,0,-1
201 304 m 2,35,-1
 201 113 l 1,36,37
 217 97 217 97 250 84 c 128,-1,38
 283 71 283 71 315 71 c 0,39,40
 373 71 373 71 404.5 110.5 c 128,-1,41
 436 150 436 150 436 244 c 0,42,43
 436 372 436 372 380 401 c 0,44,45
 356 414 356 414 314 414 c 128,-1,46
 272 414 272 414 236.5 384.5 c 128,-1,47
 201 355 201 355 201 304 c 2,35,-1
EndSplineSet
EndChar

StartChar: q
Encoding: 113 113 85
Width: 575
GlyphClass: 2
Flags: W
LayerCount: 2
Fore
SplineSet
495 -152 m 1,0,-1
 548 -152 l 2,1,2
 563 -152 563 -152 563 -167 c 2,3,-1
 563 -215 l 2,4,5
 563 -230 563 -230 548 -230 c 2,6,-1
 398 -230 l 2,7,8
 383 -230 383 -230 383 -215 c 2,9,-1
 383 63 l 1,10,11
 336 -12 336 -12 237.5 -12 c 128,-1,12
 139 -12 139 -12 87 51 c 128,-1,13
 35 114 35 114 35 241 c 128,-1,14
 35 368 35 368 96.5 437 c 128,-1,15
 158 506 158 506 255 506 c 0,16,17
 302 506 302 506 340.5 487.5 c 128,-1,18
 379 469 379 469 399 439 c 1,19,-1
 409 480 l 1,20,21
 414 495 414 495 425 495 c 2,22,-1
 550 495 l 2,23,24
 565 495 565 495 565 480 c 2,25,-1
 565 428 l 2,26,27
 565 413 565 413 550 413 c 2,28,-1
 495 413 l 1,29,-1
 495 -152 l 1,0,-1
383 189 m 2,30,-1
 383 364 l 1,31,32
 379 370 379 370 370.5 379 c 128,-1,33
 362 388 362 388 333.5 402.5 c 128,-1,34
 305 417 305 417 272 417 c 0,35,36
 216 417 216 417 182 377 c 128,-1,37
 148 337 148 337 148 254 c 0,38,39
 148 120 148 120 204 88 c 0,40,41
 228 74 228 74 271 74 c 128,-1,42
 314 74 314 74 348.5 105.5 c 128,-1,43
 383 137 383 137 383 189 c 2,30,-1
EndSplineSet
EndChar

StartChar: r
Encoding: 114 114 86
Width: 451
GlyphClass: 2
Flags: W
LayerCount: 2
Fore
SplineSet
255 477.5 m 128,-1,1
 293 506 293 506 338 506 c 128,-1,2
 383 506 383 506 407 498 c 0,3,4
 419 494 419 494 419 480 c 2,5,-1
 419 345 l 2,6,7
 419 330 419 330 404 330 c 2,8,-1
 339 330 l 2,9,10
 324 330 324 330 325 345 c 2,11,-1
 329 403 l 1,12,13
 324 404 324 404 312 404 c 0,14,15
 266 404 266 404 236 366.5 c 128,-1,16
 206 329 206 329 206 266 c 2,17,-1
 206 79 l 1,18,-1
 316 79 l 2,19,20
 331 79 331 79 331 64 c 2,21,-1
 331 15 l 2,22,23
 331 0 331 0 316 0 c 2,24,-1
 41 0 l 2,25,26
 26 0 26 0 26 15 c 2,27,-1
 26 64 l 2,28,29
 26 79 26 79 41 79 c 2,30,-1
 94 79 l 1,31,-1
 94 413 l 1,32,-1
 40 413 l 2,33,34
 25 413 25 413 25 428 c 2,35,-1
 25 480 l 2,36,37
 25 495 25 495 40 495 c 2,38,-1
 172 495 l 2,39,40
 186 495 186 495 189 480 c 2,41,-1
 200 409 l 1,42,0
 217 449 217 449 255 477.5 c 128,-1,1
EndSplineSet
EndChar

StartChar: s
Encoding: 115 115 87
Width: 441
GlyphClass: 2
Flags: W
LayerCount: 2
Fore
SplineSet
107 462 m 128,-1,1
 158 506 158 506 236 506 c 128,-1,2
 314 506 314 506 371 488 c 0,3,4
 385 484 385 484 385 470 c 2,5,-1
 385 364 l 2,6,7
 385 349 385 349 370 349 c 2,8,-1
 312 349 l 2,9,10
 296 349 296 349 299 364 c 1,11,-1
 304 415 l 1,12,13
 274 431 274 431 238 431 c 0,14,15
 158 431 158 431 158 375 c 0,16,17
 158 346 158 346 184 329 c 128,-1,18
 210 312 210 312 247 301.5 c 128,-1,19
 284 291 284 291 321.5 277.5 c 128,-1,20
 359 264 359 264 385 231.5 c 128,-1,21
 411 199 411 199 411 149 c 0,22,23
 411 73 411 73 358 30.5 c 128,-1,24
 305 -12 305 -12 209 -12 c 0,25,26
 142 -12 142 -12 68 8 c 0,27,28
 55 12 55 12 55 27 c 2,29,-1
 55 133 l 2,30,31
 55 148 55 148 70 148 c 2,32,-1
 128 148 l 2,33,34
 143 148 143 148 142 133 c 2,35,-1
 139 81 l 1,36,37
 166 61 166 61 216 61 c 0,38,39
 305 61 305 61 305 124 c 0,40,41
 305 156 305 156 279.5 174.5 c 128,-1,42
 254 193 254 193 217.5 203 c 128,-1,43
 181 213 181 213 144 225.5 c 128,-1,44
 107 238 107 238 81.5 269.5 c 128,-1,45
 56 301 56 301 56 352 c 0,46,0
 56 418 56 418 107 462 c 128,-1,1
EndSplineSet
EndChar

StartChar: t
Encoding: 116 116 88
Width: 369
GlyphClass: 2
Flags: W
LayerCount: 2
Fore
SplineSet
199 413 m 1,0,-1
 199 161 l 2,1,2
 199 114 199 114 211 93 c 128,-1,3
 223 72 223 72 256 72 c 128,-1,4
 289 72 289 72 320 86 c 0,5,6
 331 90 331 90 336 78 c 2,7,-1
 354 32 l 2,8,9
 355 29 355 29 355 23.5 c 128,-1,10
 355 18 355 18 345 12 c 0,11,12
 297 -12 297 -12 231 -12 c 0,13,14
 142 -12 142 -12 114 34 c 1,15,16
 94 64 94 64 91 92 c 0,17,18
 87 130 87 130 87 172 c 2,19,-1
 87 413 l 1,20,-1
 30 413 l 2,21,22
 15 413 15 413 15 428 c 2,23,-1
 15 480 l 2,24,25
 15 495 15 495 30 495 c 2,26,-1
 87 495 l 1,27,-1
 87 630 l 2,28,29
 87 645 87 645 102 645 c 2,30,-1
 184 645 l 2,31,32
 199 645 199 645 199 630 c 2,33,-1
 199 495 l 1,34,-1
 300 495 l 2,35,36
 315 495 315 495 315 480 c 2,37,-1
 315 428 l 2,38,39
 315 413 315 413 300 413 c 2,40,-1
 199 413 l 1,0,-1
EndSplineSet
EndChar

StartChar: u
Encoding: 117 117 89
Width: 599
GlyphClass: 2
Flags: W
LayerCount: 2
Fore
SplineSet
510 79 m 1,0,-1
 554 79 l 2,1,2
 569 79 569 79 569 64 c 2,3,-1
 569 15 l 2,4,5
 569 0 569 0 554 0 c 2,6,-1
 442 0 l 2,7,8
 430 0 430 0 427 15 c 2,9,-1
 418 71 l 1,10,11
 354 -12 354 -12 250 -12 c 0,12,13
 88 -12 88 -12 88 158 c 2,14,-1
 88 413 l 1,15,-1
 35 413 l 2,16,17
 20 413 20 413 20 428 c 2,18,-1
 20 480 l 2,19,20
 20 495 20 495 35 495 c 2,21,-1
 185 495 l 2,22,23
 200 495 200 495 200 480 c 2,24,-1
 200 188 l 2,25,26
 200 128 200 128 215.5 102.5 c 128,-1,27
 231 77 231 77 281.5 77 c 128,-1,28
 332 77 332 77 365 107 c 128,-1,29
 398 137 398 137 398 175 c 2,30,-1
 398 413 l 1,31,-1
 335 413 l 2,32,33
 320 413 320 413 320 428 c 2,34,-1
 320 480 l 2,35,36
 320 495 320 495 335 495 c 2,37,-1
 495 495 l 2,38,39
 510 495 510 495 510 480 c 2,40,-1
 510 79 l 1,0,-1
EndSplineSet
EndChar

StartChar: v
Encoding: 118 118 90
Width: 519
GlyphClass: 2
Flags: W
LayerCount: 2
Fore
SplineSet
165 481 m 2,0,-1
 281 111 l 1,1,-1
 386 413 l 1,2,-1
 335 413 l 2,3,4
 320 413 320 413 320 428 c 2,5,-1
 320 480 l 2,6,7
 320 495 320 495 335 495 c 2,8,-1
 481 495 l 2,9,10
 493 495 493 495 497 488 c 128,-1,11
 501 481 501 481 501 475.5 c 128,-1,12
 501 470 501 470 499 465 c 2,13,-1
 328 14 l 1,14,15
 324 0 324 0 308 0 c 2,16,-1
 222 0 l 2,17,18
 208 0 208 0 202 14 c 1,19,-1
 65 413 l 1,20,-1
 15 413 l 2,21,22
 0 413 0 413 0 428 c 2,23,-1
 0 480 l 2,24,25
 0 495 0 495 15 495 c 2,26,-1
 146 495 l 2,27,28
 161 495 161 495 165 481 c 2,0,-1
EndSplineSet
EndChar

StartChar: w
Encoding: 119 119 91
Width: 781
GlyphClass: 2
Flags: W
LayerCount: 2
Fore
SplineSet
165 480 m 2,0,-1
 256 123 l 1,1,-1
 355 481 l 2,2,3
 359 495 359 495 374 495 c 2,4,-1
 454 495 l 2,5,6
 469 495 469 495 473 481 c 2,7,-1
 575 121 l 1,8,-1
 664 413 l 1,9,-1
 616 413 l 2,10,11
 601 413 601 413 601 428 c 2,12,-1
 601 480 l 2,13,14
 601 495 601 495 616 495 c 2,15,-1
 744 495 l 2,16,17
 756 495 756 495 760.5 488.5 c 128,-1,18
 765 482 765 482 765 477 c 128,-1,19
 765 472 765 472 764 468 c 2,20,-1
 626 14 l 2,21,22
 622 0 622 0 607 0 c 2,23,-1
 517 0 l 2,24,25
 502 0 502 0 498 15 c 2,26,-1
 403 368 l 1,27,-1
 304 14 l 2,28,29
 300 0 300 0 285 0 c 2,30,-1
 195 0 l 2,31,32
 180 0 180 0 176 14 c 2,33,-1
 67 413 l 1,34,-1
 15 413 l 2,35,36
 0 413 0 413 0 428 c 2,37,-1
 0 480 l 2,38,39
 0 495 0 495 15 495 c 2,40,-1
 146 495 l 2,41,42
 161 495 161 495 165 480 c 2,0,-1
EndSplineSet
EndChar

StartChar: x
Encoding: 120 120 92
Width: 553
GlyphClass: 2
Flags: W
LayerCount: 2
Fore
SplineSet
520 480 m 2,0,-1
 520 428 l 2,1,2
 520 413 520 413 505 413 c 2,3,-1
 445 413 l 1,4,-1
 333 263 l 1,5,-1
 446 79 l 1,6,-1
 515 79 l 2,7,8
 530 79 530 79 530 64 c 2,9,-1
 530 15 l 2,10,11
 530 0 530 0 515 0 c 2,12,-1
 384 0 l 2,13,14
 370 0 370 0 361 13 c 1,15,-1
 263 179 l 1,16,-1
 190 79 l 1,17,-1
 245 79 l 2,18,19
 260 79 260 79 260 64 c 2,20,-1
 260 15 l 2,21,22
 260 0 260 0 245 0 c 2,23,-1
 38 0 l 2,24,25
 23 0 23 0 23 15 c 2,26,-1
 23 64 l 2,27,28
 23 79 23 79 38 79 c 2,29,-1
 90 79 l 1,30,-1
 217 248 l 1,31,-1
 117 413 l 1,32,-1
 53 413 l 2,33,34
 38 413 38 413 38 428 c 2,35,-1
 38 480 l 2,36,37
 38 495 38 495 53 495 c 2,38,-1
 178 495 l 2,39,40
 193 495 193 495 200 482 c 2,41,-1
 288 327 l 1,42,-1
 352 413 l 1,43,-1
 315 413 l 2,44,45
 300 413 300 413 300 428 c 2,46,-1
 300 480 l 2,47,48
 300 495 300 495 315 495 c 2,49,-1
 505 495 l 2,50,51
 520 495 520 495 520 480 c 2,0,-1
EndSplineSet
EndChar

StartChar: y
Encoding: 121 121 93
Width: 519
GlyphClass: 2
Flags: W
LayerCount: 2
Fore
SplineSet
165 481 m 2,0,-1
 282 117 l 1,1,-1
 386 413 l 1,2,-1
 335 413 l 2,3,4
 320 413 320 413 320 428 c 2,5,-1
 320 480 l 2,6,7
 320 495 320 495 335 495 c 2,8,-1
 481 495 l 2,9,10
 493 495 493 495 497 488 c 128,-1,11
 501 481 501 481 501 475.5 c 128,-1,12
 501 470 501 470 499 465 c 2,13,-1
 285 -94 l 2,14,15
 270 -132 270 -132 259.5 -152.5 c 128,-1,16
 249 -173 249 -173 230 -196 c 0,17,18
 193 -240 193 -240 121 -240 c 128,-1,19
 49 -240 49 -240 3 -218 c 0,20,21
 -5 -214 -5 -214 -5 -208 c 128,-1,22
 -5 -202 -5 -202 -4 -199 c 2,23,-1
 13 -150 l 2,24,25
 17 -137 17 -137 32 -141 c 0,26,27
 80 -157 80 -157 110.5 -157 c 128,-1,28
 141 -157 141 -157 157.5 -141.5 c 128,-1,29
 174 -126 174 -126 192 -77 c 2,30,-1
 217 -11 l 1,31,-1
 65 413 l 1,32,-1
 15 413 l 2,33,34
 0 413 0 413 0 428 c 2,35,-1
 0 480 l 2,36,37
 0 495 0 495 15 495 c 2,38,-1
 146 495 l 2,39,40
 161 495 161 495 165 481 c 2,0,-1
EndSplineSet
EndChar

StartChar: z
Encoding: 122 122 94
Width: 452
GlyphClass: 2
Flags: W
LayerCount: 2
Fore
SplineSet
422 141 m 2,0,-1
 421 15 l 2,1,2
 421 0 421 0 406 0 c 2,3,-1
 50 0 l 2,4,5
 35 0 35 0 35 15 c 2,6,-1
 35 73 l 2,7,8
 35 88 35 88 44 100 c 2,9,-1
 293 415 l 1,10,-1
 127 415 l 1,11,-1
 129 362 l 2,12,13
 130 347 130 347 115 347 c 2,14,-1
 60 347 l 2,15,16
 45 347 45 347 45 362 c 2,17,-1
 45 480 l 2,18,19
 45 495 45 495 60 495 c 2,20,-1
 403 495 l 2,21,22
 418 495 418 495 418 480 c 2,23,-1
 418 424 l 2,24,25
 418 409 418 409 409 397 c 2,26,-1
 154 78 l 1,27,-1
 339 78 l 1,28,-1
 337 141 l 2,29,30
 336 156 336 156 351 156 c 2,31,-1
 407 156 l 2,32,33
 422 156 422 156 422 141 c 2,0,-1
EndSplineSet
EndChar

StartChar: braceleft
Encoding: 123 123 95
Width: 328
GlyphClass: 2
Flags: W
LayerCount: 2
Fore
SplineSet
137 273 m 1,0,-1
 59 273 l 2,1,2
 48 273 48 273 44 277 c 128,-1,3
 40 281 40 281 40 292 c 2,4,-1
 40 340 l 2,5,6
 40 351 40 351 44 355 c 128,-1,7
 48 359 48 359 59 359 c 2,8,-1
 137 359 l 1,9,-1
 110 727 l 2,10,11
 109 738 109 738 113 742 c 128,-1,12
 117 746 117 746 128 746 c 2,13,-1
 281 746 l 2,14,15
 292 746 292 746 296 742 c 128,-1,16
 300 738 300 738 300 727 c 2,17,-1
 300 676 l 2,18,19
 300 665 300 665 296 661 c 128,-1,20
 292 657 292 657 281 658 c 2,21,-1
 213 663 l 1,22,-1
 213 -70 l 1,23,-1
 281 -65 l 2,24,25
 292 -64 292 -64 296 -68 c 128,-1,26
 300 -72 300 -72 300 -83 c 2,27,-1
 300 -131 l 2,28,29
 300 -142 300 -142 296 -146 c 128,-1,30
 292 -150 292 -150 281 -150 c 2,31,-1
 128 -150 l 2,32,33
 117 -150 117 -150 113 -146 c 128,-1,34
 109 -142 109 -142 110 -131 c 2,35,-1
 137 273 l 1,0,-1
EndSplineSet
EndChar

StartChar: bar
Encoding: 124 124 96
Width: 257
GlyphClass: 2
Flags: W
LayerCount: 2
Fore
SplineSet
167 726 m 2,0,-1
 167 -82 l 2,1,2
 167 -93 167 -93 163 -97 c 128,-1,3
 159 -101 159 -101 148 -101 c 2,4,-1
 109 -101 l 2,5,6
 98 -101 98 -101 94 -97 c 128,-1,7
 90 -93 90 -93 90 -82 c 2,8,-1
 90 726 l 2,9,10
 90 737 90 737 94 741 c 128,-1,11
 98 745 98 745 109 745 c 2,12,-1
 148 745 l 2,13,14
 159 745 159 745 163 741 c 128,-1,15
 167 737 167 737 167 726 c 2,0,-1
EndSplineSet
EndChar

StartChar: braceright
Encoding: 125 125 97
Width: 330
GlyphClass: 2
Flags: W
LayerCount: 2
Fore
SplineSet
281 273 m 2,0,-1
 203 273 l 1,1,-1
 230 -131 l 2,2,3
 231 -142 231 -142 227 -146 c 128,-1,4
 223 -150 223 -150 212 -150 c 2,5,-1
 59 -150 l 2,6,7
 48 -150 48 -150 44 -146 c 128,-1,8
 40 -142 40 -142 40 -131 c 2,9,-1
 40 -83 l 2,10,11
 40 -72 40 -72 44 -68 c 128,-1,12
 48 -64 48 -64 59 -65 c 2,13,-1
 127 -70 l 1,14,-1
 127 663 l 1,15,-1
 59 658 l 2,16,17
 48 657 48 657 44 661 c 128,-1,18
 40 665 40 665 40 676 c 2,19,-1
 40 727 l 2,20,21
 40 738 40 738 44 742 c 128,-1,22
 48 746 48 746 59 746 c 2,23,-1
 212 746 l 2,24,25
 223 746 223 746 227 742 c 128,-1,26
 231 738 231 738 230 727 c 2,27,-1
 203 359 l 1,28,-1
 281 359 l 2,29,30
 292 359 292 359 296 355 c 128,-1,31
 300 351 300 351 300 340 c 2,32,-1
 300 292 l 2,33,34
 300 281 300 281 296 277 c 128,-1,35
 292 273 292 273 281 273 c 2,0,-1
EndSplineSet
EndChar

StartChar: asciitilde
Encoding: 126 126 98
Width: 636
GlyphClass: 2
Flags: W
LayerCount: 2
Fore
SplineSet
104.5 335.5 m 128,-1,1
 137 368 137 368 175 368 c 128,-1,2
 213 368 213 368 309.5 340.5 c 128,-1,3
 406 313 406 313 435 313 c 128,-1,4
 464 313 464 313 476.5 320.5 c 128,-1,5
 489 328 489 328 489 347.5 c 128,-1,6
 489 367 489 367 504 367 c 2,7,-1
 541 367 l 2,8,9
 556 367 556 367 556 348 c 0,10,11
 556 280 556 280 526 248 c 128,-1,12
 496 216 496 216 449 216 c 128,-1,13
 402 216 402 216 304.5 243 c 128,-1,14
 207 270 207 270 184.5 270 c 128,-1,15
 162 270 162 270 153.5 260.5 c 128,-1,16
 145 251 145 251 145 228 c 0,17,18
 145 215 145 215 131 215 c 2,19,-1
 87 215 l 2,20,21
 72 215 72 215 72 231 c 0,22,0
 72 303 72 303 104.5 335.5 c 128,-1,1
EndSplineSet
EndChar

StartChar: exclamdown
Encoding: 161 161 100
Width: 253
GlyphClass: 2
Flags: W
LayerCount: 2
Fore
SplineSet
114 338 m 2,0,-1
 138 338 l 2,1,2
 149 338 149 338 153 334 c 128,-1,3
 157 330 157 330 158 319 c 2,4,-1
 180 -14 l 1,5,-1
 180 -165 l 2,6,7
 180 -176 180 -176 176 -180 c 128,-1,8
 172 -184 172 -184 161 -184 c 2,9,-1
 91 -184 l 2,10,11
 80 -184 80 -184 76 -180 c 128,-1,12
 72 -176 72 -176 72 -165 c 2,13,-1
 72 -16 l 1,14,-1
 94 319 l 2,15,16
 95 330 95 330 99 334 c 128,-1,17
 103 338 103 338 114 338 c 2,0,-1
76.5 493.5 m 128,-1,19
 95 511 95 511 126.5 511 c 128,-1,20
 158 511 158 511 175.5 493 c 128,-1,21
 193 475 193 475 193 448 c 128,-1,22
 193 421 193 421 174.5 404 c 128,-1,23
 156 387 156 387 126 387 c 128,-1,24
 96 387 96 387 77 405 c 128,-1,25
 58 423 58 423 58 449.5 c 128,-1,18
 58 476 58 476 76.5 493.5 c 128,-1,19
EndSplineSet
EndChar

StartChar: cent
Encoding: 162 162 101
Width: 468
GlyphClass: 2
Flags: W
LayerCount: 2
Fore
SplineSet
224 -62 m 2,0,-1
 220 -62 l 2,1,2
 209 -62 209 -62 205.5 -58 c 128,-1,3
 202 -54 202 -54 204 -43 c 2,4,-1
 215 41 l 1,5,6
 64 76 64 76 64 273 c 0,7,8
 64 375 64 375 118.5 441.5 c 128,-1,9
 173 508 173 508 278 509 c 1,10,-1
 287 577 l 2,11,12
 289 588 289 588 293.5 592 c 128,-1,13
 298 596 298 596 309 596 c 2,14,-1
 313 596 l 2,15,16
 324 596 324 596 327.5 592 c 128,-1,17
 331 588 331 588 329 577 c 2,18,-1
 320 507 l 1,19,20
 379 496 379 496 410.5 454 c 128,-1,21
 442 412 442 412 442 349 c 1,22,23
 443 338 443 338 439 334 c 128,-1,24
 435 330 435 330 424 330 c 2,25,-1
 380 330 l 2,26,27
 368 330 368 330 364.5 333.5 c 128,-1,28
 361 337 361 337 359 349 c 0,29,30
 353 415 353 415 309 428 c 1,31,-1
 268 120 l 1,32,33
 277 118 277 118 308 118 c 128,-1,34
 339 118 339 118 387 138 c 0,35,36
 405 146 405 146 411 128 c 2,37,-1
 423 93 l 2,38,39
 427 82 427 82 425.5 77 c 128,-1,40
 424 72 424 72 414 67 c 0,41,42
 350 34 350 34 277 34 c 2,43,-1
 256 34 l 1,44,-1
 246 -43 l 2,45,46
 244 -54 244 -54 239.5 -58 c 128,-1,47
 235 -62 235 -62 224 -62 c 2,0,-1
267 431 m 1,48,49
 217 427 217 427 191.5 386.5 c 128,-1,50
 166 346 166 346 166 277 c 0,51,52
 166 172 166 172 227 131 c 1,53,-1
 267 431 l 1,48,49
EndSplineSet
EndChar

StartChar: sterling
Encoding: 163 163 102
Width: 454
GlyphClass: 2
Flags: W
LayerCount: 2
Fore
SplineSet
141 0 m 1,0,-1
 33 -4 l 2,1,2
 26 -4 26 -4 22 -1.5 c 128,-1,3
 18 1 18 1 16 13 c 2,4,-1
 13 25 l 2,5,6
 12 30 12 30 12 38.5 c 128,-1,7
 12 47 12 47 31 61 c 0,8,9
 89 104 89 104 92 233 c 1,10,-1
 51 233 l 2,11,12
 40 233 40 233 36.5 237 c 128,-1,13
 33 241 33 241 34 252 c 2,14,-1
 37 276 l 2,15,16
 39 287 39 287 43 291 c 128,-1,17
 47 295 47 295 58 295 c 2,18,-1
 96 295 l 1,19,-1
 100 360 l 2,20,21
 106 449 106 449 156 490 c 128,-1,22
 206 531 206 531 283 531 c 0,23,24
 328 531 328 531 394 515 c 0,25,26
 405 512 405 512 408.5 507.5 c 128,-1,27
 412 503 412 503 412 491 c 2,28,-1
 412 384 l 2,29,30
 412 373 412 373 408 369 c 128,-1,31
 404 365 404 365 393 365 c 2,32,-1
 351 365 l 2,33,34
 340 365 340 365 336 369 c 128,-1,35
 332 373 332 373 333 384 c 2,36,-1
 337 435 l 1,37,38
 309 454 309 454 271.5 454 c 128,-1,39
 234 454 234 454 219 434 c 128,-1,40
 204 414 204 414 201 367 c 2,41,-1
 197 295 l 1,42,-1
 341 295 l 2,43,44
 352 295 352 295 355.5 291 c 128,-1,45
 359 287 359 287 357 276 c 2,46,-1
 354 250 l 2,47,48
 353 238 353 238 348.5 234.5 c 128,-1,49
 344 231 344 231 332 231 c 2,50,-1
 193 231 l 1,51,52
 191 181 191 181 179.5 151 c 128,-1,53
 168 121 168 121 137 83 c 1,54,-1
 348 83 l 1,55,-1
 344 135 l 2,56,57
 343 146 343 146 347 150 c 128,-1,58
 351 154 351 154 362 154 c 2,59,-1
 410 154 l 2,60,61
 421 154 421 154 425 150 c 128,-1,62
 429 146 429 146 429 135 c 2,63,-1
 429 19 l 2,64,65
 429 8 429 8 425 4 c 128,-1,66
 421 0 421 0 410 0 c 2,67,-1
 141 0 l 1,0,-1
EndSplineSet
EndChar

StartChar: yen
Encoding: 165 165 103
Width: 523
GlyphClass: 2
Flags: W
LayerCount: 2
Fore
SplineSet
215 220 m 1,0,-1
 111 220 l 2,1,2
 100 220 100 220 96 224 c 128,-1,3
 92 228 92 228 92 239 c 2,4,-1
 92 252 l 2,5,6
 92 263 92 263 96 267 c 128,-1,7
 100 271 100 271 111 271 c 2,8,-1
 193 271 l 1,9,-1
 71 431 l 1,10,-1
 36 431 l 2,11,12
 25 431 25 431 21 434.5 c 128,-1,13
 17 438 17 438 17 449 c 2,14,-1
 17 492 l 2,15,16
 17 503 17 503 21 507 c 128,-1,17
 25 511 25 511 36 511 c 2,18,-1
 227 511 l 2,19,20
 238 511 238 511 242 507 c 128,-1,21
 246 503 246 503 246 492 c 2,22,-1
 246 449 l 2,23,24
 246 438 246 438 242 434.5 c 128,-1,25
 238 431 238 431 227 431 c 2,26,-1
 185 431 l 1,27,-1
 278 304 l 1,28,-1
 372 431 l 1,29,-1
 330 431 l 2,30,31
 319 431 319 431 315 434.5 c 128,-1,32
 311 438 311 438 311 449 c 2,33,-1
 311 492 l 2,34,35
 311 503 311 503 315 507 c 128,-1,36
 319 511 319 511 330 511 c 2,37,-1
 481 511 l 2,38,39
 492 511 492 511 496 507 c 128,-1,40
 500 503 500 503 500 492 c 2,41,-1
 500 449 l 2,42,43
 500 438 500 438 496 434.5 c 128,-1,44
 492 431 492 431 481 431 c 2,45,-1
 449 431 l 1,46,-1
 329 271 l 1,47,-1
 411 271 l 2,48,49
 422 271 422 271 426 267 c 128,-1,50
 430 263 430 263 430 252 c 2,51,-1
 430 239 l 2,52,53
 430 228 430 228 426 224 c 128,-1,54
 422 220 422 220 411 220 c 2,55,-1
 307 220 l 1,56,-1
 307 176 l 1,57,-1
 411 176 l 2,58,59
 422 176 422 176 426 172 c 128,-1,60
 430 168 430 168 430 157 c 2,61,-1
 430 144 l 2,62,63
 430 133 430 133 426 129 c 128,-1,64
 422 125 422 125 411 125 c 2,65,-1
 307 125 l 1,66,-1
 307 79 l 1,67,-1
 340 79 l 1,68,69
 351 80 351 80 355 76 c 128,-1,70
 359 72 359 72 359 61 c 2,71,-1
 359 19 l 2,72,73
 359 8 359 8 355 4 c 128,-1,74
 351 0 351 0 340 0 c 2,75,-1
 183 0 l 2,76,77
 172 0 172 0 168 4 c 128,-1,78
 164 8 164 8 164 19 c 2,79,-1
 164 61 l 2,80,81
 164 72 164 72 168 76 c 128,-1,82
 172 80 172 80 183 79 c 1,83,-1
 215 79 l 1,84,-1
 215 125 l 1,85,-1
 111 125 l 2,86,87
 100 125 100 125 96 129 c 128,-1,88
 92 133 92 133 92 144 c 2,89,-1
 92 157 l 2,90,91
 92 168 92 168 96 172 c 128,-1,92
 100 176 100 176 111 176 c 2,93,-1
 215 176 l 1,94,-1
 215 220 l 1,0,-1
EndSplineSet
EndChar

StartChar: brokenbar
Encoding: 166 166 104
Width: 257
GlyphClass: 2
Flags: W
LayerCount: 2
Fore
SplineSet
167 214 m 2,0,-1
 167 -82 l 2,1,2
 167 -93 167 -93 163 -97 c 128,-1,3
 159 -101 159 -101 148 -101 c 2,4,-1
 109 -101 l 2,5,6
 98 -101 98 -101 94 -97 c 128,-1,7
 90 -93 90 -93 90 -82 c 2,8,-1
 90 214 l 2,9,10
 90 225 90 225 94 229 c 128,-1,11
 98 233 98 233 109 233 c 2,12,-1
 148 233 l 2,13,14
 159 233 159 233 163 229 c 128,-1,15
 167 225 167 225 167 214 c 2,0,-1
109 745 m 2,16,-1
 148 745 l 2,17,18
 159 745 159 745 163 741 c 128,-1,19
 167 737 167 737 167 726 c 2,20,-1
 167 462 l 2,21,22
 167 451 167 451 163 447 c 128,-1,23
 159 443 159 443 148 443 c 2,24,-1
 109 443 l 2,25,26
 98 443 98 443 94 447 c 128,-1,27
 90 451 90 451 90 462 c 2,28,-1
 90 726 l 2,29,30
 90 737 90 737 94 741 c 128,-1,31
 98 745 98 745 109 745 c 2,16,-1
EndSplineSet
EndChar

StartChar: section
Encoding: 167 167 105
Width: 573
GlyphClass: 2
Flags: W
LayerCount: 2
Fore
SplineSet
270.5 65 m 128,-1,1
 241 117 241 117 188 184.5 c 128,-1,2
 135 252 135 252 113.5 284 c 128,-1,3
 92 316 92 316 73.5 363 c 128,-1,4
 55 410 55 410 55 457 c 0,5,6
 55 559 55 559 122 627 c 128,-1,7
 189 695 189 695 305 695 c 0,8,9
 502 695 502 695 502 539 c 0,10,11
 502 532 502 532 499 528.5 c 128,-1,12
 496 525 496 525 485 525 c 2,13,-1
 435 525 l 2,14,15
 424 525 424 525 420 529 c 128,-1,16
 416 533 416 533 414 544 c 0,17,18
 403 619 403 619 324.5 619 c 128,-1,19
 246 619 246 619 246 560 c 0,20,21
 246 507 246 507 355 375 c 0,22,23
 404 316 404 316 414.5 299 c 128,-1,24
 425 282 425 282 438 261.5 c 128,-1,25
 451 241 451 241 456 229.5 c 128,-1,26
 461 218 461 218 469.5 198.5 c 128,-1,27
 478 179 478 179 481 164 c 0,28,29
 490 121 490 121 490 94 c 0,30,31
 490 -24 490 -24 416.5 -102.5 c 128,-1,32
 343 -181 343 -181 234 -181 c 0,33,34
 156 -181 156 -181 109 -148 c 128,-1,35
 62 -115 62 -115 57 -28 c 0,36,37
 56 -17 56 -17 59.5 -13 c 128,-1,38
 63 -9 63 -9 74 -9 c 2,39,-1
 123 -9 l 2,40,41
 135 -9 135 -9 138.5 -12.5 c 128,-1,42
 142 -16 142 -16 144 -28 c 1,43,44
 150 -105 150 -105 225 -105 c 0,45,46
 257 -105 257 -105 278.5 -87.5 c 128,-1,47
 300 -70 300 -70 300 -28.5 c 128,-1,0
 300 13 300 13 270.5 65 c 128,-1,1
379 -50 m 1,48,49
 404 6 404 6 404 67 c 128,-1,50
 404 128 404 128 377.5 182.5 c 128,-1,51
 351 237 351 237 314 281 c 128,-1,52
 277 325 277 325 241 370 c 0,53,54
 167 461 167 461 167 542 c 0,55,56
 167 554 167 554 169 567 c 1,57,-1
 163 570 l 1,58,59
 144 527 144 527 144 474.5 c 128,-1,60
 144 422 144 422 171 373 c 128,-1,61
 198 324 198 324 235 279 c 128,-1,62
 272 234 272 234 308 186 c 0,63,64
 381 87 381 87 381 -15 c 0,65,66
 381 -32 381 -32 379 -50 c 1,48,49
EndSplineSet
EndChar

StartChar: dieresis
Encoding: 168 168 106
Width: 500
GlyphClass: 2
Flags: W
LayerCount: 2
Fore
SplineSet
373.5 611.5 m 128,-1,1
 356 595 356 595 328.5 595 c 128,-1,2
 301 595 301 595 284 611.5 c 128,-1,3
 267 628 267 628 267 656.5 c 128,-1,4
 267 685 267 685 284 701 c 128,-1,5
 301 717 301 717 329 717 c 0,6,7
 391 717 391 717 391 657 c 0,8,0
 391 628 391 628 373.5 611.5 c 128,-1,1
170.5 611.5 m 128,-1,10
 153 595 153 595 125.5 595 c 128,-1,11
 98 595 98 595 81 611.5 c 128,-1,12
 64 628 64 628 64 656.5 c 128,-1,13
 64 685 64 685 81 701 c 128,-1,14
 98 717 98 717 126 717 c 0,15,16
 188 717 188 717 188 657 c 0,17,9
 188 628 188 628 170.5 611.5 c 128,-1,10
EndSplineSet
EndChar

StartChar: copyright
Encoding: 169 169 107
Width: 880
GlyphClass: 2
Flags: W
LayerCount: 2
Fore
SplineSet
178.5 592.5 m 128,-1,1
 279 693 279 693 437.5 693 c 128,-1,2
 596 693 596 693 699 593.5 c 128,-1,3
 802 494 802 494 802 341 c 128,-1,4
 802 188 802 188 700 88 c 128,-1,5
 598 -12 598 -12 434.5 -12 c 128,-1,6
 271 -12 271 -12 174.5 86 c 128,-1,7
 78 184 78 184 78 338 c 128,-1,0
 78 492 78 492 178.5 592.5 c 128,-1,1
209 110 m 128,-1,9
 297 22 297 22 437.5 22 c 128,-1,10
 578 22 578 22 668.5 108 c 128,-1,11
 759 194 759 194 759 337 c 128,-1,12
 759 480 759 480 667 569 c 128,-1,13
 575 658 575 658 433.5 658 c 128,-1,14
 292 658 292 658 206.5 570 c 128,-1,15
 121 482 121 482 121 340 c 128,-1,8
 121 198 121 198 209 110 c 128,-1,9
449 480 m 0,16,17
 353 480 353 480 353 346 c 0,18,19
 353 280 353 280 373 245.5 c 128,-1,20
 393 211 393 211 443 211 c 0,21,22
 477 211 477 211 495 222.5 c 128,-1,23
 513 234 513 234 517 264 c 0,24,25
 519 275 519 275 523 279 c 128,-1,26
 527 283 527 283 538 283 c 2,27,-1
 561 283 l 2,28,29
 572 283 572 283 576 279 c 128,-1,30
 580 275 580 275 579 264 c 0,31,32
 577 211 577 211 541.5 179 c 128,-1,33
 506 147 506 147 437 147 c 0,34,35
 348 147 348 147 307 201.5 c 128,-1,36
 266 256 266 256 266 343 c 128,-1,37
 266 430 266 430 311.5 487 c 128,-1,38
 357 544 357 544 450 544 c 0,39,40
 513 544 513 544 545.5 512 c 128,-1,41
 578 480 578 480 580 427 c 0,42,43
 580 416 580 416 576 412 c 128,-1,44
 572 408 572 408 561 408 c 2,45,-1
 538 408 l 2,46,47
 527 408 527 408 523 412 c 128,-1,48
 519 416 519 416 517 427 c 0,49,50
 510 480 510 480 449 480 c 0,16,17
EndSplineSet
EndChar

StartChar: ordfeminine
Encoding: 170 170 108
Width: 530
GlyphClass: 2
Flags: W
LayerCount: 2
Fore
SplineSet
308 547 m 1,0,-1
 308 572 l 2,1,2
 308 603 308 603 296.5 619.5 c 128,-1,3
 285 636 285 636 250 636 c 128,-1,4
 215 636 215 636 202 624.5 c 128,-1,5
 189 613 189 613 184 590 c 0,6,7
 181 580 181 580 173 580 c 2,8,-1
 120 580 l 2,9,10
 110 580 110 580 110 590 c 0,11,12
 114 644 114 644 154 670 c 128,-1,13
 194 696 194 696 265.5 696 c 128,-1,14
 337 696 337 696 365.5 665 c 128,-1,15
 394 634 394 634 394 579 c 2,16,-1
 394 393 l 1,17,-1
 424 393 l 2,18,19
 435 393 435 393 435 382 c 2,20,-1
 435 345 l 2,21,22
 435 334 435 334 424 334 c 2,23,-1
 332 334 l 2,24,25
 323 334 323 334 321 345 c 2,26,-1
 316 378 l 1,27,28
 278 325 278 325 205 325 c 0,29,30
 159 325 159 325 129 349 c 128,-1,31
 99 373 99 373 99 426 c 0,32,33
 99 484 99 484 136 508 c 0,34,35
 155 521 155 521 172.5 529 c 128,-1,36
 190 537 190 537 219 540 c 0,37,38
 258 545 258 545 308 547 c 1,0,-1
310 444 m 2,39,-1
 310 497 l 1,40,41
 243 497 243 497 229 491 c 128,-1,42
 215 485 215 485 204 478 c 0,43,44
 184 466 184 466 184 434 c 0,45,46
 184 387 184 387 233 387 c 0,47,48
 270 387 270 387 290 404 c 128,-1,49
 310 421 310 421 310 444 c 2,39,-1
EndSplineSet
EndChar

StartChar: guillemotleft
Encoding: 171 171 109
Width: 493
GlyphClass: 2
Flags: W
LayerCount: 2
Fore
SplineSet
190 492 m 2,0,-1
 248 492 l 2,1,2
 267 492 267 492 259 475 c 2,3,-1
 164 288 l 1,4,-1
 256 101 l 2,5,6
 264 84 264 84 245 84 c 2,7,-1
 185 84 l 2,8,9
 165 84 165 84 158 101 c 1,10,-1
 73 270 l 2,11,12
 70 278 70 278 70 286.5 c 128,-1,13
 70 295 70 295 74 304 c 2,14,-1
 162 475 l 2,15,16
 170 492 170 492 190 492 c 2,0,-1
356 492 m 2,17,-1
 414 492 l 2,18,19
 427 492 427 492 427 484 c 0,20,21
 427 480 427 480 425 475 c 2,22,-1
 330 288 l 1,23,-1
 422 101 l 2,24,25
 430 84 430 84 411 84 c 2,26,-1
 351 84 l 2,27,28
 331 84 331 84 324 101 c 1,29,-1
 239 270 l 2,30,31
 236 278 236 278 236 286.5 c 128,-1,32
 236 295 236 295 240 304 c 2,33,-1
 328 475 l 2,34,35
 336 492 336 492 356 492 c 2,17,-1
EndSplineSet
EndChar

StartChar: logicalnot
Encoding: 172 172 110
Width: 530
GlyphClass: 2
Flags: W
LayerCount: 2
Fore
SplineSet
476 167 m 2,0,-1
 451 167 l 2,1,2
 440 167 440 167 436 171 c 128,-1,3
 432 175 432 175 432 186 c 2,4,-1
 432 285 l 1,5,-1
 54 285 l 2,6,7
 43 285 43 285 39 289 c 128,-1,8
 35 293 35 293 35 304 c 2,9,-1
 35 331 l 2,10,11
 35 342 35 342 39 346 c 128,-1,12
 43 350 43 350 54 350 c 2,13,-1
 476 350 l 2,14,15
 487 350 487 350 491 346 c 128,-1,16
 495 342 495 342 495 331 c 2,17,-1
 495 186 l 2,18,19
 495 175 495 175 491 171 c 128,-1,20
 487 167 487 167 476 167 c 2,0,-1
EndSplineSet
EndChar

StartChar: uni00AD
Encoding: 173 173 111
Width: 282
GlyphClass: 2
Flags: W
LayerCount: 2
Fore
SplineSet
233 218 m 2,0,-1
 49 218 l 2,1,2
 38 218 38 218 34 222 c 128,-1,3
 30 226 30 226 30 237 c 2,4,-1
 30 276 l 2,5,6
 30 287 30 287 34 291 c 128,-1,7
 38 295 38 295 49 295 c 2,8,-1
 233 295 l 2,9,10
 244 295 244 295 248 291 c 128,-1,11
 252 287 252 287 252 276 c 2,12,-1
 252 237 l 2,13,14
 252 226 252 226 248 222 c 128,-1,15
 244 218 244 218 233 218 c 2,0,-1
EndSplineSet
EndChar

StartChar: registered
Encoding: 174 174 112
Width: 498
GlyphClass: 2
Flags: W
LayerCount: 2
Fore
SplineSet
115.5 692 m 128,-1,1
 166 742 166 742 245 742 c 128,-1,2
 324 742 324 742 376 692.5 c 128,-1,3
 428 643 428 643 428 566.5 c 128,-1,4
 428 490 428 490 377 440 c 128,-1,5
 326 390 326 390 244 390 c 128,-1,6
 162 390 162 390 113.5 439 c 128,-1,7
 65 488 65 488 65 565 c 128,-1,0
 65 642 65 642 115.5 692 c 128,-1,1
135.5 455 m 128,-1,9
 178 413 178 413 245.5 413 c 128,-1,10
 313 413 313 413 356.5 454 c 128,-1,11
 400 495 400 495 400 564 c 128,-1,12
 400 633 400 633 356 676 c 128,-1,13
 312 719 312 719 243.5 719 c 128,-1,14
 175 719 175 719 134 677 c 128,-1,15
 93 635 93 635 93 566 c 128,-1,8
 93 497 93 497 135.5 455 c 128,-1,9
232 481 m 2,16,-1
 175 481 l 2,17,18
 167 481 167 481 167 488 c 2,19,-1
 167 495 l 2,20,21
 167 502 167 502 174 502 c 2,22,-1
 186 502 l 1,23,-1
 186 636 l 1,24,-1
 175 636 l 2,25,26
 167 636 167 636 167 644 c 2,27,-1
 167 655 l 2,28,29
 167 663 167 663 176 663 c 2,30,-1
 247 663 l 2,31,32
 310 663 310 663 310 615 c 0,33,34
 310 582 310 582 276 568 c 1,35,-1
 310 502 l 1,36,-1
 328 502 l 2,37,38
 336 502 336 502 336 495 c 2,39,-1
 336 488 l 2,40,41
 336 481 336 481 328 481 c 2,42,-1
 289 481 l 2,43,44
 281 481 281 481 279 487 c 2,45,-1
 243 560 l 1,46,-1
 220 560 l 1,47,-1
 220 502 l 1,48,-1
 232 502 l 2,49,50
 240 502 240 502 240 493 c 2,51,-1
 240 489 l 2,52,53
 240 481 240 481 232 481 c 2,16,-1
237 636 m 2,54,-1
 220 636 l 1,55,-1
 220 584 l 1,56,-1
 236 584 l 2,57,58
 274 584 274 584 274 613 c 0,59,60
 274 636 274 636 237 636 c 2,54,-1
EndSplineSet
EndChar

StartChar: macron
Encoding: 175 175 113
Width: 500
GlyphClass: 2
Flags: W
LayerCount: 2
Fore
SplineSet
380 622 m 2,0,-1
 120 622 l 2,1,2
 109 622 109 622 105 626 c 128,-1,3
 101 630 101 630 101 641 c 2,4,-1
 101 684 l 2,5,6
 101 695 101 695 105 699 c 128,-1,7
 109 703 109 703 120 703 c 2,8,-1
 380 703 l 2,9,10
 391 703 391 703 395 699 c 128,-1,11
 399 695 399 695 399 684 c 2,12,-1
 399 641 l 2,13,14
 399 630 399 630 395 626 c 128,-1,15
 391 622 391 622 380 622 c 2,0,-1
EndSplineSet
EndChar

StartChar: degree
Encoding: 176 176 114
Width: 336
GlyphClass: 2
Flags: W
LayerCount: 2
Fore
SplineSet
168 668 m 128,-1,1
 128 668 128 668 100.5 640.5 c 128,-1,2
 73 613 73 613 73 573 c 128,-1,3
 73 533 73 533 100.5 505.5 c 128,-1,4
 128 478 128 478 168 478 c 128,-1,5
 208 478 208 478 235.5 505.5 c 128,-1,6
 263 533 263 533 263 573 c 128,-1,7
 263 613 263 613 235.5 640.5 c 128,-1,0
 208 668 208 668 168 668 c 128,-1,1
168 435 m 128,-1,9
 111 435 111 435 70.5 475.5 c 128,-1,10
 30 516 30 516 30 573 c 128,-1,11
 30 630 30 630 70.5 670.5 c 128,-1,12
 111 711 111 711 168 711 c 128,-1,13
 225 711 225 711 265.5 670.5 c 128,-1,14
 306 630 306 630 306 573 c 128,-1,15
 306 516 306 516 265.5 475.5 c 128,-1,8
 225 435 225 435 168 435 c 128,-1,9
EndSplineSet
EndChar

StartChar: plusminus
Encoding: 177 177 115
Width: 530
GlyphClass: 2
Flags: W
LayerCount: 2
Fore
SplineSet
54 337 m 2,0,-1
 227 337 l 1,1,-1
 227 510 l 2,2,3
 227 521 227 521 231 525 c 128,-1,4
 235 529 235 529 246 529 c 2,5,-1
 281 529 l 2,6,7
 292 529 292 529 296 525 c 128,-1,8
 300 521 300 521 300 510 c 2,9,-1
 300 337 l 1,10,-1
 476 337 l 2,11,12
 487 337 487 337 491 333 c 128,-1,13
 495 329 495 329 495 318 c 2,14,-1
 495 291 l 2,15,16
 495 280 495 280 491 276 c 128,-1,17
 487 272 487 272 476 272 c 2,18,-1
 300 272 l 1,19,-1
 300 65 l 1,20,-1
 476 65 l 2,21,22
 487 65 487 65 491 61 c 128,-1,23
 495 57 495 57 495 46 c 2,24,-1
 495 19 l 2,25,26
 495 8 495 8 491 4 c 128,-1,27
 487 0 487 0 476 0 c 2,28,-1
 54 0 l 2,29,30
 43 0 43 0 39 4 c 128,-1,31
 35 8 35 8 35 19 c 2,32,-1
 35 46 l 2,33,34
 35 57 35 57 39 61 c 128,-1,35
 43 65 43 65 54 65 c 2,36,-1
 227 65 l 1,37,-1
 227 272 l 1,38,-1
 54 272 l 2,39,40
 43 272 43 272 39 276 c 128,-1,41
 35 280 35 280 35 291 c 2,42,-1
 35 318 l 2,43,44
 35 329 35 329 39 333 c 128,-1,45
 43 337 43 337 54 337 c 2,0,-1
EndSplineSet
EndChar

StartChar: twosuperior
Encoding: 178 178 116
Width: 345
GlyphClass: 2
Flags: W
LayerCount: 2
Fore
SplineSet
161 696 m 0,0,1
 105 696 105 696 97 647 c 0,2,3
 95 635 95 635 90.5 631.5 c 128,-1,4
 86 628 86 628 74 628 c 2,5,-1
 45 628 l 2,6,7
 34 628 34 628 31 631.5 c 128,-1,8
 28 635 28 635 28 642 c 0,9,10
 28 697 28 697 68 728 c 128,-1,11
 108 759 108 759 168 759 c 0,12,13
 306 759 306 759 306 638 c 0,14,15
 306 539 306 539 159 453 c 1,16,-1
 302 453 l 2,17,18
 317 453 317 453 317 438 c 2,19,-1
 317 403 l 2,20,21
 317 388 317 388 302 388 c 2,22,-1
 65 388 l 2,23,24
 54 388 54 388 50 392 c 128,-1,25
 46 396 46 396 46 407 c 2,26,-1
 46 423 l 2,27,28
 46 440 46 440 63 450 c 0,29,30
 134 495 134 495 177.5 539.5 c 128,-1,31
 221 584 221 584 221 635 c 0,32,33
 221 665 221 665 208 680.5 c 128,-1,34
 195 696 195 696 161 696 c 0,0,1
EndSplineSet
EndChar

StartChar: threesuperior
Encoding: 179 179 117
Width: 335
GlyphClass: 2
Flags: W
LayerCount: 2
Fore
SplineSet
155 701 m 0,0,1
 105 701 105 701 96 661 c 0,2,3
 93 649 93 649 88.5 645.5 c 128,-1,4
 84 642 84 642 73 642 c 2,5,-1
 50 642 l 2,6,7
 38 642 38 642 34.5 646 c 128,-1,8
 31 650 31 650 32 661 c 0,9,10
 36 710 36 710 74 734.5 c 128,-1,11
 112 759 112 759 170 759 c 128,-1,12
 228 759 228 759 261.5 733.5 c 128,-1,13
 295 708 295 708 295 662 c 0,14,15
 295 606 295 606 231 575 c 1,16,17
 262 569 262 569 283 547.5 c 128,-1,18
 304 526 304 526 304 489 c 0,19,20
 304 434 304 434 262.5 403 c 128,-1,21
 221 372 221 372 152 372 c 0,22,23
 22 372 22 372 22 476 c 0,24,25
 22 483 22 483 25 486.5 c 128,-1,26
 28 490 28 490 39 490 c 2,27,-1
 74 490 l 2,28,29
 85 490 85 490 89 486 c 128,-1,30
 93 482 93 482 95 471 c 0,31,32
 101 429 101 429 154 429 c 0,33,34
 224 429 224 429 224 485 c 0,35,36
 224 513 224 513 210 525 c 0,37,38
 190 541 190 541 121 541 c 0,39,40
 110 541 110 541 106 545 c 128,-1,41
 102 549 102 549 102 560 c 2,42,-1
 102 580 l 2,43,44
 102 591 102 591 106 595 c 128,-1,45
 110 599 110 599 126 599 c 128,-1,46
 142 599 142 599 164 601 c 0,47,48
 217 606 217 606 217 653.5 c 128,-1,49
 217 701 217 701 155 701 c 0,0,1
EndSplineSet
EndChar

StartChar: acute
Encoding: 180 180 118
Width: 500
GlyphClass: 2
Flags: W
LayerCount: 2
Fore
SplineSet
180 580 m 2,0,1
 165 580 165 580 165 589 c 0,2,3
 165 592 165 592 167 598 c 2,4,-1
 209 714 l 2,5,6
 213 725 213 725 217.5 728.5 c 128,-1,7
 222 732 222 732 234 732 c 2,8,-1
 306 732 l 2,9,10
 320 732 320 732 320 727 c 128,-1,11
 320 722 320 722 316 715 c 2,12,-1
 251 597 l 2,13,14
 246 587 246 587 240.5 583.5 c 128,-1,15
 235 580 235 580 223 580 c 2,16,-1
 180 580 l 2,0,1
EndSplineSet
EndChar

StartChar: mu
Encoding: 181 181 119
Width: 599
GlyphClass: 2
Flags: W
LayerCount: 2
Fore
SplineSet
510 79 m 1,0,-1
 554 79 l 2,1,2
 569 79 569 79 569 64 c 2,3,-1
 569 15 l 2,4,5
 569 0 569 0 554 0 c 2,6,-1
 442 0 l 2,7,8
 430 0 430 0 427 15 c 2,9,-1
 418 71 l 1,10,11
 360 -7 360 -7 264 -7 c 0,12,13
 223 -7 223 -7 193 3 c 1,14,-1
 193 -187 l 2,15,16
 193 -202 193 -202 178 -202 c 2,17,-1
 103 -202 l 2,18,19
 88 -202 88 -202 88 -187 c 2,20,-1
 88 480 l 2,21,22
 88 495 88 495 103 495 c 2,23,-1
 185 495 l 2,24,25
 200 495 200 495 200 480 c 2,26,-1
 200 186 l 2,27,28
 200 126 200 126 215.5 100.5 c 128,-1,29
 231 75 231 75 281.5 75 c 128,-1,30
 332 75 332 75 365 106 c 128,-1,31
 398 137 398 137 398 175 c 2,32,-1
 398 480 l 2,33,34
 398 495 398 495 413 495 c 2,35,-1
 495 495 l 2,36,37
 510 495 510 495 510 480 c 2,38,-1
 510 79 l 1,0,-1
EndSplineSet
EndChar

StartChar: paragraph
Encoding: 182 182 120
Width: 525
GlyphClass: 2
Flags: W
LayerCount: 2
Fore
SplineSet
466 597 m 1,0,-1
 417 597 l 1,1,-1
 417 39 l 2,2,3
 417 -160 417 -160 240 -160 c 0,4,5
 184 -160 184 -160 133 -142 c 0,6,7
 123 -138 123 -138 120.5 -133 c 128,-1,8
 118 -128 118 -128 122 -118 c 2,9,-1
 138 -73 l 2,10,11
 142 -62 142 -62 146.5 -60 c 128,-1,12
 151 -58 151 -58 171.5 -65 c 128,-1,13
 192 -72 192 -72 231 -72 c 128,-1,14
 270 -72 270 -72 289 -44 c 128,-1,15
 308 -16 308 -16 308 48 c 2,16,-1
 308 276 l 1,17,-1
 280 276 l 2,18,19
 175 276 175 276 117.5 327.5 c 128,-1,20
 60 379 60 379 60 477 c 0,21,22
 60 535 60 535 83.5 576 c 128,-1,23
 107 617 107 617 147 638 c 0,24,25
 222 679 222 679 325 679 c 2,26,-1
 466 679 l 2,27,28
 477 679 477 679 481 675 c 128,-1,29
 485 671 485 671 485 660 c 2,30,-1
 485 615 l 2,31,32
 485 604 485 604 481 600 c 128,-1,33
 477 596 477 596 466 597 c 1,0,-1
EndSplineSet
EndChar

StartChar: periodcentered
Encoding: 183 183 121
Width: 253
GlyphClass: 2
Flags: W
LayerCount: 2
Fore
SplineSet
126 279 m 128,-1,1
 91 279 91 279 71 298.5 c 128,-1,2
 51 318 51 318 51 347.5 c 128,-1,3
 51 377 51 377 72 397 c 128,-1,4
 93 417 93 417 126 417 c 128,-1,5
 159 417 159 417 180 398 c 128,-1,6
 201 379 201 379 201 349 c 128,-1,7
 201 319 201 319 181 299 c 128,-1,0
 161 279 161 279 126 279 c 128,-1,1
EndSplineSet
EndChar

StartChar: cedilla
Encoding: 184 184 122
Width: 500
GlyphClass: 2
Flags: W
LayerCount: 2
Fore
SplineSet
240 3 m 1,0,-1
 282 3 l 1,1,-1
 260 -32 l 1,2,-1
 276 -46 l 2,3,4
 314 -79 314 -79 314 -108 c 0,5,6
 314 -149 314 -149 218 -213 c 0,7,8
 213 -216 213 -216 207.5 -216 c 128,-1,9
 202 -216 202 -216 197 -210 c 2,10,-1
 189 -200 l 2,11,12
 185 -195 185 -195 185 -190 c 128,-1,13
 185 -185 185 -185 190 -180 c 0,14,15
 231 -144 231 -144 231 -124 c 128,-1,16
 231 -104 231 -104 209 -87 c 2,17,-1
 200 -80 l 2,18,19
 190 -71 190 -71 197 -59 c 1,20,-1
 240 3 l 1,0,-1
EndSplineSet
EndChar

StartChar: onesuperior
Encoding: 185 185 123
Width: 301
GlyphClass: 2
Flags: W
LayerCount: 2
Fore
SplineSet
73 749 m 2,0,-1
 186 749 l 2,1,2
 197 749 197 749 201 745 c 128,-1,3
 205 741 205 741 205 730 c 2,4,-1
 205 455 l 1,5,-1
 251 455 l 1,6,7
 262 456 262 456 266 452 c 128,-1,8
 270 448 270 448 270 437 c 2,9,-1
 270 407 l 2,10,11
 270 396 270 396 266 392 c 128,-1,12
 262 388 262 388 251 388 c 2,13,-1
 77 388 l 2,14,15
 66 388 66 388 62 392 c 128,-1,16
 58 396 58 396 58 407 c 2,17,-1
 58 437 l 2,18,19
 58 448 58 448 62 452 c 128,-1,20
 66 456 66 456 77 455 c 1,21,-1
 120 455 l 1,22,-1
 120 684 l 1,23,-1
 73 682 l 2,24,25
 62 681 62 681 58 685 c 128,-1,26
 54 689 54 689 54 700 c 2,27,-1
 54 730 l 2,28,29
 54 741 54 741 58 745 c 128,-1,30
 62 749 62 749 73 749 c 2,0,-1
EndSplineSet
EndChar

StartChar: ordmasculine
Encoding: 186 186 124
Width: 532
GlyphClass: 2
Flags: W
LayerCount: 2
Fore
SplineSet
213 686.5 m 128,-1,1
 241 696 241 696 266.5 696 c 128,-1,2
 292 696 292 696 310 694 c 128,-1,3
 328 692 328 692 353 681.5 c 128,-1,4
 378 671 378 671 395 653.5 c 128,-1,5
 412 636 412 636 424 602 c 128,-1,6
 436 568 436 568 436 521 c 0,7,8
 436 427 436 427 386 376.5 c 128,-1,9
 336 326 336 326 259 326 c 128,-1,10
 182 326 182 326 139 371.5 c 128,-1,11
 96 417 96 417 96 506 c 0,12,13
 96 559 96 559 113 598 c 128,-1,14
 130 637 130 637 157.5 657 c 128,-1,0
 185 677 185 677 213 686.5 c 128,-1,1
179 526 m 0,15,16
 179 388 179 388 264.5 388 c 128,-1,17
 350 388 350 388 350 512.5 c 128,-1,18
 350 637 350 637 264 637 c 0,19,20
 221 637 221 637 200 606 c 128,-1,21
 179 575 179 575 179 526 c 0,15,16
EndSplineSet
EndChar

StartChar: guillemotright
Encoding: 187 187 125
Width: 493
GlyphClass: 2
Flags: W
LayerCount: 2
Fore
SplineSet
79 84 m 2,0,1
 65 84 65 84 65 89 c 128,-1,2
 65 94 65 94 69 101 c 2,3,-1
 164 289 l 1,4,-1
 71 475 l 2,5,6
 63 492 63 492 82 492 c 2,7,-1
 142 492 l 2,8,9
 162 492 162 492 169 475 c 1,10,-1
 254 306 l 2,11,12
 257 298 257 298 257 289.5 c 128,-1,13
 257 281 257 281 253 272 c 2,14,-1
 165 101 l 2,15,16
 160 91 160 91 154.5 87.5 c 128,-1,17
 149 84 149 84 137 84 c 2,18,-1
 79 84 l 2,0,1
245 84 m 2,19,20
 231 84 231 84 231 89 c 128,-1,21
 231 94 231 94 235 101 c 2,22,-1
 330 289 l 1,23,-1
 237 475 l 2,24,25
 229 492 229 492 248 492 c 2,26,-1
 308 492 l 2,27,28
 328 492 328 492 335 475 c 1,29,-1
 420 306 l 2,30,31
 423 298 423 298 423 289.5 c 128,-1,32
 423 281 423 281 419 272 c 2,33,-1
 331 101 l 2,34,35
 326 91 326 91 320.5 87.5 c 128,-1,36
 315 84 315 84 303 84 c 2,37,-1
 245 84 l 2,19,20
EndSplineSet
EndChar

StartChar: onequarter
Encoding: 188 188 126
Width: 900
GlyphClass: 2
Flags: W
LayerCount: 2
Fore
SplineSet
118 642 m 2,0,-1
 231 642 l 2,1,2
 242 642 242 642 246 638 c 128,-1,3
 250 634 250 634 250 623 c 2,4,-1
 250 348 l 1,5,-1
 296 348 l 1,6,7
 307 349 307 349 311 345 c 128,-1,8
 315 341 315 341 315 330 c 2,9,-1
 315 300 l 2,10,11
 315 289 315 289 311 285 c 128,-1,12
 307 281 307 281 296 281 c 2,13,-1
 122 281 l 2,14,15
 111 281 111 281 107 285 c 128,-1,16
 103 289 103 289 103 300 c 2,17,-1
 103 330 l 2,18,19
 103 341 103 341 107 345 c 128,-1,20
 111 349 111 349 122 348 c 1,21,-1
 165 348 l 1,22,-1
 165 577 l 1,23,-1
 118 575 l 2,24,25
 107 574 107 574 103 578 c 128,-1,26
 99 582 99 582 99 593 c 2,27,-1
 99 623 l 2,28,29
 99 634 99 634 103 638 c 128,-1,30
 107 642 107 642 118 642 c 2,0,-1
680 662 m 2,31,-1
 360 0 l 2,32,33
 352 -17 352 -17 333 -17 c 2,34,-1
 294 -17 l 2,35,36
 281 -17 281 -17 281 -9 c 0,37,38
 281 -5 281 -5 283 0 c 2,39,-1
 602 662 l 2,40,41
 610 679 610 679 629 679 c 2,42,-1
 669 679 l 2,43,44
 688 679 688 679 680 662 c 2,31,-1
754 0 m 2,45,-1
 704 0 l 2,46,47
 689 0 689 0 689 15 c 2,48,-1
 689 73 l 1,49,-1
 543 73 l 2,50,51
 532 73 532 73 528 77 c 128,-1,52
 524 81 524 81 524 92 c 2,53,-1
 524 111 l 2,54,55
 524 128 524 128 535 145 c 2,56,-1
 672 346 l 2,57,58
 683 361 683 361 702 361 c 2,59,-1
 750 361 l 2,60,61
 761 361 761 361 765 357 c 128,-1,62
 769 353 769 353 769 342 c 2,63,-1
 769 131 l 1,64,-1
 813 131 l 2,65,66
 824 131 824 131 828 127 c 128,-1,67
 832 123 832 123 832 112 c 2,68,-1
 832 92 l 2,69,70
 832 81 832 81 828 77 c 128,-1,71
 824 73 824 73 813 73 c 2,72,-1
 769 73 l 1,73,-1
 769 15 l 2,74,75
 769 0 769 0 754 0 c 2,45,-1
689 281 m 1,76,-1
 587 131 l 1,77,-1
 689 131 l 1,78,-1
 689 281 l 1,76,-1
EndSplineSet
EndChar

StartChar: onehalf
Encoding: 189 189 127
Width: 900
GlyphClass: 2
Flags: W
LayerCount: 2
Fore
SplineSet
118 642 m 2,0,-1
 231 642 l 2,1,2
 242 642 242 642 246 638 c 128,-1,3
 250 634 250 634 250 623 c 2,4,-1
 250 348 l 1,5,-1
 296 348 l 1,6,7
 307 349 307 349 311 345 c 128,-1,8
 315 341 315 341 315 330 c 2,9,-1
 315 300 l 2,10,11
 315 289 315 289 311 285 c 128,-1,12
 307 281 307 281 296 281 c 2,13,-1
 122 281 l 2,14,15
 111 281 111 281 107 285 c 128,-1,16
 103 289 103 289 103 300 c 2,17,-1
 103 330 l 2,18,19
 103 341 103 341 107 345 c 128,-1,20
 111 349 111 349 122 348 c 1,21,-1
 165 348 l 1,22,-1
 165 577 l 1,23,-1
 118 575 l 2,24,25
 107 574 107 574 103 578 c 128,-1,26
 99 582 99 582 99 593 c 2,27,-1
 99 623 l 2,28,29
 99 634 99 634 103 638 c 128,-1,30
 107 642 107 642 118 642 c 2,0,-1
653 662 m 2,31,-1
 333 0 l 2,32,33
 328 -11 328 -11 323 -14 c 128,-1,34
 318 -17 318 -17 306 -17 c 2,35,-1
 267 -17 l 2,36,37
 254 -17 254 -17 254 -9 c 0,38,39
 254 -5 254 -5 256 0 c 2,40,-1
 575 662 l 2,41,42
 580 673 580 673 585 676 c 128,-1,43
 590 679 590 679 602 679 c 2,44,-1
 642 679 l 2,45,46
 661 679 661 679 653 662 c 2,31,-1
671 308 m 0,47,48
 615 308 615 308 607 259 c 0,49,50
 605 247 605 247 600.5 243.5 c 128,-1,51
 596 240 596 240 584 240 c 2,52,-1
 555 240 l 2,53,54
 544 240 544 240 541 243.5 c 128,-1,55
 538 247 538 247 538 254 c 0,56,57
 538 309 538 309 578 340 c 128,-1,58
 618 371 618 371 678 371 c 0,59,60
 816 371 816 371 816 250 c 0,61,62
 816 151 816 151 669 65 c 1,63,-1
 812 65 l 2,64,65
 827 65 827 65 827 50 c 2,66,-1
 827 15 l 2,67,68
 827 0 827 0 812 0 c 2,69,-1
 575 0 l 2,70,71
 564 0 564 0 560 4 c 128,-1,72
 556 8 556 8 556 19 c 2,73,-1
 556 35 l 2,74,75
 556 52 556 52 573 62 c 0,76,77
 644 107 644 107 687.5 151.5 c 128,-1,78
 731 196 731 196 731 247 c 0,79,80
 731 277 731 277 718 292.5 c 128,-1,81
 705 308 705 308 671 308 c 0,47,48
EndSplineSet
EndChar

StartChar: threequarters
Encoding: 190 190 128
Width: 900
GlyphClass: 2
Flags: W
LayerCount: 2
Fore
SplineSet
201 594 m 0,0,1
 151 594 151 594 142 554 c 0,2,3
 139 542 139 542 134.5 538.5 c 128,-1,4
 130 535 130 535 119 535 c 2,5,-1
 96 535 l 2,6,7
 84 535 84 535 80.5 539 c 128,-1,8
 77 543 77 543 78 554 c 0,9,10
 82 603 82 603 120 627.5 c 128,-1,11
 158 652 158 652 216 652 c 128,-1,12
 274 652 274 652 307.5 626.5 c 128,-1,13
 341 601 341 601 341 555 c 0,14,15
 341 499 341 499 277 468 c 1,16,17
 308 462 308 462 329 440.5 c 128,-1,18
 350 419 350 419 350 382 c 0,19,20
 350 327 350 327 308.5 296 c 128,-1,21
 267 265 267 265 198 265 c 0,22,23
 68 265 68 265 68 369 c 0,24,25
 68 376 68 376 71 379.5 c 128,-1,26
 74 383 74 383 85 383 c 2,27,-1
 120 383 l 2,28,29
 131 383 131 383 135 379 c 128,-1,30
 139 375 139 375 141 364 c 0,31,32
 147 322 147 322 200 322 c 0,33,34
 270 322 270 322 270 378 c 0,35,36
 270 406 270 406 256 418 c 0,37,38
 236 434 236 434 167 434 c 0,39,40
 156 434 156 434 152 438 c 128,-1,41
 148 442 148 442 148 453 c 2,42,-1
 148 473 l 2,43,44
 148 484 148 484 152 488 c 128,-1,45
 156 492 156 492 172 492 c 128,-1,46
 188 492 188 492 210 494 c 0,47,48
 263 499 263 499 263 546.5 c 128,-1,49
 263 594 263 594 201 594 c 0,0,1
681 662 m 2,50,-1
 361 0 l 2,51,52
 356 -11 356 -11 351 -14 c 128,-1,53
 346 -17 346 -17 334 -17 c 2,54,-1
 295 -17 l 2,55,56
 282 -17 282 -17 282 -9 c 0,57,58
 282 -5 282 -5 284 0 c 2,59,-1
 603 662 l 2,60,61
 608 673 608 673 613 676 c 128,-1,62
 618 679 618 679 630 679 c 2,63,-1
 670 679 l 2,64,65
 689 679 689 679 681 662 c 2,50,-1
754 0 m 2,66,-1
 704 0 l 2,67,68
 689 0 689 0 689 15 c 2,69,-1
 689 73 l 1,70,-1
 543 73 l 2,71,72
 532 73 532 73 528 77 c 128,-1,73
 524 81 524 81 524 92 c 2,74,-1
 524 111 l 2,75,76
 524 128 524 128 535 145 c 2,77,-1
 672 346 l 2,78,79
 683 361 683 361 702 361 c 2,80,-1
 750 361 l 2,81,82
 761 361 761 361 765 357 c 128,-1,83
 769 353 769 353 769 342 c 2,84,-1
 769 131 l 1,85,-1
 813 131 l 2,86,87
 824 131 824 131 828 127 c 128,-1,88
 832 123 832 123 832 112 c 2,89,-1
 832 92 l 2,90,91
 832 81 832 81 828 77 c 128,-1,92
 824 73 824 73 813 73 c 2,93,-1
 769 73 l 1,94,-1
 769 15 l 2,95,96
 769 0 769 0 754 0 c 2,66,-1
689 281 m 1,97,-1
 587 131 l 1,98,-1
 689 131 l 1,99,-1
 689 281 l 1,97,-1
EndSplineSet
EndChar

StartChar: questiondown
Encoding: 191 191 129
Width: 465
GlyphClass: 2
Flags: W
LayerCount: 2
Fore
SplineSet
239 336 m 2,0,-1
 287 336 l 2,1,2
 298 336 298 336 302 332 c 128,-1,3
 306 328 306 328 306 317 c 2,4,-1
 306 147 l 2,5,6
 306 136 306 136 302.5 131.5 c 128,-1,7
 299 127 299 127 288 124 c 0,8,9
 144 92 144 92 144 -20 c 0,10,11
 144 -125 144 -125 240 -125 c 0,12,13
 327 -125 327 -125 337 -39 c 0,14,15
 339 -28 339 -28 343 -24 c 128,-1,16
 347 -20 347 -20 358 -20 c 2,17,-1
 411 -20 l 2,18,19
 429 -20 429 -20 429 -35 c 0,20,21
 429 -116 429 -116 373 -159 c 128,-1,22
 317 -202 317 -202 228.5 -202 c 128,-1,23
 140 -202 140 -202 87.5 -157.5 c 128,-1,24
 35 -113 35 -113 35 -26 c 128,-1,25
 35 61 35 61 85.5 114 c 128,-1,26
 136 167 136 167 220 189 c 1,27,-1
 220 317 l 2,28,29
 220 328 220 328 224 332 c 128,-1,30
 228 336 228 336 239 336 c 2,0,-1
214.5 493 m 128,-1,32
 232 511 232 511 263.5 511 c 128,-1,33
 295 511 295 511 313.5 493.5 c 128,-1,34
 332 476 332 476 332 449.5 c 128,-1,35
 332 423 332 423 313 405 c 128,-1,36
 294 387 294 387 264 387 c 128,-1,37
 234 387 234 387 215.5 404 c 128,-1,38
 197 421 197 421 197 448 c 128,-1,31
 197 475 197 475 214.5 493 c 128,-1,32
EndSplineSet
EndChar

StartChar: Agrave
Encoding: 192 192 130
Width: 696
GlyphClass: 2
Flags: W
LayerCount: 2
Fore
SplineSet
214 214 m 1,0,-1
 168 79 l 1,1,-1
 228 79 l 2,2,3
 243 79 243 79 243 64 c 2,4,-1
 243 15 l 2,5,6
 243 0 243 0 228 0 c 2,7,-1
 15 0 l 2,8,9
 0 0 0 0 0 15 c 2,10,-1
 0 64 l 2,11,12
 0 79 0 79 15 79 c 2,13,-1
 74 79 l 1,14,-1
 274 665 l 1,15,16
 280 679 280 679 294 679 c 2,17,-1
 391 679 l 2,18,19
 405 679 405 679 411 665 c 1,20,-1
 613 79 l 1,21,-1
 681 79 l 2,22,23
 696 79 696 79 696 64 c 2,24,-1
 696 15 l 2,25,26
 696 0 696 0 681 0 c 2,27,-1
 430 0 l 2,28,29
 415 0 415 0 415 15 c 2,30,-1
 415 64 l 2,31,32
 415 79 415 79 430 79 c 2,33,-1
 492 79 l 1,34,-1
 445 214 l 1,35,-1
 214 214 l 1,0,-1
329 583 m 1,36,-1
 234 289 l 1,37,-1
 423 289 l 1,38,-1
 329 583 l 1,36,-1
342 841 m 2,39,-1
 383 749 l 2,40,41
 385 744 385 744 385 740 c 0,42,43
 385 732 385 732 372 732 c 2,44,-1
 332 732 l 2,45,46
 313 732 313 732 302 747 c 2,47,-1
 237 843 l 2,48,49
 233 848 233 848 233 853 c 128,-1,50
 233 858 233 858 245 858 c 2,51,-1
 315 858 l 2,52,53
 334 858 334 858 342 841 c 2,39,-1
EndSplineSet
EndChar

StartChar: Aacute
Encoding: 193 193 131
Width: 696
GlyphClass: 2
Flags: W
LayerCount: 2
Fore
SplineSet
214 214 m 1,0,-1
 168 79 l 1,1,-1
 228 79 l 2,2,3
 243 79 243 79 243 64 c 2,4,-1
 243 15 l 2,5,6
 243 0 243 0 228 0 c 2,7,-1
 15 0 l 2,8,9
 0 0 0 0 0 15 c 2,10,-1
 0 64 l 2,11,12
 0 79 0 79 15 79 c 2,13,-1
 74 79 l 1,14,-1
 274 665 l 1,15,16
 280 679 280 679 294 679 c 2,17,-1
 391 679 l 2,18,19
 405 679 405 679 411 665 c 1,20,-1
 613 79 l 1,21,-1
 681 79 l 2,22,23
 696 79 696 79 696 64 c 2,24,-1
 696 15 l 2,25,26
 696 0 696 0 681 0 c 2,27,-1
 430 0 l 2,28,29
 415 0 415 0 415 15 c 2,30,-1
 415 64 l 2,31,32
 415 79 415 79 430 79 c 2,33,-1
 492 79 l 1,34,-1
 445 214 l 1,35,-1
 214 214 l 1,0,-1
329 583 m 1,36,-1
 234 289 l 1,37,-1
 423 289 l 1,38,-1
 329 583 l 1,36,-1
312 746 m 2,39,-1
 357 844 l 2,40,41
 363 858 363 858 378 858 c 2,42,-1
 456 858 l 2,43,44
 465 858 465 858 465 854 c 128,-1,45
 465 850 465 850 462 846 c 2,46,-1
 392 744 l 2,47,48
 384 732 384 732 369 732 c 2,49,-1
 321 732 l 2,50,51
 310 732 310 732 310 739 c 0,52,53
 310 742 310 742 312 746 c 2,39,-1
EndSplineSet
EndChar

StartChar: Acircumflex
Encoding: 194 194 132
Width: 696
GlyphClass: 2
Flags: W
LayerCount: 2
Fore
SplineSet
214 214 m 1,0,-1
 168 79 l 1,1,-1
 228 79 l 2,2,3
 243 79 243 79 243 64 c 2,4,-1
 243 15 l 2,5,6
 243 0 243 0 228 0 c 2,7,-1
 15 0 l 2,8,9
 0 0 0 0 0 15 c 2,10,-1
 0 64 l 2,11,12
 0 79 0 79 15 79 c 2,13,-1
 74 79 l 1,14,-1
 274 665 l 1,15,16
 280 679 280 679 294 679 c 2,17,-1
 391 679 l 2,18,19
 405 679 405 679 411 665 c 1,20,-1
 613 79 l 1,21,-1
 681 79 l 2,22,23
 696 79 696 79 696 64 c 2,24,-1
 696 15 l 2,25,26
 696 0 696 0 681 0 c 2,27,-1
 430 0 l 2,28,29
 415 0 415 0 415 15 c 2,30,-1
 415 64 l 2,31,32
 415 79 415 79 430 79 c 2,33,-1
 492 79 l 1,34,-1
 445 214 l 1,35,-1
 214 214 l 1,0,-1
329 583 m 1,36,-1
 234 289 l 1,37,-1
 423 289 l 1,38,-1
 329 583 l 1,36,-1
258 732 m 2,39,-1
 203 732 l 2,40,41
 194 732 194 732 194 736 c 128,-1,42
 194 740 194 740 197 744 c 2,43,-1
 279 851 l 2,44,45
 288 863 288 863 303 863 c 2,46,-1
 379 863 l 2,47,48
 394 863 394 863 403 851 c 2,49,-1
 485 744 l 2,50,51
 488 740 488 740 488 736 c 128,-1,52
 488 732 488 732 479 732 c 2,53,-1
 422 732 l 2,54,55
 406 732 406 732 397 744 c 2,56,-1
 339 815 l 1,57,-1
 282 744 l 2,58,59
 273 732 273 732 258 732 c 2,39,-1
EndSplineSet
EndChar

StartChar: Atilde
Encoding: 195 195 133
Width: 696
GlyphClass: 2
Flags: W
LayerCount: 2
Fore
SplineSet
214 214 m 1,0,-1
 168 79 l 1,1,-1
 228 79 l 2,2,3
 243 79 243 79 243 64 c 2,4,-1
 243 15 l 2,5,6
 243 0 243 0 228 0 c 2,7,-1
 15 0 l 2,8,9
 0 0 0 0 0 15 c 2,10,-1
 0 64 l 2,11,12
 0 79 0 79 15 79 c 2,13,-1
 74 79 l 1,14,-1
 274 665 l 1,15,16
 280 679 280 679 294 679 c 2,17,-1
 391 679 l 2,18,19
 405 679 405 679 411 665 c 1,20,-1
 613 79 l 1,21,-1
 681 79 l 2,22,23
 696 79 696 79 696 64 c 2,24,-1
 696 15 l 2,25,26
 696 0 696 0 681 0 c 2,27,-1
 430 0 l 2,28,29
 415 0 415 0 415 15 c 2,30,-1
 415 64 l 2,31,32
 415 79 415 79 430 79 c 2,33,-1
 492 79 l 1,34,-1
 445 214 l 1,35,-1
 214 214 l 1,0,-1
329 583 m 1,36,-1
 234 289 l 1,37,-1
 423 289 l 1,38,-1
 329 583 l 1,36,-1
200 837.5 m 128,-1,40
 222 858 222 858 250 858 c 128,-1,41
 278 858 278 858 344 837.5 c 128,-1,42
 410 817 410 817 433 817 c 0,43,44
 467 817 467 817 467 844 c 0,45,46
 467 857 467 857 482 857 c 2,47,-1
 506 857 l 2,48,49
 518 857 518 857 518 843 c 0,50,51
 518 793 518 793 496.5 768.5 c 128,-1,52
 475 744 475 744 442.5 744 c 128,-1,53
 410 744 410 744 344 763 c 128,-1,54
 278 782 278 782 263 782 c 0,55,56
 233 782 233 782 233 760 c 0,57,58
 233 753 233 753 231 751.5 c 128,-1,59
 229 750 229 750 221 750 c 2,60,-1
 190 750 l 2,61,62
 178 750 178 750 178 764 c 0,63,39
 178 817 178 817 200 837.5 c 128,-1,40
EndSplineSet
EndChar

StartChar: Adieresis
Encoding: 196 196 134
Width: 696
GlyphClass: 2
Flags: W
LayerCount: 2
Fore
SplineSet
214 214 m 1,0,-1
 168 79 l 1,1,-1
 228 79 l 2,2,3
 243 79 243 79 243 64 c 2,4,-1
 243 15 l 2,5,6
 243 0 243 0 228 0 c 2,7,-1
 15 0 l 2,8,9
 0 0 0 0 0 15 c 2,10,-1
 0 64 l 2,11,12
 0 79 0 79 15 79 c 2,13,-1
 74 79 l 1,14,-1
 274 665 l 1,15,16
 280 679 280 679 294 679 c 2,17,-1
 391 679 l 2,18,19
 405 679 405 679 411 665 c 1,20,-1
 613 79 l 1,21,-1
 681 79 l 2,22,23
 696 79 696 79 696 64 c 2,24,-1
 696 15 l 2,25,26
 696 0 696 0 681 0 c 2,27,-1
 430 0 l 2,28,29
 415 0 415 0 415 15 c 2,30,-1
 415 64 l 2,31,32
 415 79 415 79 430 79 c 2,33,-1
 492 79 l 1,34,-1
 445 214 l 1,35,-1
 214 214 l 1,0,-1
329 583 m 1,36,-1
 234 289 l 1,37,-1
 423 289 l 1,38,-1
 329 583 l 1,36,-1
493.5 754.5 m 128,-1,40
 476 738 476 738 448.5 738 c 128,-1,41
 421 738 421 738 404 754.5 c 128,-1,42
 387 771 387 771 387 799.5 c 128,-1,43
 387 828 387 828 404 844 c 128,-1,44
 421 860 421 860 449 860 c 0,45,46
 511 860 511 860 511 800 c 0,47,39
 511 771 511 771 493.5 754.5 c 128,-1,40
290.5 754.5 m 128,-1,49
 273 738 273 738 245.5 738 c 128,-1,50
 218 738 218 738 201 754.5 c 128,-1,51
 184 771 184 771 184 799.5 c 128,-1,52
 184 828 184 828 201 844 c 128,-1,53
 218 860 218 860 246 860 c 0,54,55
 308 860 308 860 308 800 c 0,56,48
 308 771 308 771 290.5 754.5 c 128,-1,49
EndSplineSet
EndChar

StartChar: Aring
Encoding: 197 197 135
Width: 696
GlyphClass: 2
Flags: W
LayerCount: 2
Fore
SplineSet
214 214 m 1,0,-1
 168 79 l 1,1,-1
 228 79 l 2,2,3
 243 79 243 79 243 64 c 2,4,-1
 243 15 l 2,5,6
 243 0 243 0 228 0 c 2,7,-1
 15 0 l 2,8,9
 0 0 0 0 0 15 c 2,10,-1
 0 64 l 2,11,12
 0 79 0 79 15 79 c 2,13,-1
 74 79 l 1,14,-1
 274 665 l 1,15,16
 280 679 280 679 294 679 c 2,17,-1
 391 679 l 2,18,19
 405 679 405 679 411 665 c 1,20,-1
 613 79 l 1,21,-1
 681 79 l 2,22,23
 696 79 696 79 696 64 c 2,24,-1
 696 15 l 2,25,26
 696 0 696 0 681 0 c 2,27,-1
 430 0 l 2,28,29
 415 0 415 0 415 15 c 2,30,-1
 415 64 l 2,31,32
 415 79 415 79 430 79 c 2,33,-1
 492 79 l 1,34,-1
 445 214 l 1,35,-1
 214 214 l 1,0,-1
329 583 m 1,36,-1
 234 289 l 1,37,-1
 423 289 l 1,38,-1
 329 583 l 1,36,-1
415 735 m 128,-1,40
 387 705 387 705 341.5 705 c 128,-1,41
 296 705 296 705 270 734 c 128,-1,42
 244 763 244 763 244 805.5 c 128,-1,43
 244 848 244 848 272.5 877 c 128,-1,44
 301 906 301 906 345 906 c 128,-1,45
 389 906 389 906 416 878 c 128,-1,46
 443 850 443 850 443 807.5 c 128,-1,39
 443 765 443 765 415 735 c 128,-1,40
344 854 m 0,47,48
 302 854 302 854 302 806 c 0,49,50
 302 785 302 785 313 771 c 128,-1,51
 324 757 324 757 344 757 c 128,-1,52
 364 757 364 757 375.5 771 c 128,-1,53
 387 785 387 785 387 806.5 c 128,-1,54
 387 828 387 828 375.5 841 c 128,-1,55
 364 854 364 854 344 854 c 0,47,48
EndSplineSet
EndChar

StartChar: AE
Encoding: 198 198 136
Width: 879
GlyphClass: 2
Flags: W
LayerCount: 2
Fore
SplineSet
437 214 m 1,0,-1
 239 214 l 1,1,-1
 168 79 l 1,2,-1
 220 79 l 1,3,4
 231 80 231 80 235 76 c 128,-1,5
 239 72 239 72 239 61 c 2,6,-1
 239 19 l 2,7,8
 239 8 239 8 235 4 c 128,-1,9
 231 0 231 0 220 0 c 2,10,-1
 19 0 l 2,11,12
 8 0 8 0 4 4 c 128,-1,13
 0 8 0 8 0 19 c 2,14,-1
 0 61 l 2,15,16
 0 72 0 72 4 76 c 128,-1,17
 8 80 8 80 19 79 c 1,18,-1
 67 79 l 1,19,-1
 344 599 l 1,20,-1
 296 599 l 1,21,22
 285 598 285 598 281 602 c 128,-1,23
 277 606 277 606 277 617 c 2,24,-1
 277 660 l 2,25,26
 277 671 277 671 281 675 c 128,-1,27
 285 679 285 679 296 679 c 2,28,-1
 820 679 l 2,29,30
 831 679 831 679 835 675 c 128,-1,31
 839 671 839 671 839 660 c 2,32,-1
 839 534 l 2,33,34
 839 523 839 523 835 519 c 128,-1,35
 831 515 831 515 820 515 c 2,36,-1
 772 515 l 2,37,38
 761 515 761 515 757 519 c 128,-1,39
 753 523 753 523 754 534 c 2,40,-1
 758 599 l 1,41,-1
 549 599 l 1,42,-1
 549 386 l 1,43,-1
 698 386 l 1,44,-1
 694 433 l 2,45,46
 693 444 693 444 697 448 c 128,-1,47
 701 452 701 452 712 452 c 2,48,-1
 760 452 l 2,49,50
 771 452 771 452 775 448 c 128,-1,51
 779 444 779 444 779 433 c 2,52,-1
 779 264 l 2,53,54
 779 253 779 253 775 249 c 128,-1,55
 771 245 771 245 760 245 c 2,56,-1
 712 245 l 2,57,58
 701 245 701 245 697 249 c 128,-1,59
 693 253 693 253 694 264 c 2,60,-1
 697 308 l 1,61,-1
 549 308 l 1,62,-1
 549 79 l 1,63,-1
 778 79 l 1,64,-1
 774 145 l 2,65,66
 773 156 773 156 777 160 c 128,-1,67
 781 164 781 164 792 164 c 2,68,-1
 840 164 l 2,69,70
 851 164 851 164 855 160 c 128,-1,71
 859 156 859 156 859 145 c 2,72,-1
 859 19 l 2,73,74
 859 8 859 8 855 4 c 128,-1,75
 851 0 851 0 840 0 c 2,76,-1
 388 0 l 2,77,78
 377 0 377 0 373 4 c 128,-1,79
 369 8 369 8 369 19 c 2,80,-1
 369 61 l 2,81,82
 369 72 369 72 373 76 c 128,-1,83
 377 80 377 80 388 79 c 1,84,-1
 437 79 l 1,85,-1
 437 214 l 1,0,-1
437 289 m 1,86,-1
 437 599 l 1,87,-1
 273 289 l 1,88,-1
 437 289 l 1,86,-1
EndSplineSet
EndChar

StartChar: Ccedilla
Encoding: 199 199 137
Width: 629
GlyphClass: 2
Flags: W
LayerCount: 2
Fore
SplineSet
43 336 m 0,0,1
 43 432 43 432 71.5 505 c 128,-1,2
 100 578 100 578 147 618 c 0,3,4
 239 696 239 696 355.5 696 c 128,-1,5
 472 696 472 696 565 645 c 0,6,7
 578 638 578 638 578 625 c 2,8,-1
 578 496 l 2,9,10
 578 481 578 481 563 481 c 2,11,-1
 507 481 l 2,12,13
 492 481 492 481 493 496 c 2,14,-1
 496 566 l 1,15,16
 434 608 434 608 355 608 c 0,17,18
 163 608 163 608 163 352 c 0,19,20
 163 272 163 272 182 212.5 c 128,-1,21
 201 153 201 153 249 114 c 128,-1,22
 297 75 297 75 377 75 c 128,-1,23
 457 75 457 75 497 107 c 1,24,-1
 493 177 l 2,25,26
 492 192 492 192 507 192 c 2,27,-1
 564 192 l 2,28,29
 579 192 579 192 579 177 c 2,30,-1
 579 50 l 2,31,32
 579 36 579 36 569 31 c 0,33,34
 491 -7 491 -7 392 -11 c 1,35,-1
 379 -32 l 1,36,-1
 395 -46 l 2,37,38
 433 -79 433 -79 433 -108 c 0,39,40
 433 -149 433 -149 337 -213 c 0,41,42
 332 -216 332 -216 326.5 -216 c 128,-1,43
 321 -216 321 -216 316 -210 c 2,44,-1
 308 -200 l 2,45,46
 299 -189 299 -189 309 -180 c 0,47,48
 350 -144 350 -144 350 -124 c 128,-1,49
 350 -104 350 -104 328 -87 c 2,50,-1
 319 -80 l 2,51,52
 308 -71 308 -71 316 -59 c 2,53,-1
 349 -11 l 1,54,55
 194 -6 194 -6 118.5 86.5 c 128,-1,56
 43 179 43 179 43 336 c 0,0,1
EndSplineSet
EndChar

StartChar: Egrave
Encoding: 200 200 138
Width: 555
GlyphClass: 2
Flags: W
LayerCount: 2
Fore
SplineSet
220 599 m 1,0,-1
 220 386 l 1,1,-1
 369 386 l 1,2,-1
 365 437 l 2,3,4
 364 452 364 452 379 452 c 2,5,-1
 435 452 l 2,6,7
 450 452 450 452 450 437 c 2,8,-1
 450 260 l 2,9,10
 450 245 450 245 435 245 c 2,11,-1
 379 245 l 2,12,13
 364 245 364 245 365 260 c 2,14,-1
 368 308 l 1,15,-1
 220 308 l 1,16,-1
 220 78 l 1,17,-1
 449 78 l 1,18,-1
 445 149 l 2,19,20
 444 164 444 164 459 164 c 2,21,-1
 515 164 l 2,22,23
 530 164 530 164 530 149 c 2,24,-1
 530 15 l 2,25,26
 530 0 530 0 515 0 c 2,27,-1
 55 0 l 2,28,29
 40 0 40 0 40 15 c 2,30,-1
 40 64 l 2,31,32
 40 79 40 79 55 79 c 2,33,-1
 108 79 l 1,34,-1
 108 598 l 1,35,-1
 55 598 l 2,36,37
 40 598 40 598 40 613 c 2,38,-1
 40 664 l 2,39,40
 40 679 40 679 55 679 c 2,41,-1
 495 679 l 2,42,43
 510 679 510 679 510 664 c 2,44,-1
 510 530 l 2,45,46
 510 515 510 515 495 515 c 2,47,-1
 439 515 l 2,48,49
 424 515 424 515 425 530 c 2,50,-1
 429 599 l 1,51,-1
 220 599 l 1,0,-1
293 841 m 2,52,-1
 334 749 l 2,53,54
 336 744 336 744 336 740 c 0,55,56
 336 732 336 732 323 732 c 2,57,-1
 283 732 l 2,58,59
 264 732 264 732 253 747 c 2,60,-1
 188 843 l 2,61,62
 184 848 184 848 184 853 c 128,-1,63
 184 858 184 858 196 858 c 2,64,-1
 266 858 l 2,65,66
 278 858 278 858 283 855 c 128,-1,67
 288 852 288 852 293 841 c 2,52,-1
EndSplineSet
EndChar

StartChar: Eacute
Encoding: 201 201 139
Width: 555
GlyphClass: 2
Flags: W
LayerCount: 2
Fore
SplineSet
220 599 m 1,0,-1
 220 386 l 1,1,-1
 369 386 l 1,2,-1
 365 437 l 2,3,4
 364 452 364 452 379 452 c 2,5,-1
 435 452 l 2,6,7
 450 452 450 452 450 437 c 2,8,-1
 450 260 l 2,9,10
 450 245 450 245 435 245 c 2,11,-1
 379 245 l 2,12,13
 364 245 364 245 365 260 c 2,14,-1
 368 308 l 1,15,-1
 220 308 l 1,16,-1
 220 78 l 1,17,-1
 449 78 l 1,18,-1
 445 149 l 2,19,20
 444 164 444 164 459 164 c 2,21,-1
 515 164 l 2,22,23
 530 164 530 164 530 149 c 2,24,-1
 530 15 l 2,25,26
 530 0 530 0 515 0 c 2,27,-1
 55 0 l 2,28,29
 40 0 40 0 40 15 c 2,30,-1
 40 64 l 2,31,32
 40 79 40 79 55 79 c 2,33,-1
 108 79 l 1,34,-1
 108 598 l 1,35,-1
 55 598 l 2,36,37
 40 598 40 598 40 613 c 2,38,-1
 40 664 l 2,39,40
 40 679 40 679 55 679 c 2,41,-1
 495 679 l 2,42,43
 510 679 510 679 510 664 c 2,44,-1
 510 530 l 2,45,46
 510 515 510 515 495 515 c 2,47,-1
 439 515 l 2,48,49
 424 515 424 515 425 530 c 2,50,-1
 429 599 l 1,51,-1
 220 599 l 1,0,-1
271 746 m 2,52,-1
 316 844 l 2,53,54
 322 858 322 858 337 858 c 2,55,-1
 415 858 l 2,56,57
 424 858 424 858 424 854 c 128,-1,58
 424 850 424 850 421 846 c 2,59,-1
 351 744 l 1,60,61
 344 732 344 732 328 732 c 2,62,-1
 280 732 l 2,63,64
 269 732 269 732 269 739 c 0,65,66
 269 742 269 742 271 746 c 2,52,-1
EndSplineSet
EndChar

StartChar: Ecircumflex
Encoding: 202 202 140
Width: 555
GlyphClass: 2
Flags: W
LayerCount: 2
Fore
SplineSet
220 599 m 1,0,-1
 220 386 l 1,1,-1
 369 386 l 1,2,-1
 365 437 l 2,3,4
 364 452 364 452 379 452 c 2,5,-1
 435 452 l 2,6,7
 450 452 450 452 450 437 c 2,8,-1
 450 260 l 2,9,10
 450 245 450 245 435 245 c 2,11,-1
 379 245 l 2,12,13
 364 245 364 245 365 260 c 2,14,-1
 368 308 l 1,15,-1
 220 308 l 1,16,-1
 220 78 l 1,17,-1
 449 78 l 1,18,-1
 445 149 l 2,19,20
 444 164 444 164 459 164 c 2,21,-1
 515 164 l 2,22,23
 530 164 530 164 530 149 c 2,24,-1
 530 15 l 2,25,26
 530 0 530 0 515 0 c 2,27,-1
 55 0 l 2,28,29
 40 0 40 0 40 15 c 2,30,-1
 40 64 l 2,31,32
 40 79 40 79 55 79 c 2,33,-1
 108 79 l 1,34,-1
 108 598 l 1,35,-1
 55 598 l 2,36,37
 40 598 40 598 40 613 c 2,38,-1
 40 664 l 2,39,40
 40 679 40 679 55 679 c 2,41,-1
 495 679 l 2,42,43
 510 679 510 679 510 664 c 2,44,-1
 510 530 l 2,45,46
 510 515 510 515 495 515 c 2,47,-1
 439 515 l 2,48,49
 424 515 424 515 425 530 c 2,50,-1
 429 599 l 1,51,-1
 220 599 l 1,0,-1
205 732 m 2,52,-1
 150 732 l 2,53,54
 141 732 141 732 141 736 c 128,-1,55
 141 740 141 740 144 744 c 2,56,-1
 226 851 l 2,57,58
 235 863 235 863 250 863 c 2,59,-1
 326 863 l 2,60,61
 341 863 341 863 350 851 c 2,62,-1
 432 744 l 2,63,64
 435 740 435 740 435 736 c 128,-1,65
 435 732 435 732 426 732 c 2,66,-1
 369 732 l 2,67,68
 353 732 353 732 344 744 c 2,69,-1
 286 815 l 1,70,-1
 229 744 l 2,71,72
 220 732 220 732 205 732 c 2,52,-1
EndSplineSet
EndChar

StartChar: Edieresis
Encoding: 203 203 141
Width: 555
GlyphClass: 2
Flags: W
LayerCount: 2
Fore
SplineSet
220 599 m 1,0,-1
 220 386 l 1,1,-1
 369 386 l 1,2,-1
 365 437 l 2,3,4
 364 452 364 452 379 452 c 2,5,-1
 435 452 l 2,6,7
 450 452 450 452 450 437 c 2,8,-1
 450 260 l 2,9,10
 450 245 450 245 435 245 c 2,11,-1
 379 245 l 2,12,13
 364 245 364 245 365 260 c 2,14,-1
 368 308 l 1,15,-1
 220 308 l 1,16,-1
 220 78 l 1,17,-1
 449 78 l 1,18,-1
 445 149 l 2,19,20
 444 164 444 164 459 164 c 2,21,-1
 515 164 l 2,22,23
 530 164 530 164 530 149 c 2,24,-1
 530 15 l 2,25,26
 530 0 530 0 515 0 c 2,27,-1
 55 0 l 2,28,29
 40 0 40 0 40 15 c 2,30,-1
 40 64 l 2,31,32
 40 79 40 79 55 79 c 2,33,-1
 108 79 l 1,34,-1
 108 598 l 1,35,-1
 55 598 l 2,36,37
 40 598 40 598 40 613 c 2,38,-1
 40 664 l 2,39,40
 40 679 40 679 55 679 c 2,41,-1
 495 679 l 2,42,43
 510 679 510 679 510 664 c 2,44,-1
 510 530 l 2,45,46
 510 515 510 515 495 515 c 2,47,-1
 439 515 l 2,48,49
 424 515 424 515 425 530 c 2,50,-1
 429 599 l 1,51,-1
 220 599 l 1,0,-1
436.5 754.5 m 128,-1,53
 419 738 419 738 391.5 738 c 128,-1,54
 364 738 364 738 347 754.5 c 128,-1,55
 330 771 330 771 330 799.5 c 128,-1,56
 330 828 330 828 347 844 c 128,-1,57
 364 860 364 860 392 860 c 0,58,59
 454 860 454 860 454 800 c 0,60,52
 454 771 454 771 436.5 754.5 c 128,-1,53
233.5 754.5 m 128,-1,62
 216 738 216 738 188.5 738 c 128,-1,63
 161 738 161 738 144 754.5 c 128,-1,64
 127 771 127 771 127 799.5 c 128,-1,65
 127 828 127 828 144 844 c 128,-1,66
 161 860 161 860 189 860 c 0,67,68
 251 860 251 860 251 800 c 0,69,61
 251 771 251 771 233.5 754.5 c 128,-1,62
EndSplineSet
EndChar

StartChar: Igrave
Encoding: 204 204 142
Width: 328
GlyphClass: 2
Flags: W
LayerCount: 2
Fore
SplineSet
220 598 m 1,0,-1
 220 79 l 1,1,-1
 273 79 l 2,2,3
 288 79 288 79 288 64 c 2,4,-1
 288 15 l 2,5,6
 288 0 288 0 273 0 c 2,7,-1
 55 0 l 2,8,9
 40 0 40 0 40 15 c 2,10,-1
 40 64 l 2,11,12
 40 79 40 79 55 79 c 2,13,-1
 108 79 l 1,14,-1
 108 598 l 1,15,-1
 55 598 l 2,16,17
 40 598 40 598 40 613 c 2,18,-1
 40 664 l 2,19,20
 40 679 40 679 55 679 c 2,21,-1
 273 679 l 2,22,23
 288 679 288 679 288 664 c 2,24,-1
 288 613 l 2,25,26
 288 598 288 598 273 598 c 2,27,-1
 220 598 l 1,0,-1
161 841 m 2,28,-1
 202 749 l 2,29,30
 204 744 204 744 204 740 c 0,31,32
 204 732 204 732 191 732 c 2,33,-1
 151 732 l 2,34,35
 132 732 132 732 121 747 c 2,36,-1
 56 843 l 2,37,38
 52 848 52 848 52 853 c 128,-1,39
 52 858 52 858 64 858 c 2,40,-1
 134 858 l 2,41,42
 146 858 146 858 151 855 c 128,-1,43
 156 852 156 852 161 841 c 2,28,-1
EndSplineSet
EndChar

StartChar: Iacute
Encoding: 205 205 143
Width: 328
GlyphClass: 2
Flags: W
LayerCount: 2
Fore
SplineSet
220 598 m 1,0,-1
 220 79 l 1,1,-1
 273 79 l 2,2,3
 288 79 288 79 288 64 c 2,4,-1
 288 15 l 2,5,6
 288 0 288 0 273 0 c 2,7,-1
 55 0 l 2,8,9
 40 0 40 0 40 15 c 2,10,-1
 40 64 l 2,11,12
 40 79 40 79 55 79 c 2,13,-1
 108 79 l 1,14,-1
 108 598 l 1,15,-1
 55 598 l 2,16,17
 40 598 40 598 40 613 c 2,18,-1
 40 664 l 2,19,20
 40 679 40 679 55 679 c 2,21,-1
 273 679 l 2,22,23
 288 679 288 679 288 664 c 2,24,-1
 288 613 l 2,25,26
 288 598 288 598 273 598 c 2,27,-1
 220 598 l 1,0,-1
116 746 m 2,28,-1
 161 844 l 2,29,30
 167 858 167 858 182 858 c 2,31,-1
 260 858 l 2,32,33
 269 858 269 858 269 854 c 128,-1,34
 269 850 269 850 266 846 c 2,35,-1
 196 744 l 2,36,37
 188 732 188 732 173 732 c 2,38,-1
 125 732 l 2,39,40
 114 732 114 732 114 739 c 0,41,42
 114 742 114 742 116 746 c 2,28,-1
EndSplineSet
EndChar

StartChar: Icircumflex
Encoding: 206 206 144
Width: 328
GlyphClass: 2
Flags: W
LayerCount: 2
Fore
SplineSet
220 598 m 1,0,-1
 220 79 l 1,1,-1
 273 79 l 2,2,3
 288 79 288 79 288 64 c 2,4,-1
 288 15 l 2,5,6
 288 0 288 0 273 0 c 2,7,-1
 55 0 l 2,8,9
 40 0 40 0 40 15 c 2,10,-1
 40 64 l 2,11,12
 40 79 40 79 55 79 c 2,13,-1
 108 79 l 1,14,-1
 108 598 l 1,15,-1
 55 598 l 2,16,17
 40 598 40 598 40 613 c 2,18,-1
 40 664 l 2,19,20
 40 679 40 679 55 679 c 2,21,-1
 273 679 l 2,22,23
 288 679 288 679 288 664 c 2,24,-1
 288 613 l 2,25,26
 288 598 288 598 273 598 c 2,27,-1
 220 598 l 1,0,-1
81 732 m 2,28,-1
 26 732 l 2,29,30
 17 732 17 732 17 736 c 128,-1,31
 17 740 17 740 20 744 c 2,32,-1
 102 851 l 2,33,34
 111 863 111 863 126 863 c 2,35,-1
 202 863 l 2,36,37
 217 863 217 863 226 851 c 2,38,-1
 308 744 l 2,39,40
 311 740 311 740 311 736 c 128,-1,41
 311 732 311 732 302 732 c 2,42,-1
 245 732 l 2,43,44
 229 732 229 732 220 744 c 2,45,-1
 162 815 l 1,46,-1
 105 744 l 2,47,48
 96 732 96 732 81 732 c 2,28,-1
EndSplineSet
EndChar

StartChar: Idieresis
Encoding: 207 207 145
Width: 328
GlyphClass: 2
Flags: W
LayerCount: 2
Fore
SplineSet
220 598 m 1,0,-1
 220 79 l 1,1,-1
 273 79 l 2,2,3
 288 79 288 79 288 64 c 2,4,-1
 288 15 l 2,5,6
 288 0 288 0 273 0 c 2,7,-1
 55 0 l 2,8,9
 40 0 40 0 40 15 c 2,10,-1
 40 64 l 2,11,12
 40 79 40 79 55 79 c 2,13,-1
 108 79 l 1,14,-1
 108 598 l 1,15,-1
 55 598 l 2,16,17
 40 598 40 598 40 613 c 2,18,-1
 40 664 l 2,19,20
 40 679 40 679 55 679 c 2,21,-1
 273 679 l 2,22,23
 288 679 288 679 288 664 c 2,24,-1
 288 613 l 2,25,26
 288 598 288 598 273 598 c 2,27,-1
 220 598 l 1,0,-1
309.5 754.5 m 128,-1,29
 292 738 292 738 264.5 738 c 128,-1,30
 237 738 237 738 220 754.5 c 128,-1,31
 203 771 203 771 203 799.5 c 128,-1,32
 203 828 203 828 220 844 c 128,-1,33
 237 860 237 860 265 860 c 0,34,35
 327 860 327 860 327 800 c 0,36,28
 327 771 327 771 309.5 754.5 c 128,-1,29
106.5 754.5 m 128,-1,38
 89 738 89 738 61.5 738 c 128,-1,39
 34 738 34 738 17 754.5 c 128,-1,40
 0 771 0 771 0 799.5 c 128,-1,41
 0 828 0 828 17 844 c 128,-1,42
 34 860 34 860 62 860 c 0,43,44
 124 860 124 860 124 800 c 0,45,37
 124 771 124 771 106.5 754.5 c 128,-1,38
EndSplineSet
EndChar

StartChar: Eth
Encoding: 208 208 146
Width: 692
GlyphClass: 2
Flags: W
LayerCount: 2
Fore
SplineSet
68 679 m 0,0,1
 196 685 196 685 258 685 c 128,-1,2
 320 685 320 685 350.5 682.5 c 128,-1,3
 381 680 381 680 420 672 c 128,-1,4
 459 664 459 664 489.5 650.5 c 128,-1,5
 520 637 520 637 551 612 c 128,-1,6
 582 587 582 587 602 554 c 0,7,8
 649 478 649 478 649 358 c 0,9,10
 649 177 649 177 549 88.5 c 128,-1,11
 449 0 449 0 276 0 c 2,12,-1
 68 0 l 2,13,14
 53 0 53 0 53 15 c 2,15,-1
 53 64 l 2,16,17
 53 79 53 79 68 79 c 2,18,-1
 120 79 l 1,19,-1
 120 314 l 1,20,-1
 72 314 l 2,21,22
 61 314 61 314 57 318 c 128,-1,23
 53 322 53 322 53 333 c 2,24,-1
 53 348 l 2,25,26
 53 359 53 359 57 363 c 128,-1,27
 61 367 61 367 72 367 c 2,28,-1
 120 367 l 1,29,-1
 120 598 l 1,30,-1
 68 598 l 2,31,32
 53 598 53 598 53 613 c 2,33,-1
 53 664 l 2,34,35
 53 679 53 679 68 679 c 0,0,1
468.5 150 m 128,-1,37
 529 222 529 222 529 347 c 128,-1,38
 529 472 529 472 472.5 537 c 128,-1,39
 416 602 416 602 296 602 c 2,40,-1
 232 602 l 1,41,-1
 232 367 l 1,42,-1
 382 367 l 2,43,44
 393 367 393 367 397 363 c 128,-1,45
 401 359 401 359 401 348 c 2,46,-1
 401 333 l 2,47,48
 401 322 401 322 397 318 c 128,-1,49
 393 314 393 314 382 314 c 2,50,-1
 232 314 l 1,51,-1
 232 78 l 1,52,-1
 298 78 l 2,53,36
 408 78 408 78 468.5 150 c 128,-1,37
EndSplineSet
EndChar

StartChar: Ntilde
Encoding: 209 209 147
Width: 743
GlyphClass: 2
Flags: W
LayerCount: 2
Fore
SplineSet
645 598 m 1,0,-1
 645 15 l 2,1,2
 645 0 645 0 630 0 c 2,3,-1
 557 0 l 2,4,5
 542 0 542 0 534 12 c 2,6,-1
 195 513 l 1,7,-1
 195 79 l 1,8,-1
 278 79 l 2,9,10
 293 79 293 79 293 64 c 2,11,-1
 293 15 l 2,12,13
 293 0 293 0 278 0 c 2,14,-1
 55 0 l 2,15,16
 40 0 40 0 40 15 c 2,17,-1
 40 64 l 2,18,19
 40 79 40 79 55 79 c 2,20,-1
 108 79 l 1,21,-1
 108 598 l 1,22,-1
 55 598 l 2,23,24
 40 598 40 598 40 613 c 2,25,-1
 40 664 l 2,26,27
 40 679 40 679 55 679 c 2,28,-1
 202 679 l 2,29,30
 216 679 216 679 225 666 c 2,31,-1
 558 160 l 1,32,-1
 558 598 l 1,33,-1
 505 598 l 2,34,35
 490 598 490 598 490 613 c 2,36,-1
 490 664 l 2,37,38
 490 679 490 679 505 679 c 2,39,-1
 698 679 l 2,40,41
 713 679 713 679 713 664 c 2,42,-1
 713 613 l 2,43,44
 713 598 713 598 698 598 c 2,45,-1
 645 598 l 1,0,-1
223 837.5 m 128,-1,47
 245 858 245 858 273 858 c 128,-1,48
 301 858 301 858 367 837.5 c 128,-1,49
 433 817 433 817 456 817 c 0,50,51
 490 817 490 817 490 844 c 0,52,53
 490 857 490 857 505 857 c 2,54,-1
 529 857 l 2,55,56
 541 857 541 857 541 843 c 0,57,58
 541 793 541 793 519.5 768.5 c 128,-1,59
 498 744 498 744 465 744 c 128,-1,60
 432 744 432 744 366 763 c 128,-1,61
 300 782 300 782 286 782 c 0,62,63
 256 782 256 782 256 760 c 0,64,65
 256 753 256 753 254 751.5 c 128,-1,66
 252 750 252 750 244 750 c 2,67,-1
 213 750 l 2,68,69
 201 750 201 750 201 764 c 0,70,46
 201 817 201 817 223 837.5 c 128,-1,47
EndSplineSet
EndChar

StartChar: Ograve
Encoding: 210 210 148
Width: 692
GlyphClass: 2
Flags: W
LayerCount: 2
Fore
SplineSet
43 333 m 0,0,1
 43 433 43 433 73 507.5 c 128,-1,2
 103 582 103 582 152 621 c 0,3,4
 245 696 245 696 354 696 c 0,5,6
 391 696 391 696 425 690 c 128,-1,7
 459 684 459 684 502 663.5 c 128,-1,8
 545 643 545 643 575.5 608.5 c 128,-1,9
 606 574 606 574 627.5 510 c 128,-1,10
 649 446 649 446 649 361 c 0,11,12
 649 181 649 181 560.5 84.5 c 128,-1,13
 472 -12 472 -12 333.5 -12 c 128,-1,14
 195 -12 195 -12 119 76 c 128,-1,15
 43 164 43 164 43 333 c 0,0,1
345 82 m 0,16,17
 524 82 524 82 524 345 c 128,-1,18
 524 608 524 608 342 608 c 0,19,20
 278 608 278 608 236.5 573.5 c 128,-1,21
 195 539 195 539 179 487.5 c 128,-1,22
 163 436 163 436 163 368 c 0,23,24
 163 82 163 82 345 82 c 0,16,17
364 841 m 2,25,-1
 405 749 l 2,26,27
 407 744 407 744 407 740 c 0,28,29
 407 732 407 732 394 732 c 2,30,-1
 354 732 l 2,31,32
 335 732 335 732 324 747 c 2,33,-1
 259 843 l 2,34,35
 255 848 255 848 255 853 c 128,-1,36
 255 858 255 858 267 858 c 2,37,-1
 337 858 l 2,38,39
 356 858 356 858 364 841 c 2,25,-1
EndSplineSet
EndChar

StartChar: Oacute
Encoding: 211 211 149
Width: 692
GlyphClass: 2
Flags: W
LayerCount: 2
Fore
SplineSet
43 333 m 0,0,1
 43 433 43 433 73 507.5 c 128,-1,2
 103 582 103 582 152 621 c 0,3,4
 245 696 245 696 354 696 c 0,5,6
 391 696 391 696 425 690 c 128,-1,7
 459 684 459 684 502 663.5 c 128,-1,8
 545 643 545 643 575.5 608.5 c 128,-1,9
 606 574 606 574 627.5 510 c 128,-1,10
 649 446 649 446 649 361 c 0,11,12
 649 181 649 181 560.5 84.5 c 128,-1,13
 472 -12 472 -12 333.5 -12 c 128,-1,14
 195 -12 195 -12 119 76 c 128,-1,15
 43 164 43 164 43 333 c 0,0,1
345 82 m 0,16,17
 524 82 524 82 524 345 c 128,-1,18
 524 608 524 608 342 608 c 0,19,20
 278 608 278 608 236.5 573.5 c 128,-1,21
 195 539 195 539 179 487.5 c 128,-1,22
 163 436 163 436 163 368 c 0,23,24
 163 82 163 82 345 82 c 0,16,17
315 746 m 2,25,-1
 360 844 l 2,26,27
 366 858 366 858 381 858 c 2,28,-1
 459 858 l 2,29,30
 468 858 468 858 468 854 c 128,-1,31
 468 850 468 850 465 846 c 2,32,-1
 395 744 l 1,33,34
 388 732 388 732 372 732 c 2,35,-1
 324 732 l 2,36,37
 313 732 313 732 313 739 c 0,38,39
 313 742 313 742 315 746 c 2,25,-1
EndSplineSet
EndChar

StartChar: Ocircumflex
Encoding: 212 212 150
Width: 692
GlyphClass: 2
Flags: W
LayerCount: 2
Fore
SplineSet
43 333 m 0,0,1
 43 433 43 433 73 507.5 c 128,-1,2
 103 582 103 582 152 621 c 0,3,4
 245 696 245 696 354 696 c 0,5,6
 391 696 391 696 425 690 c 128,-1,7
 459 684 459 684 502 663.5 c 128,-1,8
 545 643 545 643 575.5 608.5 c 128,-1,9
 606 574 606 574 627.5 510 c 128,-1,10
 649 446 649 446 649 361 c 0,11,12
 649 181 649 181 560.5 84.5 c 128,-1,13
 472 -12 472 -12 333.5 -12 c 128,-1,14
 195 -12 195 -12 119 76 c 128,-1,15
 43 164 43 164 43 333 c 0,0,1
345 82 m 0,16,17
 524 82 524 82 524 345 c 128,-1,18
 524 608 524 608 342 608 c 0,19,20
 278 608 278 608 236.5 573.5 c 128,-1,21
 195 539 195 539 179 487.5 c 128,-1,22
 163 436 163 436 163 368 c 0,23,24
 163 82 163 82 345 82 c 0,16,17
273 732 m 2,25,-1
 218 732 l 2,26,27
 209 732 209 732 209 736 c 128,-1,28
 209 740 209 740 212 744 c 2,29,-1
 294 851 l 2,30,31
 303 863 303 863 318 863 c 2,32,-1
 394 863 l 2,33,34
 409 863 409 863 418 851 c 2,35,-1
 500 744 l 2,36,37
 503 740 503 740 503 736 c 128,-1,38
 503 732 503 732 494 732 c 2,39,-1
 437 732 l 2,40,41
 421 732 421 732 412 744 c 2,42,-1
 354 815 l 1,43,-1
 297 744 l 2,44,45
 288 732 288 732 273 732 c 2,25,-1
EndSplineSet
EndChar

StartChar: Otilde
Encoding: 213 213 151
Width: 692
GlyphClass: 2
Flags: W
LayerCount: 2
Fore
SplineSet
43 333 m 0,0,1
 43 433 43 433 73 507.5 c 128,-1,2
 103 582 103 582 152 621 c 0,3,4
 245 696 245 696 354 696 c 0,5,6
 391 696 391 696 425 690 c 128,-1,7
 459 684 459 684 502 663.5 c 128,-1,8
 545 643 545 643 575.5 608.5 c 128,-1,9
 606 574 606 574 627.5 510 c 128,-1,10
 649 446 649 446 649 361 c 0,11,12
 649 181 649 181 560.5 84.5 c 128,-1,13
 472 -12 472 -12 333.5 -12 c 128,-1,14
 195 -12 195 -12 119 76 c 128,-1,15
 43 164 43 164 43 333 c 0,0,1
345 82 m 0,16,17
 524 82 524 82 524 345 c 128,-1,18
 524 608 524 608 342 608 c 0,19,20
 278 608 278 608 236.5 573.5 c 128,-1,21
 195 539 195 539 179 487.5 c 128,-1,22
 163 436 163 436 163 368 c 0,23,24
 163 82 163 82 345 82 c 0,16,17
198 837.5 m 128,-1,26
 220 858 220 858 248 858 c 128,-1,27
 276 858 276 858 342 837.5 c 128,-1,28
 408 817 408 817 431 817 c 0,29,30
 465 817 465 817 465 844 c 0,31,32
 465 857 465 857 480 857 c 2,33,-1
 504 857 l 2,34,35
 516 857 516 857 516 843 c 0,36,37
 516 793 516 793 494.5 768.5 c 128,-1,38
 473 744 473 744 440.5 744 c 128,-1,39
 408 744 408 744 342 763 c 128,-1,40
 276 782 276 782 261 782 c 0,41,42
 231 782 231 782 231 760 c 0,43,44
 231 753 231 753 229 751.5 c 128,-1,45
 227 750 227 750 219 750 c 2,46,-1
 188 750 l 2,47,48
 176 750 176 750 176 764 c 0,49,25
 176 817 176 817 198 837.5 c 128,-1,26
EndSplineSet
EndChar

StartChar: Odieresis
Encoding: 214 214 152
Width: 692
GlyphClass: 2
Flags: W
LayerCount: 2
Fore
SplineSet
43 333 m 0,0,1
 43 433 43 433 73 507.5 c 128,-1,2
 103 582 103 582 152 621 c 0,3,4
 245 696 245 696 354 696 c 0,5,6
 391 696 391 696 425 690 c 128,-1,7
 459 684 459 684 502 663.5 c 128,-1,8
 545 643 545 643 575.5 608.5 c 128,-1,9
 606 574 606 574 627.5 510 c 128,-1,10
 649 446 649 446 649 361 c 0,11,12
 649 181 649 181 560.5 84.5 c 128,-1,13
 472 -12 472 -12 333.5 -12 c 128,-1,14
 195 -12 195 -12 119 76 c 128,-1,15
 43 164 43 164 43 333 c 0,0,1
345 82 m 0,16,17
 524 82 524 82 524 345 c 128,-1,18
 524 608 524 608 342 608 c 0,19,20
 278 608 278 608 236.5 573.5 c 128,-1,21
 195 539 195 539 179 487.5 c 128,-1,22
 163 436 163 436 163 368 c 0,23,24
 163 82 163 82 345 82 c 0,16,17
491.5 754.5 m 128,-1,26
 474 738 474 738 446.5 738 c 128,-1,27
 419 738 419 738 402 754.5 c 128,-1,28
 385 771 385 771 385 799.5 c 128,-1,29
 385 828 385 828 402 844 c 128,-1,30
 419 860 419 860 447 860 c 0,31,32
 509 860 509 860 509 800 c 0,33,25
 509 771 509 771 491.5 754.5 c 128,-1,26
288.5 754.5 m 128,-1,35
 271 738 271 738 243.5 738 c 128,-1,36
 216 738 216 738 199 754.5 c 128,-1,37
 182 771 182 771 182 799.5 c 128,-1,38
 182 828 182 828 199 844 c 128,-1,39
 216 860 216 860 244 860 c 0,40,41
 306 860 306 860 306 800 c 0,42,34
 306 771 306 771 288.5 754.5 c 128,-1,35
EndSplineSet
EndChar

StartChar: multiply
Encoding: 215 215 153
Width: 530
GlyphClass: 2
Flags: W
LayerCount: 2
Fore
SplineSet
88 169 m 2,0,-1
 211 291 l 1,1,-1
 88 414 l 2,2,3
 82 420 82 420 82 427 c 128,-1,4
 82 434 82 434 88 440 c 2,5,-1
 114 466 l 2,6,7
 120 472 120 472 127 472 c 1,8,-1
 140 466 l 1,9,-1
 262 343 l 1,10,-1
 387 468 l 2,11,12
 394 474 394 474 400 474 c 1,13,-1
 413 468 l 1,14,-1
 433 448 l 2,15,16
 446 435 446 435 433 422 c 2,17,-1
 308 297 l 1,18,-1
 442 164 l 2,19,20
 448 158 448 158 448 151 c 128,-1,21
 448 144 448 144 442 138 c 2,22,-1
 416 112 l 2,23,24
 410 106 410 106 403 106 c 1,25,-1
 390 112 l 1,26,-1
 257 245 l 1,27,-1
 134 123 l 2,28,29
 121 110 121 110 108 123 c 2,30,-1
 88 143 l 2,31,32
 82 150 82 150 82 156 c 128,-1,33
 82 162 82 162 88 169 c 2,0,-1
EndSplineSet
EndChar

StartChar: Oslash
Encoding: 216 216 154
Width: 692
GlyphClass: 2
Flags: W
LayerCount: 2
Fore
SplineSet
43 333 m 0,0,1
 43 433 43 433 73 507.5 c 128,-1,2
 103 582 103 582 152 621 c 0,3,4
 245 696 245 696 354 696 c 0,5,6
 395 696 395 696 434 688 c 1,7,-1
 455 743 l 2,8,9
 459 754 459 754 463.5 757.5 c 128,-1,10
 468 761 468 761 480 761 c 2,11,-1
 511 761 l 2,12,13
 522 761 522 761 525 757.5 c 128,-1,14
 528 754 528 754 524 743 c 2,15,-1
 496 667 l 1,16,17
 649 594 649 594 649 361 c 0,18,19
 649 181 649 181 560.5 84.5 c 128,-1,20
 472 -12 472 -12 333 -12 c 0,21,22
 286 -12 286 -12 249 -2 c 1,23,-1
 225 -67 l 2,24,25
 221 -78 221 -78 216.5 -81.5 c 128,-1,26
 212 -85 212 -85 200 -85 c 2,27,-1
 170 -85 l 2,28,29
 159 -85 159 -85 156 -81.5 c 128,-1,30
 153 -78 153 -78 157 -67 c 2,31,-1
 189 19 l 1,32,33
 43 95 43 95 43 333 c 0,0,1
345 82 m 0,34,35
 524 82 524 82 524 342 c 0,36,37
 524 498 524 498 458 564 c 1,38,-1
 284 92 l 1,39,40
 312 82 312 82 345 82 c 0,34,35
163 368 m 0,41,42
 163 194 163 194 228 127 c 1,43,-1
 402 599 l 1,44,45
 375 608 375 608 342 608 c 0,46,47
 278 608 278 608 236.5 573.5 c 128,-1,48
 195 539 195 539 179 487.5 c 128,-1,49
 163 436 163 436 163 368 c 0,41,42
EndSplineSet
EndChar

StartChar: Ugrave
Encoding: 217 217 155
Width: 713
GlyphClass: 2
Flags: W
LayerCount: 2
Fore
SplineSet
205 598 m 1,0,-1
 205 284 l 2,1,2
 205 234 205 234 210 201.5 c 128,-1,3
 215 169 215 169 230 138 c 0,4,5
 259 78 259 78 354.5 78 c 128,-1,6
 450 78 450 78 487 130 c 128,-1,7
 524 182 524 182 524 281 c 2,8,-1
 524 598 l 1,9,-1
 471 598 l 2,10,11
 456 598 456 598 456 613 c 2,12,-1
 456 664 l 2,13,14
 456 679 456 679 471 679 c 2,15,-1
 673 679 l 2,16,17
 688 679 688 679 688 664 c 2,18,-1
 688 613 l 2,19,20
 688 598 688 598 673 598 c 2,21,-1
 620 598 l 1,22,-1
 620 260 l 2,23,24
 620 150 620 150 568 74 c 0,25,26
 540 34 540 34 486.5 11 c 128,-1,27
 433 -12 433 -12 357 -12 c 0,28,29
 209 -12 209 -12 151 52.5 c 128,-1,30
 93 117 93 117 93 249 c 2,31,-1
 93 598 l 1,32,-1
 40 598 l 2,33,34
 25 598 25 598 25 613 c 2,35,-1
 25 664 l 2,36,37
 25 679 25 679 40 679 c 2,38,-1
 258 679 l 2,39,40
 273 679 273 679 273 664 c 2,41,-1
 273 613 l 2,42,43
 273 598 273 598 258 598 c 2,44,-1
 205 598 l 1,0,-1
370 841 m 2,45,-1
 411 749 l 2,46,47
 413 744 413 744 413 740 c 0,48,49
 413 732 413 732 400 732 c 2,50,-1
 360 732 l 2,51,52
 341 732 341 732 330 747 c 2,53,-1
 265 843 l 2,54,55
 261 848 261 848 261 853 c 128,-1,56
 261 858 261 858 273 858 c 2,57,-1
 343 858 l 2,58,59
 362 858 362 858 370 841 c 2,45,-1
EndSplineSet
EndChar

StartChar: Uacute
Encoding: 218 218 156
Width: 713
GlyphClass: 2
Flags: W
LayerCount: 2
Fore
SplineSet
205 598 m 1,0,-1
 205 284 l 2,1,2
 205 234 205 234 210 201.5 c 128,-1,3
 215 169 215 169 230 138 c 0,4,5
 259 78 259 78 354.5 78 c 128,-1,6
 450 78 450 78 487 130 c 128,-1,7
 524 182 524 182 524 281 c 2,8,-1
 524 598 l 1,9,-1
 471 598 l 2,10,11
 456 598 456 598 456 613 c 2,12,-1
 456 664 l 2,13,14
 456 679 456 679 471 679 c 2,15,-1
 673 679 l 2,16,17
 688 679 688 679 688 664 c 2,18,-1
 688 613 l 2,19,20
 688 598 688 598 673 598 c 2,21,-1
 620 598 l 1,22,-1
 620 260 l 2,23,24
 620 150 620 150 568 74 c 0,25,26
 540 34 540 34 486.5 11 c 128,-1,27
 433 -12 433 -12 357 -12 c 0,28,29
 209 -12 209 -12 151 52.5 c 128,-1,30
 93 117 93 117 93 249 c 2,31,-1
 93 598 l 1,32,-1
 40 598 l 2,33,34
 25 598 25 598 25 613 c 2,35,-1
 25 664 l 2,36,37
 25 679 25 679 40 679 c 2,38,-1
 258 679 l 2,39,40
 273 679 273 679 273 664 c 2,41,-1
 273 613 l 2,42,43
 273 598 273 598 258 598 c 2,44,-1
 205 598 l 1,0,-1
337 746 m 2,45,-1
 382 844 l 2,46,47
 388 858 388 858 403 858 c 2,48,-1
 481 858 l 2,49,50
 490 858 490 858 490 854 c 128,-1,51
 490 850 490 850 487 846 c 2,52,-1
 417 744 l 1,53,54
 410 732 410 732 394 732 c 2,55,-1
 346 732 l 2,56,57
 335 732 335 732 335 739 c 0,58,59
 335 742 335 742 337 746 c 2,45,-1
EndSplineSet
EndChar

StartChar: Ucircumflex
Encoding: 219 219 157
Width: 713
GlyphClass: 2
Flags: W
LayerCount: 2
Fore
SplineSet
205 598 m 1,0,-1
 205 284 l 2,1,2
 205 234 205 234 210 201.5 c 128,-1,3
 215 169 215 169 230 138 c 0,4,5
 259 78 259 78 354.5 78 c 128,-1,6
 450 78 450 78 487 130 c 128,-1,7
 524 182 524 182 524 281 c 2,8,-1
 524 598 l 1,9,-1
 471 598 l 2,10,11
 456 598 456 598 456 613 c 2,12,-1
 456 664 l 2,13,14
 456 679 456 679 471 679 c 2,15,-1
 673 679 l 2,16,17
 688 679 688 679 688 664 c 2,18,-1
 688 613 l 2,19,20
 688 598 688 598 673 598 c 2,21,-1
 620 598 l 1,22,-1
 620 260 l 2,23,24
 620 150 620 150 568 74 c 0,25,26
 540 34 540 34 486.5 11 c 128,-1,27
 433 -12 433 -12 357 -12 c 0,28,29
 209 -12 209 -12 151 52.5 c 128,-1,30
 93 117 93 117 93 249 c 2,31,-1
 93 598 l 1,32,-1
 40 598 l 2,33,34
 25 598 25 598 25 613 c 2,35,-1
 25 664 l 2,36,37
 25 679 25 679 40 679 c 2,38,-1
 258 679 l 2,39,40
 273 679 273 679 273 664 c 2,41,-1
 273 613 l 2,42,43
 273 598 273 598 258 598 c 2,44,-1
 205 598 l 1,0,-1
283 732 m 2,45,-1
 228 732 l 2,46,47
 219 732 219 732 219 736 c 128,-1,48
 219 740 219 740 222 744 c 2,49,-1
 304 851 l 2,50,51
 313 863 313 863 328 863 c 2,52,-1
 404 863 l 2,53,54
 419 863 419 863 428 851 c 2,55,-1
 510 744 l 2,56,57
 513 740 513 740 513 736 c 128,-1,58
 513 732 513 732 504 732 c 2,59,-1
 447 732 l 2,60,61
 431 732 431 732 422 744 c 2,62,-1
 364 815 l 1,63,-1
 307 744 l 2,64,65
 298 732 298 732 283 732 c 2,45,-1
EndSplineSet
EndChar

StartChar: Udieresis
Encoding: 220 220 158
Width: 713
GlyphClass: 2
Flags: W
LayerCount: 2
Fore
SplineSet
205 598 m 1,0,-1
 205 284 l 2,1,2
 205 234 205 234 210 201.5 c 128,-1,3
 215 169 215 169 230 138 c 0,4,5
 259 78 259 78 354.5 78 c 128,-1,6
 450 78 450 78 487 130 c 128,-1,7
 524 182 524 182 524 281 c 2,8,-1
 524 598 l 1,9,-1
 471 598 l 2,10,11
 456 598 456 598 456 613 c 2,12,-1
 456 664 l 2,13,14
 456 679 456 679 471 679 c 2,15,-1
 673 679 l 2,16,17
 688 679 688 679 688 664 c 2,18,-1
 688 613 l 2,19,20
 688 598 688 598 673 598 c 2,21,-1
 620 598 l 1,22,-1
 620 260 l 2,23,24
 620 150 620 150 568 74 c 0,25,26
 540 34 540 34 486.5 11 c 128,-1,27
 433 -12 433 -12 357 -12 c 0,28,29
 209 -12 209 -12 151 52.5 c 128,-1,30
 93 117 93 117 93 249 c 2,31,-1
 93 598 l 1,32,-1
 40 598 l 2,33,34
 25 598 25 598 25 613 c 2,35,-1
 25 664 l 2,36,37
 25 679 25 679 40 679 c 2,38,-1
 258 679 l 2,39,40
 273 679 273 679 273 664 c 2,41,-1
 273 613 l 2,42,43
 273 598 273 598 258 598 c 2,44,-1
 205 598 l 1,0,-1
511.5 754.5 m 128,-1,46
 494 738 494 738 466.5 738 c 128,-1,47
 439 738 439 738 422 754.5 c 128,-1,48
 405 771 405 771 405 799.5 c 128,-1,49
 405 828 405 828 422 844 c 128,-1,50
 439 860 439 860 467 860 c 0,51,52
 529 860 529 860 529 800 c 0,53,45
 529 771 529 771 511.5 754.5 c 128,-1,46
308.5 754.5 m 128,-1,55
 291 738 291 738 263.5 738 c 128,-1,56
 236 738 236 738 219 754.5 c 128,-1,57
 202 771 202 771 202 799.5 c 128,-1,58
 202 828 202 828 219 844 c 128,-1,59
 236 860 236 860 264 860 c 0,60,61
 326 860 326 860 326 800 c 0,62,54
 326 771 326 771 308.5 754.5 c 128,-1,55
EndSplineSet
EndChar

StartChar: Yacute
Encoding: 221 221 159
Width: 664
GlyphClass: 2
Flags: W
LayerCount: 2
Fore
SplineSet
279 257 m 1,0,-1
 77 598 l 1,1,-1
 25 598 l 2,2,3
 10 598 10 598 10 613 c 2,4,-1
 10 664 l 2,5,6
 10 679 10 679 25 679 c 2,7,-1
 279 679 l 2,8,9
 294 679 294 679 294 664 c 2,10,-1
 294 613 l 2,11,12
 294 598 294 598 279 598 c 2,13,-1
 208 598 l 1,14,-1
 352 352 l 1,15,-1
 495 598 l 1,16,-1
 428 598 l 2,17,18
 413 598 413 598 413 613 c 2,19,-1
 413 664 l 2,20,21
 413 679 413 679 428 679 c 2,22,-1
 639 679 l 2,23,24
 654 679 654 679 654 664 c 2,25,-1
 654 613 l 2,26,27
 654 598 654 598 639 598 c 2,28,-1
 586 598 l 1,29,-1
 391 270 l 1,30,-1
 391 78 l 1,31,-1
 444 78 l 2,32,33
 459 78 459 78 459 63 c 2,34,-1
 459 15 l 2,35,36
 459 0 459 0 444 0 c 2,37,-1
 226 0 l 2,38,39
 211 0 211 0 211 15 c 2,40,-1
 211 63 l 2,41,42
 211 78 211 78 226 78 c 2,43,-1
 279 78 l 1,44,-1
 279 257 l 1,0,-1
314 746 m 2,45,-1
 359 844 l 2,46,47
 365 858 365 858 380 858 c 2,48,-1
 458 858 l 2,49,50
 467 858 467 858 467 854 c 128,-1,51
 467 850 467 850 464 846 c 2,52,-1
 394 744 l 1,53,54
 387 732 387 732 371 732 c 2,55,-1
 323 732 l 2,56,57
 312 732 312 732 312 739 c 0,58,59
 312 742 312 742 314 746 c 2,45,-1
EndSplineSet
EndChar

StartChar: Thorn
Encoding: 222 222 160
Width: 565
GlyphClass: 2
Flags: W
LayerCount: 2
Fore
SplineSet
298 0 m 2,0,-1
 59 0 l 2,1,2
 48 0 48 0 44 4 c 128,-1,3
 40 8 40 8 40 19 c 2,4,-1
 40 61 l 2,5,6
 40 72 40 72 44 76 c 128,-1,7
 48 80 48 80 59 79 c 1,8,-1
 107 79 l 1,9,-1
 107 599 l 1,10,-1
 59 599 l 1,11,12
 48 598 48 598 44 602 c 128,-1,13
 40 606 40 606 40 617 c 2,14,-1
 40 660 l 2,15,16
 40 671 40 671 44 675 c 128,-1,17
 48 679 48 679 59 679 c 2,18,-1
 266 679 l 2,19,20
 277 679 277 679 281 675 c 128,-1,21
 285 671 285 671 285 660 c 2,22,-1
 285 617 l 2,23,24
 285 606 285 606 281 602 c 128,-1,25
 277 598 277 598 266 599 c 1,26,-1
 219 599 l 1,27,-1
 219 568 l 1,28,-1
 267 568 l 2,29,30
 530 568 530 568 530 374 c 0,31,32
 530 270 530 270 462 213.5 c 128,-1,33
 394 157 394 157 283 157 c 0,34,35
 244 157 244 157 219 160 c 1,36,-1
 219 79 l 1,37,-1
 298 79 l 1,38,39
 309 80 309 80 313 76 c 128,-1,40
 317 72 317 72 317 61 c 2,41,-1
 317 19 l 2,42,43
 317 8 317 8 313 4 c 128,-1,44
 309 0 309 0 298 0 c 2,0,-1
269 483 m 2,45,-1
 219 483 l 1,46,-1
 219 237 l 1,47,48
 227 236 227 236 250 236 c 0,49,50
 333 236 333 236 374 265.5 c 128,-1,51
 415 295 415 295 415 364 c 128,-1,52
 415 433 415 433 376.5 458 c 128,-1,53
 338 483 338 483 269 483 c 2,45,-1
EndSplineSet
EndChar

StartChar: germandbls
Encoding: 223 223 161
Width: 636
GlyphClass: 2
Flags: W
LayerCount: 2
Fore
SplineSet
515 120 m 0,0,1
 515 170 515 170 438 202 c 0,2,3
 406 216 406 216 374 231.5 c 128,-1,4
 342 247 342 247 319.5 276 c 128,-1,5
 297 305 297 305 297 346 c 128,-1,6
 297 387 297 387 316.5 425 c 128,-1,7
 336 463 336 463 359.5 487.5 c 128,-1,8
 383 512 383 512 402.5 544.5 c 128,-1,9
 422 577 422 577 422 607 c 0,10,11
 422 681 422 681 316 681 c 0,12,13
 257 681 257 681 231.5 650.5 c 128,-1,14
 206 620 206 620 206 563 c 2,15,-1
 206 79 l 1,16,-1
 247 79 l 1,17,18
 258 80 258 80 262 76 c 128,-1,19
 266 72 266 72 266 61 c 2,20,-1
 266 19 l 2,21,22
 266 8 266 8 262 4 c 128,-1,23
 258 0 258 0 247 0 c 2,24,-1
 36 0 l 2,25,26
 25 0 25 0 21 4 c 128,-1,27
 17 8 17 8 17 19 c 2,28,-1
 17 61 l 2,29,30
 17 72 17 72 21 76 c 128,-1,31
 25 80 25 80 36 79 c 1,32,-1
 94 79 l 1,33,-1
 94 556 l 2,34,35
 94 649 94 649 143.5 704.5 c 128,-1,36
 193 760 193 760 318 760 c 0,37,38
 411 760 411 760 468 725.5 c 128,-1,39
 525 691 525 691 525 618 c 0,40,41
 525 583 525 583 505.5 548 c 128,-1,42
 486 513 486 513 462 488 c 0,43,44
 399 424 399 424 399 381 c 0,45,46
 399 335 399 335 476 298 c 0,47,48
 508 282 508 282 539.5 264 c 128,-1,49
 571 246 571 246 593.5 213.5 c 128,-1,50
 616 181 616 181 616 136 c 0,51,52
 616 67 616 67 567.5 27.5 c 128,-1,53
 519 -12 519 -12 448 -12 c 128,-1,54
 377 -12 377 -12 323 6 c 0,55,56
 312 10 312 10 309.5 14.5 c 128,-1,57
 307 19 307 19 310 30 c 2,58,-1
 320 68 l 2,59,60
 323 78 323 78 327.5 80.5 c 128,-1,61
 332 83 332 83 342 79 c 0,62,63
 394 57 394 57 436 57 c 0,64,65
 515 57 515 57 515 120 c 0,0,1
EndSplineSet
EndChar

StartChar: aacute
Encoding: 225 225 163
Width: 524
GlyphClass: 2
Flags: W
LayerCount: 2
Fore
SplineSet
328 297 m 1,0,-1
 328 332 l 2,1,2
 328 403 328 403 288 421 c 0,3,4
 269 429 269 429 233 429 c 0,5,6
 165 429 165 429 151 365 c 0,7,8
 148 350 148 350 136 350 c 2,9,-1
 72 350 l 2,10,11
 56 350 56 350 58 365 c 1,12,13
 62 438 62 438 117 472 c 128,-1,14
 172 506 172 506 257 506 c 0,15,16
 436 506 436 506 436 342 c 2,17,-1
 436 79 l 1,18,-1
 479 79 l 2,19,20
 494 79 494 79 494 64 c 2,21,-1
 494 15 l 2,22,23
 494 0 494 0 479 0 c 2,24,-1
 361 0 l 2,25,26
 348 0 348 0 346 15 c 2,27,-1
 339 61 l 1,28,29
 285 -12 285 -12 183 -12 c 0,30,31
 119 -12 119 -12 77 21.5 c 128,-1,32
 35 55 35 55 35 129 c 0,33,34
 35 226 35 226 116 262 c 1,35,36
 183 293 183 293 276 296 c 0,37,38
 295 296 295 296 328 297 c 1,0,-1
330 151 m 2,39,-1
 330 228 l 1,40,41
 234 228 234 228 212 219 c 128,-1,42
 190 210 190 210 173 201 c 0,43,44
 141 184 141 184 141 139 c 0,45,46
 141 70 141 70 220 70 c 0,47,48
 272 70 272 70 301 94.5 c 128,-1,49
 330 119 330 119 330 151 c 2,39,-1
230 580 m 2,50,51
 215 580 215 580 215 589 c 0,52,53
 215 592 215 592 217 598 c 2,54,-1
 259 714 l 2,55,56
 263 725 263 725 267.5 728.5 c 128,-1,57
 272 732 272 732 284 732 c 2,58,-1
 356 732 l 2,59,60
 370 732 370 732 370 727 c 128,-1,61
 370 722 370 722 366 715 c 2,62,-1
 301 597 l 2,63,64
 296 587 296 587 290.5 583.5 c 128,-1,65
 285 580 285 580 273 580 c 2,66,-1
 230 580 l 2,50,51
EndSplineSet
EndChar

StartChar: atilde
Encoding: 227 227 165
Width: 524
GlyphClass: 2
Flags: W
LayerCount: 2
Fore
SplineSet
328 297 m 1,0,-1
 328 332 l 2,1,2
 328 403 328 403 288 421 c 0,3,4
 269 429 269 429 233 429 c 0,5,6
 165 429 165 429 151 365 c 0,7,8
 148 350 148 350 136 350 c 2,9,-1
 72 350 l 2,10,11
 56 350 56 350 58 365 c 1,12,13
 62 438 62 438 117 472 c 128,-1,14
 172 506 172 506 257 506 c 0,15,16
 436 506 436 506 436 342 c 2,17,-1
 436 79 l 1,18,-1
 479 79 l 2,19,20
 494 79 494 79 494 64 c 2,21,-1
 494 15 l 2,22,23
 494 0 494 0 479 0 c 2,24,-1
 361 0 l 2,25,26
 348 0 348 0 346 15 c 2,27,-1
 339 61 l 1,28,29
 285 -12 285 -12 183 -12 c 0,30,31
 119 -12 119 -12 77 21.5 c 128,-1,32
 35 55 35 55 35 129 c 0,33,34
 35 226 35 226 116 262 c 1,35,36
 183 293 183 293 276 296 c 0,37,38
 295 296 295 296 328 297 c 1,0,-1
330 151 m 2,39,-1
 330 228 l 1,40,41
 234 228 234 228 212 219 c 128,-1,42
 190 210 190 210 173 201 c 0,43,44
 141 184 141 184 141 139 c 0,45,46
 141 70 141 70 220 70 c 0,47,48
 272 70 272 70 301 94.5 c 128,-1,49
 330 119 330 119 330 151 c 2,39,-1
102 691.5 m 128,-1,51
 124 712 124 712 152 712 c 128,-1,52
 180 712 180 712 246 691.5 c 128,-1,53
 312 671 312 671 335 671 c 0,54,55
 369 671 369 671 369 698 c 0,56,57
 369 711 369 711 384 711 c 2,58,-1
 408 711 l 2,59,60
 420 711 420 711 420 697 c 0,61,62
 420 647 420 647 398.5 622.5 c 128,-1,63
 377 598 377 598 344.5 598 c 128,-1,64
 312 598 312 598 246 617 c 128,-1,65
 180 636 180 636 165 636 c 0,66,67
 135 636 135 636 135 614 c 0,68,69
 135 607 135 607 133 605.5 c 128,-1,70
 131 604 131 604 123 604 c 2,71,-1
 92 604 l 2,72,73
 80 604 80 604 80 618 c 0,74,50
 80 671 80 671 102 691.5 c 128,-1,51
EndSplineSet
EndChar

StartChar: aring
Encoding: 229 229 167
Width: 524
GlyphClass: 2
Flags: W
LayerCount: 2
Fore
SplineSet
328 297 m 1,0,-1
 328 332 l 2,1,2
 328 403 328 403 288 421 c 0,3,4
 269 429 269 429 233 429 c 0,5,6
 165 429 165 429 151 365 c 0,7,8
 148 350 148 350 136 350 c 2,9,-1
 72 350 l 2,10,11
 56 350 56 350 58 365 c 1,12,13
 62 438 62 438 117 472 c 128,-1,14
 172 506 172 506 257 506 c 0,15,16
 436 506 436 506 436 342 c 2,17,-1
 436 79 l 1,18,-1
 479 79 l 2,19,20
 494 79 494 79 494 64 c 2,21,-1
 494 15 l 2,22,23
 494 0 494 0 479 0 c 2,24,-1
 361 0 l 2,25,26
 348 0 348 0 346 15 c 2,27,-1
 339 61 l 1,28,29
 285 -12 285 -12 183 -12 c 0,30,31
 119 -12 119 -12 77 21.5 c 128,-1,32
 35 55 35 55 35 129 c 0,33,34
 35 226 35 226 116 262 c 1,35,36
 183 293 183 293 276 296 c 0,37,38
 295 296 295 296 328 297 c 1,0,-1
330 151 m 2,39,-1
 330 228 l 1,40,41
 234 228 234 228 212 219 c 128,-1,42
 190 210 190 210 173 201 c 0,43,44
 141 184 141 184 141 139 c 0,45,46
 141 70 141 70 220 70 c 0,47,48
 272 70 272 70 301 94.5 c 128,-1,49
 330 119 330 119 330 151 c 2,39,-1
329 595 m 128,-1,51
 301 565 301 565 255.5 565 c 128,-1,52
 210 565 210 565 184 594 c 128,-1,53
 158 623 158 623 158 665.5 c 128,-1,54
 158 708 158 708 186.5 737 c 128,-1,55
 215 766 215 766 259 766 c 128,-1,56
 303 766 303 766 330 738 c 128,-1,57
 357 710 357 710 357 667.5 c 128,-1,50
 357 625 357 625 329 595 c 128,-1,51
258 714 m 0,58,59
 216 714 216 714 216 666 c 0,60,61
 216 645 216 645 227 631 c 128,-1,62
 238 617 238 617 258 617 c 128,-1,63
 278 617 278 617 289.5 631 c 128,-1,64
 301 645 301 645 301 666.5 c 128,-1,65
 301 688 301 688 289.5 701 c 128,-1,66
 278 714 278 714 258 714 c 0,58,59
EndSplineSet
EndChar

StartChar: ae
Encoding: 230 230 168
Width: 778
GlyphClass: 2
Flags: W
LayerCount: 2
Fore
SplineSet
716 22 m 0,0,1
 644 -12 644 -12 556 -12 c 0,2,3
 441 -12 441 -12 384 51 c 1,4,5
 296 -12 296 -12 194 -12 c 0,6,7
 122 -12 122 -12 78.5 23 c 128,-1,8
 35 58 35 58 35 136 c 0,9,10
 35 199 35 199 72 243 c 0,11,12
 98 273 98 273 165 292 c 1,13,14
 210 306 210 306 252.5 307 c 128,-1,15
 295 308 295 308 328 309 c 1,16,-1
 328 336 l 2,17,18
 328 385 328 385 308 407 c 128,-1,19
 288 429 288 429 243 429 c 0,20,21
 162 429 162 429 151 369 c 0,22,23
 149 357 149 357 144.5 353.5 c 128,-1,24
 140 350 140 350 128 350 c 2,25,-1
 76 350 l 2,26,27
 65 350 65 350 61.5 354 c 128,-1,28
 58 358 58 358 59 369 c 0,29,30
 72 506 72 506 252 506 c 0,31,32
 364 506 364 506 397 436 c 1,33,34
 453 506 453 506 557 506 c 0,35,36
 662 506 662 506 708 438 c 0,37,38
 748 378 748 378 748 285 c 0,39,40
 748 244 748 244 743.5 239.5 c 128,-1,41
 739 235 739 235 727 235 c 2,42,-1
 435 235 l 1,43,44
 435 72 435 72 579 72 c 0,45,46
 630 72 630 72 687 97 c 0,47,48
 698 101 698 101 702 99.5 c 128,-1,49
 706 98 706 98 711 87 c 2,50,-1
 726 48 l 2,51,52
 730 37 730 37 728.5 32 c 128,-1,53
 727 27 727 27 716 22 c 0,0,1
141 145 m 0,54,55
 141 70 141 70 228 70 c 0,56,57
 263 70 263 70 298 83.5 c 128,-1,58
 333 97 333 97 351 113 c 1,59,60
 324 160 324 160 324 235 c 1,61,62
 297 234 297 234 282 233.5 c 128,-1,63
 267 233 267 233 242 230 c 128,-1,64
 217 227 217 227 202 221 c 128,-1,65
 187 215 187 215 172 206 c 0,66,67
 141 187 141 187 141 145 c 0,54,55
594 412 m 0,68,69
 575 422 575 422 545 422 c 128,-1,70
 515 422 515 422 492 410 c 128,-1,71
 469 398 469 398 458 379 c 0,72,73
 437 345 437 345 435 309 c 1,74,-1
 638 309 l 1,75,76
 638 391 638 391 594 412 c 0,68,69
EndSplineSet
EndChar

StartChar: ccedilla
Encoding: 231 231 169
Width: 468
GlyphClass: 2
Flags: W
LayerCount: 2
Fore
SplineSet
149 254 m 0,0,1
 149 72 149 72 290 72 c 0,2,3
 335 72 335 72 395 99 c 0,4,5
 410 105 410 105 416 90 c 2,6,-1
 434 46 l 2,7,8
 439 32 439 32 426 25 c 0,9,10
 374 -7 374 -7 293 -11 c 1,11,-1
 280 -32 l 1,12,-1
 296 -46 l 2,13,14
 334 -79 334 -79 334 -108 c 0,15,16
 334 -149 334 -149 238 -213 c 0,17,18
 233 -216 233 -216 227.5 -216 c 128,-1,19
 222 -216 222 -216 217 -210 c 2,20,-1
 209 -200 l 2,21,22
 200 -189 200 -189 210 -180 c 0,23,24
 251 -144 251 -144 251 -124 c 128,-1,25
 251 -104 251 -104 229 -87 c 2,26,-1
 220 -80 l 2,27,28
 210 -71 210 -71 217 -59 c 1,29,-1
 250 -11 l 1,30,31
 140 -5 140 -5 87.5 63 c 128,-1,32
 35 131 35 131 35 245.5 c 128,-1,33
 35 360 35 360 94.5 433 c 128,-1,34
 154 506 154 506 272 506 c 0,35,36
 362 506 362 506 405 457 c 128,-1,37
 448 408 448 408 448 332 c 0,38,39
 448 319 448 319 431 319 c 2,40,-1
 371 319 l 2,41,42
 355 319 355 319 354 334 c 0,43,44
 349 422 349 422 265 422 c 0,45,46
 205 422 205 422 177 380.5 c 128,-1,47
 149 339 149 339 149 254 c 0,0,1
EndSplineSet
EndChar

StartChar: eacute
Encoding: 233 233 171
Width: 489
GlyphClass: 2
Flags: W
LayerCount: 2
Fore
SplineSet
265 -12 m 0,0,1
 146 -12 146 -12 90.5 57.5 c 128,-1,2
 35 127 35 127 35 241.5 c 128,-1,3
 35 356 35 356 94 431 c 128,-1,4
 153 506 153 506 264 506 c 0,5,6
 319 506 319 506 358.5 485.5 c 128,-1,7
 398 465 398 465 419 430 c 0,8,9
 459 362 459 362 459 273 c 0,10,11
 459 231 459 231 455 227 c 128,-1,12
 451 223 451 223 440 223 c 2,13,-1
 146 223 l 1,14,15
 151 151 151 151 181.5 111.5 c 128,-1,16
 212 72 212 72 287 72 c 0,17,18
 342 72 342 72 400 98 c 0,19,20
 414 105 414 105 420 90 c 2,21,-1
 439 44 l 2,22,23
 444 32 444 32 430 24 c 0,24,25
 364 -12 364 -12 265 -12 c 0,0,1
146 297 m 1,26,-1
 354 297 l 1,27,28
 356 422 356 422 256 422 c 0,29,30
 197 422 197 422 172.5 384.5 c 128,-1,31
 148 347 148 347 146 297 c 1,26,-1
247 580 m 2,32,33
 232 580 232 580 232 589 c 0,34,35
 232 592 232 592 234 598 c 2,36,-1
 276 714 l 2,37,38
 280 725 280 725 284.5 728.5 c 128,-1,39
 289 732 289 732 301 732 c 2,40,-1
 373 732 l 2,41,42
 387 732 387 732 387 727 c 128,-1,43
 387 722 387 722 383 715 c 2,44,-1
 318 597 l 1,45,46
 310 580 310 580 290 580 c 2,47,-1
 247 580 l 2,32,33
EndSplineSet
EndChar

StartChar: edieresis
Encoding: 235 235 173
Width: 489
GlyphClass: 2
Flags: W
LayerCount: 2
Fore
SplineSet
265 -12 m 0,0,1
 146 -12 146 -12 90.5 57.5 c 128,-1,2
 35 127 35 127 35 241.5 c 128,-1,3
 35 356 35 356 94 431 c 128,-1,4
 153 506 153 506 264 506 c 0,5,6
 319 506 319 506 358.5 485.5 c 128,-1,7
 398 465 398 465 419 430 c 0,8,9
 459 362 459 362 459 273 c 0,10,11
 459 231 459 231 455 227 c 128,-1,12
 451 223 451 223 440 223 c 2,13,-1
 146 223 l 1,14,15
 151 151 151 151 181.5 111.5 c 128,-1,16
 212 72 212 72 287 72 c 0,17,18
 342 72 342 72 400 98 c 0,19,20
 414 105 414 105 420 90 c 2,21,-1
 439 44 l 2,22,23
 444 32 444 32 430 24 c 0,24,25
 364 -12 364 -12 265 -12 c 0,0,1
146 297 m 1,26,-1
 354 297 l 1,27,28
 356 422 356 422 256 422 c 0,29,30
 197 422 197 422 172.5 384.5 c 128,-1,31
 148 347 148 347 146 297 c 1,26,-1
411.5 611.5 m 128,-1,33
 394 595 394 595 366.5 595 c 128,-1,34
 339 595 339 595 322 611.5 c 128,-1,35
 305 628 305 628 305 656.5 c 128,-1,36
 305 685 305 685 322 701 c 128,-1,37
 339 717 339 717 367 717 c 0,38,39
 429 717 429 717 429 657 c 0,40,32
 429 628 429 628 411.5 611.5 c 128,-1,33
208.5 611.5 m 128,-1,42
 191 595 191 595 163.5 595 c 128,-1,43
 136 595 136 595 119 611.5 c 128,-1,44
 102 628 102 628 102 656.5 c 128,-1,45
 102 685 102 685 119 701 c 128,-1,46
 136 717 136 717 164 717 c 0,47,48
 226 717 226 717 226 657 c 0,49,41
 226 628 226 628 208.5 611.5 c 128,-1,42
EndSplineSet
EndChar

StartChar: iacute
Encoding: 237 237 175
Width: 294
GlyphClass: 2
Flags: W
LayerCount: 2
Fore
SplineSet
206 480 m 2,0,-1
 206 79 l 1,1,-1
 269 79 l 2,2,3
 284 79 284 79 284 64 c 2,4,-1
 284 15 l 2,5,6
 284 0 284 0 269 0 c 2,7,-1
 31 0 l 2,8,9
 16 0 16 0 16 15 c 2,10,-1
 16 64 l 2,11,12
 16 79 16 79 31 79 c 2,13,-1
 94 79 l 1,14,-1
 94 413 l 1,15,-1
 40 413 l 2,16,17
 25 413 25 413 25 428 c 2,18,-1
 25 480 l 2,19,20
 25 495 25 495 40 495 c 2,21,-1
 191 495 l 2,22,23
 206 495 206 495 206 480 c 2,0,-1
114 580 m 2,24,25
 99 580 99 580 99 589 c 0,26,27
 99 592 99 592 101 598 c 2,28,-1
 143 714 l 2,29,30
 147 725 147 725 151.5 728.5 c 128,-1,31
 156 732 156 732 168 732 c 2,32,-1
 240 732 l 2,33,34
 254 732 254 732 254 727 c 128,-1,35
 254 722 254 722 250 715 c 2,36,-1
 185 597 l 2,37,38
 180 587 180 587 174.5 583.5 c 128,-1,39
 169 580 169 580 157 580 c 2,40,-1
 114 580 l 2,24,25
EndSplineSet
EndChar

StartChar: idieresis
Encoding: 239 239 177
Width: 294
GlyphClass: 2
Flags: W
LayerCount: 2
Fore
SplineSet
206 79 m 1,0,-1
 269 79 l 2,1,2
 284 79 284 79 284 64 c 2,3,-1
 284 15 l 2,4,5
 284 0 284 0 269 0 c 2,6,-1
 31 0 l 2,7,8
 16 0 16 0 16 15 c 2,9,-1
 16 64 l 2,10,11
 16 79 16 79 31 79 c 2,12,13
 31 79 31 79 94 79 c 1,14,-1
 94 413 l 1,15,-1
 40 413 l 2,16,17
 25 413 25 413 25 428 c 2,18,-1
 25 480 l 2,19,20
 25 495 25 495 40 495 c 2,21,-1
 191 495 l 2,22,23
 206 495 206 495 206 480 c 2,24,-1
 206 79 l 1,0,-1
270.5 611.5 m 128,-1,26
 253 595 253 595 225.5 595 c 128,-1,27
 198 595 198 595 181 611.5 c 128,-1,28
 164 628 164 628 164 656.5 c 128,-1,29
 164 685 164 685 181 701 c 128,-1,30
 198 717 198 717 226 717 c 0,31,32
 288 717 288 717 288 657 c 0,33,25
 288 628 288 628 270.5 611.5 c 128,-1,26
67.5 611.5 m 128,-1,35
 50 595 50 595 22.5 595 c 128,-1,36
 -5 595 -5 595 -22 611.5 c 128,-1,37
 -39 628 -39 628 -39 656.5 c 128,-1,38
 -39 685 -39 685 -22 701 c 128,-1,39
 -5 717 -5 717 23 717 c 0,40,41
 85 717 85 717 85 657 c 0,42,34
 85 628 85 628 67.5 611.5 c 128,-1,35
EndSplineSet
EndChar

StartChar: eth
Encoding: 240 240 178
Width: 528
GlyphClass: 2
Flags: W
LayerCount: 2
Fore
SplineSet
357 568 m 1,0,-1
 264 525 l 2,1,2
 254 520 254 520 249 522 c 128,-1,3
 244 524 244 524 240 534 c 2,4,-1
 234 548 l 2,5,6
 232 554 232 554 232 558 c 0,7,8
 232 568 232 568 244 573 c 2,9,-1
 335 616 l 1,10,11
 292 674 292 674 224 674 c 0,12,13
 145 674 145 674 138 598 c 0,14,15
 136 587 136 587 132 583 c 128,-1,16
 128 579 128 579 117 579 c 2,17,-1
 71 579 l 2,18,19
 60 579 60 579 56 583 c 128,-1,20
 52 587 52 587 53 598 c 0,21,22
 57 747 57 747 228 747 c 0,23,24
 353 747 353 747 416 653 c 1,25,-1
 505 695 l 2,26,27
 515 700 515 700 520 698 c 128,-1,28
 525 696 525 696 529 686 c 2,29,-1
 536 670 l 2,30,31
 539 664 539 664 539 661 c 0,32,33
 539 652 539 652 526 647 c 2,34,-1
 440 607 l 1,35,36
 491 498 491 498 491 298 c 0,37,38
 491 142 491 142 434.5 65 c 128,-1,39
 378 -12 378 -12 264.5 -12 c 128,-1,40
 151 -12 151 -12 93 47 c 128,-1,41
 35 106 35 106 35 206.5 c 128,-1,42
 35 307 35 307 87.5 369 c 128,-1,43
 140 431 140 431 236.5 431 c 128,-1,44
 333 431 333 431 387 356 c 1,45,46
 385 484 385 484 357 568 c 1,0,-1
383 259 m 1,47,48
 367 292 367 292 331 318 c 128,-1,49
 295 344 295 344 246.5 344 c 128,-1,50
 198 344 198 344 169.5 310 c 128,-1,51
 141 276 141 276 141 213.5 c 128,-1,52
 141 151 141 151 170 110.5 c 128,-1,53
 199 70 199 70 260 70 c 0,54,55
 344 70 344 70 367 136 c 0,56,57
 383 183 383 183 383 242 c 0,58,59
 383 250 383 250 383 259 c 1,47,48
EndSplineSet
EndChar

StartChar: oacute
Encoding: 243 243 181
Width: 532
GlyphClass: 2
Flags: W
LayerCount: 2
Fore
SplineSet
35 240 m 0,0,1
 35 315 35 315 58 370 c 128,-1,2
 81 425 81 425 118 453 c 0,3,4
 189 506 189 506 272 506 c 0,5,6
 333 506 333 506 375 487 c 128,-1,7
 417 468 417 468 440.5 443 c 128,-1,8
 464 418 464 418 480.5 371 c 128,-1,9
 497 324 497 324 497 261 c 0,10,11
 497 127 497 127 429.5 57.5 c 128,-1,12
 362 -12 362 -12 257 -12 c 128,-1,13
 152 -12 152 -12 93.5 51.5 c 128,-1,14
 35 115 35 115 35 240 c 0,0,1
265 70 m 0,15,16
 325 70 325 70 352.5 114.5 c 128,-1,17
 380 159 380 159 380 247 c 128,-1,18
 380 335 380 335 352.5 379.5 c 128,-1,19
 325 424 325 424 263 424 c 0,20,21
 148 424 148 424 148 262 c 0,22,23
 148 70 148 70 265 70 c 0,15,16
253 580 m 2,24,25
 238 580 238 580 238 589 c 0,26,27
 238 592 238 592 240 598 c 2,28,-1
 282 714 l 2,29,30
 286 725 286 725 290.5 728.5 c 128,-1,31
 295 732 295 732 307 732 c 2,32,-1
 379 732 l 2,33,34
 393 732 393 732 393 727 c 128,-1,35
 393 722 393 722 389 715 c 2,36,-1
 324 597 l 1,37,38
 316 580 316 580 296 580 c 2,39,-1
 253 580 l 2,24,25
EndSplineSet
EndChar

StartChar: otilde
Encoding: 245 245 183
Width: 532
GlyphClass: 2
Flags: W
LayerCount: 2
Fore
SplineSet
35 240 m 0,0,1
 35 315 35 315 58 370 c 128,-1,2
 81 425 81 425 118 453 c 0,3,4
 189 506 189 506 272 506 c 0,5,6
 333 506 333 506 375 487 c 128,-1,7
 417 468 417 468 440.5 443 c 128,-1,8
 464 418 464 418 480.5 371 c 128,-1,9
 497 324 497 324 497 261 c 0,10,11
 497 127 497 127 429.5 57.5 c 128,-1,12
 362 -12 362 -12 257 -12 c 128,-1,13
 152 -12 152 -12 93.5 51.5 c 128,-1,14
 35 115 35 115 35 240 c 0,0,1
265 70 m 0,15,16
 325 70 325 70 352.5 114.5 c 128,-1,17
 380 159 380 159 380 247 c 128,-1,18
 380 335 380 335 352.5 379.5 c 128,-1,19
 325 424 325 424 263 424 c 0,20,21
 148 424 148 424 148 262 c 0,22,23
 148 70 148 70 265 70 c 0,15,16
118 691.5 m 128,-1,25
 140 712 140 712 168 712 c 128,-1,26
 196 712 196 712 262 691.5 c 128,-1,27
 328 671 328 671 351 671 c 0,28,29
 385 671 385 671 385 698 c 0,30,31
 385 711 385 711 400 711 c 2,32,-1
 424 711 l 2,33,34
 436 711 436 711 436 697 c 0,35,36
 436 647 436 647 414.5 622.5 c 128,-1,37
 393 598 393 598 360.5 598 c 128,-1,38
 328 598 328 598 262 617 c 128,-1,39
 196 636 196 636 181 636 c 0,40,41
 151 636 151 636 151 614 c 0,42,43
 151 607 151 607 149 605.5 c 128,-1,44
 147 604 147 604 139 604 c 2,45,-1
 108 604 l 2,46,47
 96 604 96 604 96 618 c 0,48,24
 96 671 96 671 118 691.5 c 128,-1,25
EndSplineSet
EndChar

StartChar: divide
Encoding: 247 247 185
Width: 530
GlyphClass: 2
Flags: W
LayerCount: 2
Fore
SplineSet
264 82 m 128,-1,1
 229 82 229 82 209 101.5 c 128,-1,2
 189 121 189 121 189 150.5 c 128,-1,3
 189 180 189 180 210 200 c 128,-1,4
 231 220 231 220 264 220 c 128,-1,5
 297 220 297 220 318 201 c 128,-1,6
 339 182 339 182 339 152 c 128,-1,7
 339 122 339 122 319 102 c 128,-1,0
 299 82 299 82 264 82 c 128,-1,1
264 388 m 128,-1,9
 229 388 229 388 209 407.5 c 128,-1,10
 189 427 189 427 189 456.5 c 128,-1,11
 189 486 189 486 210 506 c 128,-1,12
 231 526 231 526 264 526 c 128,-1,13
 297 526 297 526 318 507 c 128,-1,14
 339 488 339 488 339 458 c 128,-1,15
 339 428 339 428 319 408 c 128,-1,8
 299 388 299 388 264 388 c 128,-1,9
35 284 m 2,16,-1
 35 311 l 2,17,18
 35 322 35 322 39 326 c 128,-1,19
 43 330 43 330 54 330 c 2,20,-1
 476 330 l 2,21,22
 487 330 487 330 491 326 c 128,-1,23
 495 322 495 322 495 311 c 2,24,-1
 495 284 l 2,25,26
 495 273 495 273 491 269 c 128,-1,27
 487 265 487 265 476 265 c 2,28,-1
 54 265 l 2,29,30
 43 265 43 265 39 269 c 128,-1,31
 35 273 35 273 35 284 c 2,16,-1
EndSplineSet
EndChar

StartChar: oslash
Encoding: 248 248 186
Width: 532
GlyphClass: 2
Flags: W
LayerCount: 2
Fore
SplineSet
35 240 m 0,0,1
 35 315 35 315 58 370 c 128,-1,2
 81 425 81 425 118.5 453 c 128,-1,3
 156 481 156 481 194 493.5 c 128,-1,4
 232 506 232 506 272 506 c 128,-1,5
 312 506 312 506 341 499 c 1,6,-1
 373 573 l 2,7,8
 377 584 377 584 381.5 587.5 c 128,-1,9
 386 591 386 591 398 591 c 2,10,-1
 422 591 l 2,11,12
 433 591 433 591 436 587.5 c 128,-1,13
 439 584 439 584 435 573 c 2,14,-1
 394 478 l 1,15,16
 497 422 497 422 497 261 c 0,17,18
 497 127 497 127 429.5 57.5 c 128,-1,19
 362 -12 362 -12 256 -12 c 0,20,21
 217 -12 217 -12 184 -3 c 1,22,-1
 150 -83 l 2,23,24
 146 -94 146 -94 141.5 -97.5 c 128,-1,25
 137 -101 137 -101 125 -101 c 2,26,-1
 102 -101 l 2,27,28
 91 -101 91 -101 88 -97.5 c 128,-1,29
 85 -94 85 -94 89 -83 c 2,30,-1
 133 19 l 1,31,32
 35 79 35 79 35 240 c 0,0,1
265 70 m 0,33,34
 325 70 325 70 352.5 114.5 c 128,-1,35
 380 159 380 159 380 247.5 c 128,-1,36
 380 336 380 336 351 381 c 1,37,-1
 220 79 l 1,38,39
 240 70 240 70 265 70 c 0,33,34
148 262 m 0,40,41
 148 165 148 165 176 119 c 1,42,-1
 305 417 l 1,43,44
 284 424 284 424 263 424 c 0,45,46
 148 424 148 424 148 262 c 0,40,41
EndSplineSet
EndChar

StartChar: uacute
Encoding: 250 250 188
Width: 599
GlyphClass: 2
Flags: W
LayerCount: 2
Fore
SplineSet
510 79 m 1,0,-1
 554 79 l 2,1,2
 569 79 569 79 569 64 c 2,3,-1
 569 15 l 2,4,5
 569 0 569 0 554 0 c 2,6,-1
 442 0 l 2,7,8
 430 0 430 0 427 15 c 2,9,-1
 418 71 l 1,10,11
 354 -12 354 -12 250 -12 c 0,12,13
 88 -12 88 -12 88 158 c 2,14,-1
 88 413 l 1,15,-1
 35 413 l 2,16,17
 20 413 20 413 20 428 c 2,18,-1
 20 480 l 2,19,20
 20 495 20 495 35 495 c 2,21,-1
 185 495 l 2,22,23
 200 495 200 495 200 480 c 2,24,-1
 200 188 l 2,25,26
 200 128 200 128 215.5 102.5 c 128,-1,27
 231 77 231 77 281.5 77 c 128,-1,28
 332 77 332 77 365 107 c 128,-1,29
 398 137 398 137 398 175 c 2,30,-1
 398 413 l 1,31,-1
 335 413 l 2,32,33
 320 413 320 413 320 428 c 2,34,-1
 320 480 l 2,35,36
 320 495 320 495 335 495 c 2,37,-1
 495 495 l 2,38,39
 510 495 510 495 510 480 c 2,40,-1
 510 79 l 1,0,-1
261 580 m 2,41,42
 246 580 246 580 246 589 c 0,43,44
 246 592 246 592 248 598 c 2,45,-1
 290 714 l 2,46,47
 294 725 294 725 298.5 728.5 c 128,-1,48
 303 732 303 732 315 732 c 2,49,-1
 387 732 l 2,50,51
 401 732 401 732 401 727 c 128,-1,52
 401 722 401 722 397 715 c 2,53,-1
 332 597 l 1,54,55
 324 580 324 580 304 580 c 2,56,-1
 261 580 l 2,41,42
EndSplineSet
EndChar

StartChar: udieresis
Encoding: 252 252 190
Width: 599
GlyphClass: 2
Flags: W
LayerCount: 2
Fore
SplineSet
510 79 m 1,0,-1
 554 79 l 2,1,2
 569 79 569 79 569 64 c 2,3,-1
 569 15 l 2,4,5
 569 0 569 0 554 0 c 2,6,-1
 442 0 l 2,7,8
 430 0 430 0 427 15 c 2,9,-1
 418 71 l 1,10,11
 354 -12 354 -12 250 -12 c 0,12,13
 88 -12 88 -12 88 158 c 2,14,-1
 88 413 l 1,15,-1
 35 413 l 2,16,17
 20 413 20 413 20 428 c 2,18,-1
 20 480 l 2,19,20
 20 495 20 495 35 495 c 2,21,-1
 185 495 l 2,22,23
 200 495 200 495 200 480 c 2,24,-1
 200 188 l 2,25,26
 200 128 200 128 215.5 102.5 c 128,-1,27
 231 77 231 77 281.5 77 c 128,-1,28
 332 77 332 77 365 107 c 128,-1,29
 398 137 398 137 398 175 c 2,30,-1
 398 413 l 1,31,-1
 335 413 l 2,32,33
 320 413 320 413 320 428 c 2,34,-1
 320 480 l 2,35,36
 320 495 320 495 335 495 c 2,37,-1
 495 495 l 2,38,39
 510 495 510 495 510 480 c 2,40,-1
 510 79 l 1,0,-1
432.5 611.5 m 128,-1,42
 415 595 415 595 387.5 595 c 128,-1,43
 360 595 360 595 343 611.5 c 128,-1,44
 326 628 326 628 326 656.5 c 128,-1,45
 326 685 326 685 343 701 c 128,-1,46
 360 717 360 717 388 717 c 0,47,48
 450 717 450 717 450 657 c 0,49,41
 450 628 450 628 432.5 611.5 c 128,-1,42
229.5 611.5 m 128,-1,51
 212 595 212 595 184.5 595 c 128,-1,52
 157 595 157 595 140 611.5 c 128,-1,53
 123 628 123 628 123 656.5 c 128,-1,54
 123 685 123 685 140 701 c 128,-1,55
 157 717 157 717 185 717 c 0,56,57
 247 717 247 717 247 657 c 0,58,50
 247 628 247 628 229.5 611.5 c 128,-1,51
EndSplineSet
EndChar

StartChar: thorn
Encoding: 254 254 192
Width: 584
GlyphClass: 2
Flags: W
LayerCount: 2
Fore
SplineSet
89 -151 m 1,0,-1
 89 664 l 1,1,-1
 35 664 l 2,2,3
 20 664 20 664 20 679 c 2,4,-1
 20 731 l 2,5,6
 20 746 20 746 35 746 c 2,7,-1
 186 746 l 2,8,9
 198 746 198 746 201 731 c 1,10,-1
 201 422 l 1,11,12
 225 459 225 459 265 482.5 c 128,-1,13
 305 506 305 506 353 506 c 0,14,15
 445 506 445 506 497 445.5 c 128,-1,16
 549 385 549 385 549 267 c 0,17,18
 549 124 549 124 488 56 c 128,-1,19
 427 -12 427 -12 331 -12 c 0,20,21
 252 -12 252 -12 201 30 c 1,22,-1
 201 -150 l 1,23,-1
 307 -150 l 2,24,25
 322 -150 322 -150 322 -165 c 2,26,-1
 322 -215 l 2,27,28
 322 -230 322 -230 307 -230 c 2,29,-1
 36 -230 l 2,30,31
 21 -230 21 -230 21 -215 c 2,32,-1
 21 -166 l 2,33,34
 21 -151 21 -151 36 -151 c 2,35,-1
 89 -151 l 1,0,-1
201 304 m 2,36,-1
 201 113 l 1,37,38
 217 97 217 97 250 84 c 128,-1,39
 283 71 283 71 315 71 c 0,40,41
 373 71 373 71 404.5 110.5 c 128,-1,42
 436 150 436 150 436 244 c 0,43,44
 436 372 436 372 380 401 c 0,45,46
 356 414 356 414 314 414 c 128,-1,47
 272 414 272 414 236.5 384.5 c 128,-1,48
 201 355 201 355 201 304 c 2,36,-1
EndSplineSet
EndChar

StartChar: ydieresis
Encoding: 255 255 193
Width: 519
GlyphClass: 2
Flags: W
LayerCount: 2
Fore
SplineSet
165 481 m 2,0,-1
 282 117 l 1,1,-1
 386 413 l 1,2,-1
 335 413 l 2,3,4
 320 413 320 413 320 428 c 2,5,-1
 320 480 l 2,6,7
 320 495 320 495 335 495 c 2,8,-1
 481 495 l 2,9,10
 493 495 493 495 497 488 c 128,-1,11
 501 481 501 481 501 475.5 c 128,-1,12
 501 470 501 470 499 465 c 2,13,-1
 285 -94 l 2,14,15
 270 -132 270 -132 259.5 -152.5 c 128,-1,16
 249 -173 249 -173 230 -196 c 0,17,18
 193 -240 193 -240 121 -240 c 128,-1,19
 49 -240 49 -240 3 -218 c 0,20,21
 -5 -214 -5 -214 -5 -208 c 128,-1,22
 -5 -202 -5 -202 -4 -199 c 2,23,-1
 13 -150 l 2,24,25
 17 -137 17 -137 32 -141 c 0,26,27
 80 -157 80 -157 110.5 -157 c 128,-1,28
 141 -157 141 -157 157.5 -141.5 c 128,-1,29
 174 -126 174 -126 192 -77 c 2,30,-1
 217 -11 l 1,31,-1
 65 413 l 1,32,-1
 15 413 l 2,33,34
 0 413 0 413 0 428 c 2,35,-1
 0 480 l 2,36,37
 0 495 0 495 15 495 c 2,38,-1
 146 495 l 2,39,40
 161 495 161 495 165 481 c 2,0,-1
410.5 611.5 m 128,-1,42
 393 595 393 595 365.5 595 c 128,-1,43
 338 595 338 595 321 611.5 c 128,-1,44
 304 628 304 628 304 656.5 c 128,-1,45
 304 685 304 685 321 701 c 128,-1,46
 338 717 338 717 366 717 c 0,47,48
 428 717 428 717 428 657 c 0,49,41
 428 628 428 628 410.5 611.5 c 128,-1,42
207.5 611.5 m 128,-1,51
 190 595 190 595 162.5 595 c 128,-1,52
 135 595 135 595 118 611.5 c 128,-1,53
 101 628 101 628 101 656.5 c 128,-1,54
 101 685 101 685 118 701 c 128,-1,55
 135 717 135 717 163 717 c 0,56,57
 225 717 225 717 225 657 c 0,58,50
 225 628 225 628 207.5 611.5 c 128,-1,51
EndSplineSet
EndChar

StartChar: Amacron
Encoding: 256 256 194
Width: 696
GlyphClass: 2
Flags: W
LayerCount: 2
Fore
SplineSet
214 214 m 1,0,-1
 168 79 l 1,1,-1
 228 79 l 2,2,3
 243 79 243 79 243 64 c 2,4,-1
 243 15 l 2,5,6
 243 0 243 0 228 0 c 2,7,-1
 15 0 l 2,8,9
 0 0 0 0 0 15 c 2,10,-1
 0 64 l 2,11,12
 0 79 0 79 15 79 c 2,13,-1
 74 79 l 1,14,-1
 274 665 l 1,15,16
 280 679 280 679 294 679 c 2,17,-1
 391 679 l 2,18,19
 405 679 405 679 411 665 c 1,20,-1
 613 79 l 1,21,-1
 681 79 l 2,22,23
 696 79 696 79 696 64 c 2,24,-1
 696 15 l 2,25,26
 696 0 696 0 681 0 c 2,27,-1
 430 0 l 2,28,29
 415 0 415 0 415 15 c 2,30,-1
 415 64 l 2,31,32
 415 79 415 79 430 79 c 2,33,-1
 492 79 l 1,34,-1
 445 214 l 1,35,-1
 214 214 l 1,0,-1
329 583 m 1,36,-1
 234 289 l 1,37,-1
 423 289 l 1,38,-1
 329 583 l 1,36,-1
478 760 m 2,39,-1
 218 760 l 2,40,41
 207 760 207 760 203 764 c 128,-1,42
 199 768 199 768 199 779 c 2,43,-1
 199 822 l 2,44,45
 199 833 199 833 203 837 c 128,-1,46
 207 841 207 841 218 841 c 2,47,-1
 478 841 l 2,48,49
 489 841 489 841 493 837 c 128,-1,50
 497 833 497 833 497 822 c 2,51,-1
 497 779 l 2,52,53
 497 768 497 768 493 764 c 128,-1,54
 489 760 489 760 478 760 c 2,39,-1
EndSplineSet
EndChar

StartChar: amacron
Encoding: 257 257 195
Width: 524
GlyphClass: 2
Flags: W
LayerCount: 2
Fore
SplineSet
328 297 m 1,0,-1
 328 332 l 2,1,2
 328 403 328 403 288 421 c 0,3,4
 269 429 269 429 233 429 c 0,5,6
 165 429 165 429 151 365 c 0,7,8
 148 350 148 350 136 350 c 2,9,-1
 72 350 l 2,10,11
 56 350 56 350 58 365 c 1,12,13
 62 438 62 438 117 472 c 128,-1,14
 172 506 172 506 257 506 c 0,15,16
 436 506 436 506 436 342 c 2,17,-1
 436 79 l 1,18,-1
 479 79 l 2,19,20
 494 79 494 79 494 64 c 2,21,-1
 494 15 l 2,22,23
 494 0 494 0 479 0 c 2,24,-1
 361 0 l 2,25,26
 348 0 348 0 346 15 c 2,27,-1
 339 61 l 1,28,29
 285 -12 285 -12 183 -12 c 0,30,31
 119 -12 119 -12 77 21.5 c 128,-1,32
 35 55 35 55 35 129 c 0,33,34
 35 226 35 226 116 262 c 1,35,36
 183 293 183 293 276 296 c 0,37,38
 295 296 295 296 328 297 c 1,0,-1
330 151 m 2,39,-1
 330 228 l 1,40,41
 234 228 234 228 212 219 c 128,-1,42
 190 210 190 210 173 201 c 0,43,44
 141 184 141 184 141 139 c 0,45,46
 141 70 141 70 220 70 c 0,47,48
 272 70 272 70 301 94.5 c 128,-1,49
 330 119 330 119 330 151 c 2,39,-1
381 612 m 2,50,-1
 121 612 l 2,51,52
 110 612 110 612 106 616 c 128,-1,53
 102 620 102 620 102 631 c 2,54,-1
 102 674 l 2,55,56
 102 685 102 685 106 689 c 128,-1,57
 110 693 110 693 121 693 c 2,58,-1
 381 693 l 2,59,60
 392 693 392 693 396 689 c 128,-1,61
 400 685 400 685 400 674 c 2,62,-1
 400 631 l 2,63,64
 400 620 400 620 396 616 c 128,-1,65
 392 612 392 612 381 612 c 2,50,-1
EndSplineSet
EndChar

StartChar: Abreve
Encoding: 258 258 196
Width: 696
GlyphClass: 2
Flags: W
LayerCount: 2
Fore
SplineSet
214 214 m 1,0,-1
 168 79 l 1,1,-1
 228 79 l 2,2,3
 243 79 243 79 243 64 c 2,4,-1
 243 15 l 2,5,6
 243 0 243 0 228 0 c 2,7,-1
 15 0 l 2,8,9
 0 0 0 0 0 15 c 2,10,-1
 0 64 l 2,11,12
 0 79 0 79 15 79 c 2,13,-1
 74 79 l 1,14,-1
 274 665 l 1,15,16
 280 679 280 679 294 679 c 2,17,-1
 391 679 l 2,18,19
 405 679 405 679 411 665 c 1,20,-1
 613 79 l 1,21,-1
 681 79 l 2,22,23
 696 79 696 79 696 64 c 2,24,-1
 696 15 l 2,25,26
 696 0 696 0 681 0 c 2,27,-1
 430 0 l 2,28,29
 415 0 415 0 415 15 c 2,30,-1
 415 64 l 2,31,32
 415 79 415 79 430 79 c 2,33,-1
 492 79 l 1,34,-1
 445 214 l 1,35,-1
 214 214 l 1,0,-1
329 583 m 1,36,-1
 234 289 l 1,37,-1
 423 289 l 1,38,-1
 329 583 l 1,36,-1
263 853 m 0,39,40
 274 811 274 811 351.5 811 c 128,-1,41
 429 811 429 811 442 853 c 0,42,43
 446 865 446 865 451 868.5 c 128,-1,44
 456 872 456 872 468 872 c 2,45,-1
 499 872 l 2,46,47
 517 872 517 872 517 857 c 0,48,49
 517 800 517 800 471 767.5 c 128,-1,50
 425 735 425 735 349 735 c 128,-1,51
 273 735 273 735 231.5 766 c 128,-1,52
 190 797 190 797 188 853 c 0,53,54
 188 864 188 864 192 868 c 128,-1,55
 196 872 196 872 207 872 c 2,56,-1
 239 872 l 2,57,58
 251 872 251 872 255.5 868.5 c 128,-1,59
 260 865 260 865 263 853 c 0,39,40
EndSplineSet
EndChar

StartChar: Aogonek
Encoding: 260 260 198
Width: 696
GlyphClass: 2
Flags: W
LayerCount: 2
Fore
SplineSet
450 -147 m 0,0,1
 450 -81 450 -81 537 0 c 1,2,-1
 430 0 l 2,3,4
 415 0 415 0 415 15 c 2,5,-1
 415 64 l 2,6,7
 415 79 415 79 430 79 c 2,8,-1
 492 79 l 1,9,-1
 445 214 l 1,10,-1
 214 214 l 1,11,-1
 168 79 l 1,12,-1
 228 79 l 2,13,14
 243 79 243 79 243 64 c 2,15,-1
 243 15 l 2,16,17
 243 0 243 0 228 0 c 2,18,-1
 15 0 l 2,19,20
 0 0 0 0 0 15 c 2,21,-1
 0 64 l 2,22,23
 0 79 0 79 15 79 c 2,24,-1
 74 79 l 1,25,-1
 274 665 l 1,26,27
 280 679 280 679 294 679 c 2,28,-1
 391 679 l 2,29,30
 405 679 405 679 411 665 c 1,31,-1
 613 79 l 1,32,-1
 681 79 l 2,33,34
 696 79 696 79 696 64 c 2,35,-1
 696 15 l 2,36,37
 696 0 696 0 681 0 c 2,38,-1
 601 0 l 1,39,40
 529 -78 529 -78 529 -128 c 0,41,42
 529 -164 529 -164 562 -164 c 0,43,44
 580 -164 580 -164 597 -155.5 c 128,-1,45
 614 -147 614 -147 620 -159 c 2,46,-1
 630 -179 l 2,47,48
 638 -194 638 -194 623 -203 c 1,49,50
 579 -233 579 -233 536.5 -233 c 128,-1,51
 494 -233 494 -233 472 -209 c 128,-1,52
 450 -185 450 -185 450 -147 c 0,0,1
329 583 m 1,53,-1
 234 289 l 1,54,-1
 423 289 l 1,55,-1
 329 583 l 1,53,-1
EndSplineSet
EndChar

StartChar: aogonek
Encoding: 261 261 199
Width: 540
GlyphClass: 2
Flags: W
LayerCount: 2
Fore
SplineSet
308 -147 m 0,0,1
 308 -81 308 -81 395 0 c 1,2,-1
 361 0 l 2,3,4
 348 0 348 0 346 15 c 2,5,-1
 339 61 l 1,6,7
 285 -12 285 -12 183 -12 c 0,8,9
 119 -12 119 -12 77 21.5 c 128,-1,10
 35 55 35 55 35 129 c 0,11,12
 35 226 35 226 116 262 c 1,13,14
 183 293 183 293 276 296 c 0,15,16
 295 296 295 296 328 297 c 1,17,-1
 328 332 l 2,18,19
 328 403 328 403 288 421 c 0,20,21
 269 429 269 429 233 429 c 0,22,23
 165 429 165 429 151 365 c 0,24,25
 148 350 148 350 136 350 c 2,26,-1
 72 350 l 2,27,28
 56 350 56 350 58 365 c 1,29,30
 62 438 62 438 117 472 c 128,-1,31
 172 506 172 506 257 506 c 0,32,33
 436 506 436 506 436 342 c 2,34,-1
 436 79 l 1,35,-1
 479 79 l 2,36,37
 494 79 494 79 494 64 c 2,38,-1
 494 15 l 2,39,40
 494 0 494 0 479 0 c 2,41,-1
 459 0 l 1,42,43
 387 -78 387 -78 387 -128 c 0,44,45
 387 -164 387 -164 420 -164 c 0,46,47
 438 -164 438 -164 455 -155.5 c 128,-1,48
 472 -147 472 -147 478 -159 c 2,49,-1
 488 -179 l 2,50,51
 496 -194 496 -194 481 -203 c 1,52,53
 437 -233 437 -233 394.5 -233 c 128,-1,54
 352 -233 352 -233 330 -209 c 128,-1,55
 308 -185 308 -185 308 -147 c 0,0,1
330 151 m 2,56,-1
 330 228 l 1,57,58
 234 228 234 228 212 219 c 128,-1,59
 190 210 190 210 173 201 c 0,60,61
 141 184 141 184 141 139 c 0,62,63
 141 70 141 70 220 70 c 0,64,65
 272 70 272 70 301 94.5 c 128,-1,66
 330 119 330 119 330 151 c 2,56,-1
EndSplineSet
EndChar

StartChar: Cacute
Encoding: 262 262 200
Width: 629
GlyphClass: 2
Flags: W
LayerCount: 2
Fore
SplineSet
43 336 m 0,0,1
 43 432 43 432 71.5 505 c 128,-1,2
 100 578 100 578 147 618 c 0,3,4
 239 696 239 696 355.5 696 c 128,-1,5
 472 696 472 696 565 645 c 0,6,7
 578 638 578 638 578 625 c 2,8,-1
 578 496 l 2,9,10
 578 481 578 481 563 481 c 2,11,-1
 507 481 l 2,12,13
 492 481 492 481 493 496 c 2,14,-1
 496 566 l 1,15,16
 434 608 434 608 355 608 c 0,17,18
 163 608 163 608 163 352 c 0,19,20
 163 272 163 272 182 212.5 c 128,-1,21
 201 153 201 153 249 114 c 128,-1,22
 297 75 297 75 377 75 c 128,-1,23
 457 75 457 75 497 107 c 1,24,-1
 493 177 l 2,25,26
 492 192 492 192 507 192 c 2,27,-1
 564 192 l 2,28,29
 579 192 579 192 579 177 c 2,30,-1
 579 50 l 2,31,32
 579 36 579 36 569 31 c 0,33,34
 481 -12 481 -12 368 -12 c 0,35,36
 204 -12 204 -12 123.5 81 c 128,-1,37
 43 174 43 174 43 336 c 0,0,1
321 746 m 2,38,-1
 366 844 l 2,39,40
 372 858 372 858 387 858 c 2,41,-1
 465 858 l 2,42,43
 474 858 474 858 474 854 c 128,-1,44
 474 850 474 850 471 846 c 2,45,-1
 401 744 l 1,46,47
 394 732 394 732 378 732 c 2,48,-1
 330 732 l 2,49,50
 319 732 319 732 319 739 c 0,51,52
 319 742 319 742 321 746 c 2,38,-1
EndSplineSet
EndChar

StartChar: Ccircumflex
Encoding: 264 264 202
Width: 629
GlyphClass: 2
Flags: W
LayerCount: 2
Fore
SplineSet
43 336 m 0,0,1
 43 432 43 432 71.5 505 c 128,-1,2
 100 578 100 578 147 618 c 0,3,4
 239 696 239 696 355.5 696 c 128,-1,5
 472 696 472 696 565 645 c 0,6,7
 578 638 578 638 578 625 c 2,8,-1
 578 496 l 2,9,10
 578 481 578 481 563 481 c 2,11,-1
 507 481 l 2,12,13
 492 481 492 481 493 496 c 2,14,-1
 496 566 l 1,15,16
 434 608 434 608 355 608 c 0,17,18
 163 608 163 608 163 352 c 0,19,20
 163 272 163 272 182 212.5 c 128,-1,21
 201 153 201 153 249 114 c 128,-1,22
 297 75 297 75 377 75 c 128,-1,23
 457 75 457 75 497 107 c 1,24,-1
 493 177 l 2,25,26
 492 192 492 192 507 192 c 2,27,-1
 564 192 l 2,28,29
 579 192 579 192 579 177 c 2,30,-1
 579 50 l 2,31,32
 579 36 579 36 569 31 c 0,33,34
 481 -12 481 -12 368 -12 c 0,35,36
 204 -12 204 -12 123.5 81 c 128,-1,37
 43 174 43 174 43 336 c 0,0,1
277 732 m 2,38,-1
 222 732 l 2,39,40
 213 732 213 732 213 736 c 128,-1,41
 213 740 213 740 216 744 c 2,42,-1
 298 851 l 2,43,44
 307 863 307 863 322 863 c 2,45,-1
 398 863 l 2,46,47
 413 863 413 863 422 851 c 2,48,-1
 504 744 l 2,49,50
 507 740 507 740 507 736 c 128,-1,51
 507 732 507 732 498 732 c 2,52,-1
 441 732 l 2,53,54
 425 732 425 732 416 744 c 2,55,-1
 358 815 l 1,56,-1
 301 744 l 2,57,58
 292 732 292 732 277 732 c 2,38,-1
EndSplineSet
EndChar

StartChar: Cdotaccent
Encoding: 266 266 204
Width: 629
GlyphClass: 2
Flags: W
LayerCount: 2
Fore
SplineSet
43 336 m 0,0,1
 43 432 43 432 71.5 505 c 128,-1,2
 100 578 100 578 147 618 c 0,3,4
 239 696 239 696 355.5 696 c 128,-1,5
 472 696 472 696 565 645 c 0,6,7
 578 638 578 638 578 625 c 2,8,-1
 578 496 l 2,9,10
 578 481 578 481 563 481 c 2,11,-1
 507 481 l 2,12,13
 492 481 492 481 493 496 c 2,14,-1
 496 566 l 1,15,16
 434 608 434 608 355 608 c 0,17,18
 163 608 163 608 163 352 c 0,19,20
 163 272 163 272 182 212.5 c 128,-1,21
 201 153 201 153 249 114 c 128,-1,22
 297 75 297 75 377 75 c 128,-1,23
 457 75 457 75 497 107 c 1,24,-1
 493 177 l 2,25,26
 492 192 492 192 507 192 c 2,27,-1
 564 192 l 2,28,29
 579 192 579 192 579 177 c 2,30,-1
 579 50 l 2,31,32
 579 36 579 36 569 31 c 0,33,34
 481 -12 481 -12 368 -12 c 0,35,36
 204 -12 204 -12 123.5 81 c 128,-1,37
 43 174 43 174 43 336 c 0,0,1
282 801 m 128,-1,39
 282 832 282 832 301.5 852.5 c 128,-1,40
 321 873 321 873 353.5 873 c 128,-1,41
 386 873 386 873 405.5 852.5 c 128,-1,42
 425 832 425 832 425 801 c 128,-1,43
 425 770 425 770 405 750 c 128,-1,44
 385 730 385 730 352.5 730 c 128,-1,45
 320 730 320 730 301 750 c 128,-1,38
 282 770 282 770 282 801 c 128,-1,39
EndSplineSet
EndChar

StartChar: Ccaron
Encoding: 268 268 206
Width: 629
GlyphClass: 2
Flags: W
LayerCount: 2
Fore
SplineSet
43 336 m 0,0,1
 43 432 43 432 71.5 505 c 128,-1,2
 100 578 100 578 147 618 c 0,3,4
 239 696 239 696 355.5 696 c 128,-1,5
 472 696 472 696 565 645 c 0,6,7
 578 638 578 638 578 625 c 2,8,-1
 578 496 l 2,9,10
 578 481 578 481 563 481 c 2,11,-1
 507 481 l 2,12,13
 492 481 492 481 493 496 c 2,14,-1
 496 566 l 1,15,16
 434 608 434 608 355 608 c 0,17,18
 163 608 163 608 163 352 c 0,19,20
 163 272 163 272 182 212.5 c 128,-1,21
 201 153 201 153 249 114 c 128,-1,22
 297 75 297 75 377 75 c 128,-1,23
 457 75 457 75 497 107 c 1,24,-1
 493 177 l 2,25,26
 492 192 492 192 507 192 c 2,27,-1
 564 192 l 2,28,29
 579 192 579 192 579 177 c 2,30,-1
 579 50 l 2,31,32
 579 36 579 36 569 31 c 0,33,34
 481 -12 481 -12 368 -12 c 0,35,36
 204 -12 204 -12 123.5 81 c 128,-1,37
 43 174 43 174 43 336 c 0,0,1
444 863 m 2,38,-1
 499 863 l 2,39,40
 508 863 508 863 508 859.5 c 128,-1,41
 508 856 508 856 505 851 c 2,42,-1
 423 744 l 2,43,44
 414 732 414 732 399 732 c 2,45,-1
 323 732 l 2,46,47
 308 732 308 732 299 744 c 2,48,-1
 217 851 l 2,49,50
 214 856 214 856 214 859.5 c 128,-1,51
 214 863 214 863 223 863 c 2,52,-1
 280 863 l 2,53,54
 296 863 296 863 305 851 c 2,55,-1
 363 780 l 1,56,-1
 420 851 l 2,57,58
 429 863 429 863 444 863 c 2,38,-1
EndSplineSet
EndChar

